<svg width="16" height="16" fill="none" xmlns="http://www.w3.org/2000/svg"><path d="M4.8 12.8c-.88 0-1.6.72-1.6 1.6 0 .88.72 1.6 1.6 1.6.88 0 1.6-.72 1.6-1.6 0-.88-.72-1.6-1.6-1.6zM.5 0a.5.5 0 00-.5.5v.6a.5.5 0 00.5.5h.784a.5.5 0 01.451.286L4.48 7.68 3.36 9.6c-.08.24-.16.56-.16.8 0 .88.72 1.6 1.6 1.6h9.1a.5.5 0 00.5-.5v-.6a.5.5 0 00-.5-.5H5.12c-.08 0-.16-.08-.16-.16v-.08l.72-1.36h5.92c.64 0 1.12-.32 1.36-.8l2.88-5.2c.16-.16.16-.24.16-.4 0-.48-.32-.8-.8-.8H3.683a.5.5 0 01-.456-.295L2.773.295A.5.5 0 002.317 0H.5zm12.3 12.8c-.88 0-1.6.72-1.6 1.6 0 .88.72 1.6 1.6 1.6.88 0 1.6-.72 1.6-1.6 0-.88-.72-1.6-1.6-1.6z" fill="#533780"/></svg>