<svg width="57" height="57" fill="none" xmlns="http://www.w3.org/2000/svg"><path d="M0 0h49a8 8 0 018 8v41a8 8 0 01-8 8H8a8 8 0 01-8-8V0z" fill="#383058" fill-opacity=".3"/><path d="M5.393 5.392h38.216a8 8 0 018 8v30.216a8 8 0 01-8 8H13.393a8 8 0 01-8-8V5.392z" fill="#533780"/><path d="M42.929 34.586v-8.828l.366-.11C44.705 25.225 45 24.51 45 23.983c0-.526-.296-1.241-1.705-1.664L31.24 18.702c-.742-.222-1.716-.345-2.74-.345-1.024 0-1.997.123-2.74.345L13.705 22.32c-1.41.423-1.705 1.138-1.705 1.665 0 .526.296 1.241 1.705 1.664l4.508 1.353v4.75c0 .904.589 2.179 3.391 3.113 1.856.619 4.305.96 6.896.96 2.59 0 5.04-.341 6.896-.96 2.802-.934 3.39-2.209 3.39-3.114V27l2.21-.662v8.248a3.043 3.043 0 00-2.072 2.88v4.142a3.041 3.041 0 003.038 3.038A3.041 3.041 0 0045 41.608v-4.142a3.043 3.043 0 00-2.071-2.88zM26.316 20.554c.559-.167 1.355-.263 2.184-.263.83 0 1.625.096 2.184.263l11.431 3.43-4.578 1.373-.008.002-6.845 2.054c-.559.168-1.355.264-2.184.264-.829 0-1.625-.096-2.184-.264l-6.845-2.054-.008-.002-4.578-1.373 11.43-3.43zM36.853 31.75c0 .125-.35.707-2.069 1.28-1.664.554-3.896.86-6.284.86s-4.62-.306-6.284-.86c-1.718-.573-2.07-1.155-2.07-1.28v-4.17l5.614 1.685c.743.223 1.716.345 2.74.345 1.024 0 1.997-.122 2.74-.345l5.613-1.684v4.17zm6.213 9.858c0 .609-.495 1.104-1.104 1.104a1.106 1.106 0 01-1.104-1.104v-4.143c0-.609.495-1.104 1.104-1.104.61 0 1.104.495 1.104 1.104v4.143z" fill="#FBFAFF"/></svg>