<svg width="57" height="57" fill="none" xmlns="http://www.w3.org/2000/svg"><path d="M0 0h49a8 8 0 018 8v41a8 8 0 01-8 8H8a8 8 0 01-8-8V0z" fill="#533780" fill-opacity=".4"/><path d="M5.393 5.392h38.216a8 8 0 018 8v30.216a8 8 0 01-8 8H13.393a8 8 0 01-8-8V5.392z" fill="#533780"/><path d="M36.987 31.282c1.234 0 2.34-.593 3.073-1.52 2.167-.592 3.772-2.676 3.772-5.149v-5.48c0-5.587-4.3-10.133-9.585-10.133H23.585C18.3 9 14 13.546 14 19.133v5.48c0 2.468 1.598 4.547 3.758 5.144.08.102.163.2.253.295.747.793 1.742 1.23 2.8 1.23h.113a9.126 9.126 0 001.655 3.16h-1.767c-2.942 0-5.336 2.53-5.336 5.64V42h26.887v-1.917c0-3.11-2.394-5.642-5.336-5.642h-1.742a8.934 8.934 0 001.645-3.16h.057zm.284-1.954c.014-.21.021-.424.021-.637v-3.817c.466.063.897.285 1.234.642.401.426.621.992.62 1.594-.004 1.134-.822 2.073-1.875 2.218zm-17.965-.64a2.298 2.298 0 01-.62-1.594c.004-1.127.811-2.061 1.854-2.216v3.727c0 .245.01.488.028.728a2.066 2.066 0 01-1.262-.645zm11.949 8.509l-2.335 2.469-2.343-2.476a7.847 7.847 0 002.31.355h.03c.802 0 1.587-.119 2.338-.348zm-10.443-.822h2.408l3.492 3.691h-9.407c.009-2.037 1.579-3.691 3.507-3.691zm19.722 3.691h-9.407l3.492-3.691h2.408c1.928 0 3.499 1.654 3.507 3.691zm-5.07-11.375c0 1.853-.685 3.594-1.926 4.902-1.237 1.302-2.877 2.019-4.622 2.019h-.023c-3.598-.013-6.524-3.157-6.524-7.007v-.484c.538.33 1.163.52 1.829.52 2.017 0 3.658-1.735 3.658-3.867v-.017c0-.617.476-1.12 1.06-1.12.584 0 1.06.503 1.06 1.12v.017c0 2.132 1.641 3.867 3.658 3.867.666 0 1.29-.19 1.83-.52v.57zm-13.095-3.917c0-1.067.82-1.934 1.829-1.934 1.008 0 1.829.867 1.829 1.934 0 1.066-.82 1.933-1.83 1.933-1.008 0-1.828-.867-1.828-1.933zm11.265 1.933c-1.008 0-1.829-.867-1.829-1.933 0-1.067.82-1.934 1.83-1.934 1.008 0 1.828.867 1.828 1.934 0 1.066-.82 1.933-1.829 1.933zm1.83-5.28a3.485 3.485 0 00-1.83-.52c-1.17 0-2.214.585-2.884 1.492a2.783 2.783 0 00-1.834-.696c-.696 0-1.335.262-1.834.696-.67-.907-1.713-1.492-2.884-1.492-.666 0-1.29.19-1.83.52v-1.488c0-.532.411-.966.915-.966h3.807c.702 0 1.344-.281 1.83-.741.485.46 1.126.74 1.828.74h3.8c.505 0 .915.434.915.967v1.488zm-.915-4.388h-3.8c-.505 0-.915-.434-.915-.967h-1.83c0 .533-.41.967-.914.967h-3.807c-1.513 0-2.743 1.301-2.743 2.9v2.996c-2.05.164-3.675 1.963-3.683 4.152v.008a3.463 3.463 0 01-1.028-2.482v-5.48c0-4.521 3.48-8.2 7.756-8.2h10.662c4.276 0 7.756 3.679 7.756 8.2v5.48c0 .98-.397 1.864-1.029 2.482a4.275 4.275 0 00-1.153-2.944 3.833 3.833 0 00-2.529-1.218v-2.994c0-1.599-1.23-2.9-2.743-2.9z" fill="#fff"/><path d="M28.915 31.745c-1.003 0-1.82-.864-1.82-1.925h-1.83c0 2.128 1.638 3.858 3.65 3.858s3.65-1.73 3.65-3.858h-1.83c0 1.061-.816 1.925-1.82 1.925z" fill="#fff"/><path d="M16.146 45v-3.7c0-.166.127-.3.284-.3h24.973c.157 0 .284.134.284.3V45h-25.54z" stroke="#fff" stroke-width="1.5"/></svg>