<svg width="57" height="57" fill="none" xmlns="http://www.w3.org/2000/svg"><path d="M0 0h49a8 8 0 018 8v41a8 8 0 01-8 8H8a8 8 0 01-8-8V0z" fill="#533780" fill-opacity=".4"/><path d="M5 5h38.216a8 8 0 018 8v30.216a8 8 0 01-8 8H13a8 8 0 01-8-8V5z" fill="#533780"/><g clip-path="url(#prefix__clip0)"><path d="M21.701 35.475c-2.57.786-5.77 1.764-5.77 8.558 0 .534.434.967.967.967h23.204a.967.967 0 00.966-.967c0-6.794-3.199-7.772-5.77-8.558-1.75-.535-3.064-.938-3.631-2.93a6.777 6.777 0 003.59-5.59l.294.295a.967.967 0 101.367-1.367l-1.65-1.65v-5.465A6.775 6.775 0 0028.5 12h-1.934c-4.797 0-8.7 3.903-8.7 8.701v3.932c0 1.247-1.193 2.722-1.651 3.183a.967.967 0 00-.18 1.116c0 .003.002.007.005.013l.005.01c.182.344 2.2 3.867 9.012 4.329-.662 1.367-1.846 1.73-3.356 2.19zm-3.813 7.591c.064-1.266.259-2.219.556-2.95a48.368 48.368 0 0020.112 0c.297.731.492 1.684.556 2.95H17.888zm16.845-5.742c.947.29 1.817.556 2.529 1.079a46.8 46.8 0 01-17.524 0c.712-.523 1.582-.79 2.529-1.079 1.8-.55 3.998-1.223 4.888-4.124a6.771 6.771 0 002.69 0c.89 2.901 3.087 3.573 4.888 4.124zm-1.399-10.758A4.84 4.84 0 0128.5 31.4a4.84 4.84 0 01-4.834-4.834c0-1.15 1.416-2.788 2.665-4.234 1.256-1.453 2.546-2.946 2.982-4.46 2.28.392 4.021 2.407 4.021 4.827v3.867zm-15.201 1.998c.663-.818 1.666-2.32 1.666-3.931V20.7a6.775 6.775 0 016.767-6.767H28.5a4.842 4.842 0 014.745 3.911 6.678 6.678 0 00-4.745-1.978.967.967 0 00-.967.967c0 1.15-1.416 2.789-2.665 4.234-1.541 1.784-3.136 3.628-3.136 5.498 0 1.773.686 3.388 1.805 4.596-1.917-.324-3.216-.922-4.044-1.452a6.294 6.294 0 01-1.36-1.146z" fill="#fff"/></g><defs><clipPath id="prefix__clip0"><path fill="#fff" transform="translate(12 12)" d="M0 0h33v33H0z"/></clipPath></defs></svg>