<svg width="57" height="57" fill="none" xmlns="http://www.w3.org/2000/svg"><path d="M0 0h49a8 8 0 018 8v41a8 8 0 01-8 8H8a8 8 0 01-8-8V0z" fill="#533780" fill-opacity=".3"/><path d="M5.393 5.392h38.216a8 8 0 018 8v30.216a8 8 0 01-8 8H13.393a8 8 0 01-8-8V5.392z" fill="#533780"/><g clip-path="url(#prefix__clip0)"><path d="M41.005 42.214c-.45-1.666-.561-4.34-2.069-5.473V21.242C38.936 15.595 34.341 11 28.694 11c-5.761 0-10.629 4.69-10.629 10.242V36.65c-1.346 1.03-1.617 4.062-2.062 5.534-.107.441-.007.899.273 1.255.28.357.702.561 1.156.561H39.57c.447 0 .865-.2 1.146-.55.28-.348.386-.8.29-1.236zM20.27 37.578l3.367-.914a4.12 4.12 0 002.799-2.59l.52-1.456a6.852 6.852 0 003.333-.064l.494 1.506a4.126 4.126 0 002.68 2.647l3.467 1.088c.44.138.816.41 1.086.766H18.97a2.186 2.186 0 011.3-.983zm8.224-6.715c-2.912 0-5.28-2.55-5.28-5.683v-4.306c4.838 1.525 8.775 1.756 10.56 1.768v2.538c0 3.134-2.368 5.683-5.28 5.683zm-5.89-15.48c1.649-1.558 3.868-2.452 6.09-2.452 4.583 0 8.311 3.728 8.311 8.311v14.553l-2.964-.93a2.191 2.191 0 01-1.424-1.406l-.547-1.67c2.17-1.313 3.635-3.784 3.635-6.609v-3.522a.966.966 0 00-1.027-.963c-.052.003-5.37.306-12.109-2.071a.965.965 0 00-1.286.91v5.646c0 2.926 1.571 5.47 3.87 6.745l-.535 1.5A2.188 2.188 0 0123.13 34.8l-3.135.851v-14.41c0-2.187.926-4.268 2.608-5.858zM18.017 42.07l.381-1.577H38.65l.348 1.578h-20.98z" fill="#D3D0D7"/></g><defs><clipPath id="prefix__clip0"><path fill="#fff" transform="translate(12 11)" d="M0 0h33v33H0z"/></clipPath></defs></svg>