<svg width="57" height="57" fill="none" xmlns="http://www.w3.org/2000/svg"><path d="M0 0h49a8 8 0 018 8v41a8 8 0 01-8 8H8a8 8 0 01-8-8V0z" fill="#383058" fill-opacity=".3"/><path d="M5.393 5.392h38.216a8 8 0 018 8v30.216a8 8 0 01-8 8H13.393a8 8 0 01-8-8V5.392z" fill="#533780"/><g clip-path="url(#prefix__clip0)"><path d="M43.805 39.002l-2.708-7.582a3.746 3.746 0 00-2.705-2.39v-8.138c0-5.454-4.438-9.892-9.892-9.892-5.455 0-9.893 4.438-9.893 9.892v8.138a3.746 3.746 0 00-2.704 2.39l-2.709 7.582A3.739 3.739 0 0016.711 44h23.577a3.739 3.739 0 003.517-4.998zm-23.264-7.145v-.983h15.918v11.192H20.54V31.857zm3.867-7.009v-3.777c0-1.911 1.317-3.52 3.09-3.968.055.87.308 2.045 1.144 3.044.892 1.064 2.217 1.684 3.95 1.847v2.854A4.096 4.096 0 0128.5 28.94a4.096 4.096 0 01-4.092-4.092zM28.5 12.934c4.388 0 7.959 3.57 7.959 7.958v8.048h-3.54a6.002 6.002 0 001.606-4.092v-3.777a.967.967 0 00-.967-.967c-1.605 0-2.756-.4-3.424-1.188-.94-1.11-.684-2.723-.682-2.734a.967.967 0 00-.952-1.136 6.032 6.032 0 00-6.025 6.025v3.777c0 1.579.61 3.017 1.606 4.092h-3.54v-8.048c0-4.388 3.57-7.958 7.959-7.958zM15.24 41.302a1.787 1.787 0 01-.225-1.65l2.709-7.581c.158-.444.48-.798.883-1.002V42.067h-1.896a1.78 1.78 0 01-1.471-.765zm26.52 0a1.78 1.78 0 01-1.472.764h-1.896V31.07c.403.204.726.558.884 1.002l2.708 7.582c.201.561.12 1.162-.224 1.65z" fill="#FBFAFF"/></g><defs><clipPath id="prefix__clip0"><path fill="#fff" transform="translate(12 11)" d="M0 0h33v33H0z"/></clipPath></defs></svg>