<svg width="57" height="57" fill="none" xmlns="http://www.w3.org/2000/svg"><path d="M0 0h49a8 8 0 018 8v41a8 8 0 01-8 8H8a8 8 0 01-8-8V0z" fill="#383058" fill-opacity=".3"/><path d="M5.393 5.392h38.216a8 8 0 018 8v30.216a8 8 0 01-8 8H13.393a8 8 0 01-8-8V5.392z" fill="#533780"/><path d="M41.71 19.866h-7.194v-2.444a2.525 2.525 0 00-2.521-2.522h-6.99a2.525 2.525 0 00-2.521 2.522v2.444h-7.195A3.293 3.293 0 0012 23.155v15.68a3.293 3.293 0 003.29 3.289h26.42a3.293 3.293 0 003.29-3.29v-15.68a3.293 3.293 0 00-3.29-3.288zm-17.268-2.444c0-.31.253-.563.563-.563h6.99c.31 0 .562.253.562.563v2.444h-8.115v-2.444zM13.96 23.155c0-.733.597-1.33 1.33-1.33h26.422c.733 0 1.33.597 1.33 1.33v2.91H13.959v-2.91zm11.046 4.868h6.99v.834c0 .892-.726 1.617-1.618 1.617h-3.755a1.619 1.619 0 01-1.617-1.617v-.834zm18.036 10.812c0 .733-.597 1.33-1.33 1.33H15.289c-.733 0-1.33-.597-1.33-1.33V28.023h9.087v.834a3.58 3.58 0 003.576 3.576h3.755a3.58 3.58 0 003.577-3.576v-.834h9.087v10.812z" fill="#FBFAFF"/></svg>