<svg width="57" height="57" fill="none" xmlns="http://www.w3.org/2000/svg"><path d="M0 0h49a8 8 0 018 8v41a8 8 0 01-8 8H8a8 8 0 01-8-8V0z" fill="#383058" fill-opacity=".3"/><path d="M5.393 5.392h38.216a8 8 0 018 8v30.216a8 8 0 01-8 8H13.393a8 8 0 01-8-8V5.392z" fill="#533780"/><g clip-path="url(#prefix__clip0)"><path d="M19.386 44.333a1.755 1.755 0 01-1.71-2.145l2.124-9.352-7.2-6.314a1.754 1.754 0 01.994-3.07l9.527-.864 3.766-8.814a1.754 1.754 0 013.226-.002l3.766 8.816 9.525.865a1.752 1.752 0 011.51 1.206 1.752 1.752 0 01-.513 1.863l-7.2 6.313 2.123 9.351a1.753 1.753 0 01-2.61 1.895L28.5 39.172l-8.215 4.912a1.757 1.757 0 01-.899.249zm9.114-7.276c.312 0 .621.084.9.25l7.752 4.636-2.004-8.827a1.754 1.754 0 01.556-1.709l6.798-5.962-8.994-.817a1.752 1.752 0 01-1.458-1.063l-3.55-8.317-3.555 8.319c-.25.592-.807 1-1.453 1.059l-8.995.816 6.798 5.962c.486.427.7 1.081.555 1.711l-2.002 8.826 7.753-4.635c.277-.165.587-.249.899-.249zm-5.452-14.299s0 .002-.002.003l.002-.003zm10.901-.004l.002.003c0-.002 0-.002-.002-.003z" fill="#FBFAFF"/></g><defs><clipPath id="prefix__clip0"><path fill="#fff" transform="translate(12 12)" d="M0 0h33v33H0z"/></clipPath></defs></svg>