<svg width="20" height="20" fill="none" xmlns="http://www.w3.org/2000/svg"><g clip-path="url(#prefix__prefix__clip0)" fill="#533780"><path d="M11.758 10.2c0 .932-.787 1.688-1.758 1.688-.97 0-1.758-.756-1.758-1.688 0-.932.787-1.687 1.758-1.687.97 0 1.758.755 1.758 1.687z"/><path d="M12.969 5.1H7.03c-1.292 0-2.343 1.01-2.343 2.25v5.7c0 1.24 1.05 2.25 2.343 2.25h5.938c1.292 0 2.344-1.01 2.344-2.25v-5.7c0-1.24-1.052-2.25-2.344-2.25zM10 13.013c-1.615 0-2.93-1.262-2.93-2.813 0-1.55 1.315-2.812 2.93-2.812 1.615 0 2.93 1.261 2.93 2.812 0 1.55-1.315 2.813-2.93 2.813zm3.36-5.475a.575.575 0 01-.587-.563c0-.31.263-.562.586-.562.324 0 .586.251.586.562 0 .31-.262.563-.586.563z"/><path d="M14.727.6H5.273C2.366.6 0 2.871 0 5.663v9.075C0 17.529 2.366 19.8 5.273 19.8h9.454c2.907 0 5.273-2.27 5.273-5.062V5.663C20 2.87 17.634.6 14.727.6zm1.757 12.45c0 1.861-1.577 3.375-3.515 3.375H7.03c-1.938 0-3.515-1.514-3.515-3.375v-5.7c0-1.86 1.577-3.375 3.515-3.375h5.938c1.938 0 3.515 1.514 3.515 3.375v5.7z"/></g><defs><clipPath id="prefix__prefix__clip0"><path fill="#fff" transform="translate(0 .6)" d="M0 0h20v19.2H0z"/></clipPath></defs></svg>