<svg width="70" height="70" fill="none" xmlns="http://www.w3.org/2000/svg"><path d="M0 0h58c6.627 0 12 5.373 12 12v46c0 6.627-5.373 12-12 12H12C5.373 70 0 64.627 0 58V0z" fill="#383058" fill-opacity=".3"/><path d="M7 6.5h48.757a8 8 0 018 8v40.757a8 8 0 01-8 8H15a8 8 0 01-8-8V6.5z" fill="#383058"/><g clip-path="url(#prefix__clip0)" fill="#fff"><path d="M40.097 42.029l1.601-2.597 2.888-.985.32-3.034 2.173-2.14-1.033-2.87 1.033-2.872-2.173-2.14-.32-3.033-2.888-.985-1.6-2.597-3.028.365-2.571-1.64-2.572 1.64-3.027-.365-1.6 2.597-2.889.985-.32 3.034-2.173 2.139 1.033 2.871-1.033 2.872 2.173 2.14.32 3.033 2.888.985 1.6 2.597 3.028-.366 2.572 1.642 2.571-1.642 3.027.366zM25.651 30.402c0-4.878 3.97-8.847 8.848-8.847s8.847 3.969 8.847 8.847c0 4.879-3.969 8.848-8.847 8.848-4.879 0-8.848-3.969-8.848-8.848z"/><path d="M34.5 23.607a6.803 6.803 0 00-6.795 6.795 6.803 6.803 0 006.796 6.796 6.803 6.803 0 006.795-6.796 6.803 6.803 0 00-6.795-6.795zM31.442 43.789l-3.6.434-1.903-3.087-.647-.22-2.79 8.72 5.023-.277 3.93 3.141 2.312-7.228-2.325-1.483zM43.06 41.136l-1.902 3.087-3.601-.434-2.325 1.483 2.313 7.228 3.93-3.14 5.022.276-2.79-8.72-.647.22z"/></g><defs><clipPath id="prefix__clip0"><path fill="#fff" transform="translate(17 17.5)" d="M0 0h35v35H0z"/></clipPath></defs></svg>