<svg width="15" height="15" fill="none" xmlns="http://www.w3.org/2000/svg"><g clip-path="url(#prefix__clip0)" fill="#533780"><path d="M6.211 8.789C4.78 7.357 4.456 5.925 4.383 5.352a.514.514 0 01.148-.43L5.69 3.762c.17-.17.2-.436.072-.64L3.918.26a.517.517 0 00-.67-.189L.286 1.465a.514.514 0 00-.284.514C.157 3.453.8 7.077 4.36 10.639c3.561 3.56 7.184 4.203 8.66 4.358a.514.514 0 00.513-.284l1.395-2.962a.517.517 0 00-.188-.669l-2.864-1.844a.517.517 0 00-.64.072l-1.158 1.159a.514.514 0 01-.43.148c-.574-.073-2.006-.397-3.438-1.828z"/><path d="M11.896 8.017a.517.517 0 01-.517-.517 3.884 3.884 0 00-3.88-3.88.517.517 0 110-1.034A4.92 4.92 0 0112.415 7.5a.517.517 0 01-.518.517z"/><path d="M14.482 8.017a.517.517 0 01-.517-.517A6.473 6.473 0 007.5 1.034.517.517 0 017.5 0 7.508 7.508 0 0115 7.5a.517.517 0 01-.518.517z"/></g><defs><clipPath id="prefix__clip0"><path fill="#fff" d="M0 0h15v15H0z"/></clipPath></defs></svg>