<svg width="16" height="16" fill="none" xmlns="http://www.w3.org/2000/svg"><path d="M.5 6A5.5 5.5 0 016 .5h9a.5.5 0 01.5.5v9a5.5 5.5 0 01-5.5 5.5H1a.5.5 0 01-.5-.5V6z" fill="#533780" stroke="#533780"/><g filter="url(#prefix__prefix__prefix__filter0_i)"><path d="M4 7a3 3 0 013-3h4.8c.11 0 .2.09.2.2V9a3 3 0 01-3 3H4.2a.2.2 0 01-.2-.2V7z" fill="#533780"/></g><defs><filter id="prefix__prefix__prefix__filter0_i" x="4" y="4" width="8" height="12" filterUnits="userSpaceOnUse" color-interpolation-filters="sRGB"><feFlood flood-opacity="0" result="BackgroundImageFix"/><feBlend in="SourceGraphic" in2="BackgroundImageFix" result="shape"/><feColorMatrix in="SourceAlpha" values="0 0 0 0 0 0 0 0 0 0 0 0 0 0 0 0 0 0 127 0" result="hardAlpha"/><feOffset dy="4"/><feGaussianBlur stdDeviation="4"/><feComposite in2="hardAlpha" operator="arithmetic" k2="-1" k3="1"/><feColorMatrix values="0 0 0 0 0.204841 0 0 0 0 0.0963715 0 0 0 0 0.379167 0 0 0 0.85 0"/><feBlend in2="shape" result="effect1_innerShadow"/></filter></defs></svg>