<?xml version="1.0" encoding="utf-8"?><svg xmlns="http://www.w3.org/2000/svg" xmlns:xlink="http://www.w3.org/1999/xlink"><symbol fill="none" viewBox="0 0 10 6" id="arrow-down" xmlns="http://www.w3.org/2000/svg"><path d="M4.307 5.506a1 1 0 001.385 0L9.395 1.95A.816.816 0 108.265.774l-2.573 2.47a1 1 0 01-1.385 0L1.735.775A.816.816 0 10.605 1.95l3.702 3.555z" fill="#533780"/></symbol><symbol viewBox="0 0 491.996 491.996" id="arrow-down-sorted" xmlns="http://www.w3.org/2000/svg"><path d="M484.132 124.986l-16.116-16.228c-5.072-5.068-11.82-7.86-19.032-7.86-7.208 0-13.964 2.792-19.036 7.86l-183.84 183.848L62.056 108.554c-5.064-5.068-11.82-7.856-19.028-7.856s-13.968 2.788-19.036 7.856l-16.12 16.128c-10.496 10.488-10.496 27.572 0 38.06l219.136 219.924c5.064 5.064 11.812 8.632 19.084 8.632h.084c7.212 0 13.96-3.572 19.024-8.632l218.932-219.328c5.072-5.064 7.856-12.016 7.864-19.224 0-7.212-2.792-14.068-7.864-19.128z"/></symbol><symbol viewBox="0 0 447.243 447.243" id="arrow-right" xmlns="http://www.w3.org/2000/svg"><path d="M437.883 201.174l-.025-.025-160-160c-12.552-12.441-32.813-12.351-45.254.201a32.1 32.1 0 00-2.746 3.159c-8.971 13.381-7.013 31.276 4.64 42.4l88.32 88.64a64.002 64.002 0 0016 11.68l9.76 5.12h-314.4c-16.099-.677-30.349 10.332-33.76 26.08-2.829 17.445 9.019 33.881 26.465 36.71 1.83.297 3.682.434 5.535.41h315.52l-6.88 3.2a64.004 64.004 0 00-18.08 12.64l-88.48 88.48c-11.653 11.124-13.611 29.019-4.64 42.4 10.441 14.259 30.464 17.355 44.724 6.914a32.018 32.018 0 003.276-2.754l160-160c12.503-12.49 12.514-32.751.025-45.255z"/></symbol><symbol fill="none" viewBox="0 0 26 9" id="btn-arrow" xmlns="http://www.w3.org/2000/svg"><path d="M25.854 4.853a.5.5 0 000-.707L22.672.964a.5.5 0 10-.707.707L24.793 4.5l-2.828 2.828a.5.5 0 10.707.707l3.182-3.182zM.5 5h25V4H.5v1z" fill="#fff"/></symbol><symbol fill="none" viewBox="0 0 16 16" id="cart" xmlns="http://www.w3.org/2000/svg"><path d="M4.8 12.8c-.88 0-1.6.72-1.6 1.6 0 .88.72 1.6 1.6 1.6.88 0 1.6-.72 1.6-1.6 0-.88-.72-1.6-1.6-1.6zM.5 0a.5.5 0 00-.5.5v.6a.5.5 0 00.5.5h.784a.5.5 0 01.451.286L4.48 7.68 3.36 9.6c-.08.24-.16.56-.16.8 0 .88.72 1.6 1.6 1.6h9.1a.5.5 0 00.5-.5v-.6a.5.5 0 00-.5-.5H5.12c-.08 0-.16-.08-.16-.16v-.08l.72-1.36h5.92c.64 0 1.12-.32 1.36-.8l2.88-5.2c.16-.16.16-.24.16-.4 0-.48-.32-.8-.8-.8H3.683a.5.5 0 01-.456-.295L2.773.295A.5.5 0 002.317 0H.5zm12.3 12.8c-.88 0-1.6.72-1.6 1.6 0 .88.72 1.6 1.6 1.6.88 0 1.6-.72 1.6-1.6 0-.88-.72-1.6-1.6-1.6z" fill="#533780"/></symbol><symbol fill="none" viewBox="0 0 20 20" id="facebook" xmlns="http://www.w3.org/2000/svg"><path d="M17.07.6H2.93C1.314.6 0 1.862 0 3.413v13.575c0 1.55 1.314 2.812 2.93 2.812h5.898v-6.787H6.484V9.638h2.344V7.35c0-1.861 1.577-3.375 3.516-3.375h3.554V7.35h-3.554v2.288h3.554l-.585 3.375h-2.97V19.8h4.727c1.616 0 2.93-1.262 2.93-2.812V3.413C20 1.862 18.686.6 17.07.6z" fill="#533780"/></symbol><symbol fill="none" viewBox="0 0 18 18" id="favorite" xmlns="http://www.w3.org/2000/svg"><path d="M13.219 1.055c-.977 0-1.872.31-2.662.92C9.8 2.56 9.297 3.305 9 3.847c-.297-.542-.8-1.287-1.557-1.872a4.262 4.262 0 00-2.662-.92C2.056 1.055 0 3.285 0 6.24c0 3.194 2.564 5.38 6.447 8.688a219.88 219.88 0 012.183 1.877.561.561 0 00.74 0c.777-.679 1.524-1.316 2.184-1.878C15.436 11.62 18 9.435 18 6.241c0-2.957-2.056-5.186-4.781-5.186z" fill="#533780"/></symbol><symbol viewBox="0 0 512.001 512" id="heart" xmlns="http://www.w3.org/2000/svg"><path xmlns="http://www.w3.org/2000/svg" d="M256 455.516a30.022 30.022 0 01-19.793-7.438c-20.684-18.086-40.625-35.082-58.219-50.074l-.09-.078c-51.582-43.957-96.125-81.918-127.117-119.313C16.137 236.81 0 197.172 0 153.871c0-42.07 14.426-80.883 40.617-109.293C67.121 15.832 103.488 0 143.031 0c29.555 0 56.621 9.344 80.446 27.77C235.5 37.07 246.398 48.453 256 61.73c9.605-13.277 20.5-24.66 32.527-33.96C312.352 9.344 339.418 0 368.973 0c39.539 0 75.91 15.832 102.414 44.578C497.578 72.988 512 111.801 512 153.871c0 43.3-16.133 82.938-50.777 124.738-30.993 37.399-75.532 75.356-127.106 119.309-17.625 15.016-37.597 32.039-58.328 50.168a30.046 30.046 0 01-19.789 7.43zM143.031 29.992c-31.066 0-59.605 12.399-80.367 34.914-21.07 22.856-32.676 54.45-32.676 88.965 0 36.418 13.535 68.988 43.883 105.606 29.332 35.394 72.961 72.574 123.477 115.625l.093.078c17.66 15.05 37.68 32.113 58.516 50.332 20.961-18.254 41.012-35.344 58.707-50.418 50.512-43.051 94.137-80.223 123.469-115.617 30.344-36.618 43.879-69.188 43.879-105.606 0-34.516-11.606-66.11-32.676-88.965-20.758-22.515-49.3-34.914-80.363-34.914-22.758 0-43.653 7.235-62.102 21.5-16.441 12.719-27.894 28.797-34.61 40.047-3.452 5.785-9.53 9.238-16.261 9.238s-12.809-3.453-16.262-9.238c-6.71-11.25-18.164-27.328-34.61-40.047-18.448-14.265-39.343-21.5-62.097-21.5zm0 0" data-original="#000000"/></symbol><symbol fill="none" viewBox="0 0 57 57" id="icon1" xmlns="http://www.w3.org/2000/svg"><path d="M0 0h49a8 8 0 018 8v41a8 8 0 01-8 8H8a8 8 0 01-8-8V0z" fill="#383058" fill-opacity=".3"/><path d="M5.393 5.392h38.216a8 8 0 018 8v30.216a8 8 0 01-8 8H13.393a8 8 0 01-8-8V5.392z" fill="#533780"/><g clip-path="url(#iprefix__clip0)"><path d="M43.805 39.002l-2.708-7.582a3.746 3.746 0 00-2.705-2.39v-8.138c0-5.454-4.438-9.892-9.892-9.892-5.455 0-9.893 4.438-9.893 9.892v8.138a3.746 3.746 0 00-2.704 2.39l-2.709 7.582A3.739 3.739 0 0016.711 44h23.577a3.739 3.739 0 003.517-4.998zm-23.264-7.145v-.983h15.918v11.192H20.54V31.857zm3.867-7.009v-3.777a4.1 4.1 0 013.09-3.968c.055.87.308 2.045 1.144 3.044.892 1.064 2.217 1.684 3.95 1.847v2.854A4.096 4.096 0 0128.5 28.94a4.096 4.096 0 01-4.092-4.092zM28.5 12.934c4.388 0 7.959 3.57 7.959 7.958v8.048h-3.54a6.002 6.002 0 001.606-4.092v-3.777a.967.967 0 00-.967-.967c-1.605 0-2.756-.4-3.424-1.188-.94-1.11-.684-2.723-.682-2.734a.967.967 0 00-.952-1.136 6.032 6.032 0 00-6.025 6.025v3.777c0 1.579.61 3.017 1.606 4.092h-3.54v-8.048c0-4.388 3.57-7.958 7.959-7.958zM15.24 41.302a1.787 1.787 0 01-.225-1.65l2.709-7.581a1.8 1.8 0 01.883-1.002v10.998h-1.896a1.78 1.78 0 01-1.471-.765zm26.52 0a1.78 1.78 0 01-1.472.764h-1.896V31.07c.403.204.726.558.884 1.002l2.708 7.582c.201.561.12 1.162-.224 1.65z" fill="#FBFAFF"/></g><defs><clipPath id="iprefix__clip0"><path fill="#fff" transform="translate(12 11)" d="M0 0h33v33H0z"/></clipPath></defs></symbol><symbol fill="none" viewBox="0 0 57 57" id="icon2" xmlns="http://www.w3.org/2000/svg"><path d="M0 0h49a8 8 0 018 8v41a8 8 0 01-8 8H8a8 8 0 01-8-8V0z" fill="#383058" fill-opacity=".3"/><path d="M5.393 5.392h38.216a8 8 0 018 8v30.216a8 8 0 01-8 8H13.393a8 8 0 01-8-8V5.392z" fill="#533780"/><path d="M42.929 34.586v-8.828l.366-.11C44.705 25.225 45 24.51 45 23.983c0-.526-.296-1.241-1.705-1.664L31.24 18.702c-.742-.222-1.716-.345-2.74-.345-1.024 0-1.997.123-2.74.345L13.705 22.32c-1.41.423-1.705 1.138-1.705 1.665 0 .526.296 1.241 1.705 1.664l4.508 1.353v4.75c0 .904.589 2.179 3.391 3.113 1.856.619 4.305.96 6.896.96 2.59 0 5.04-.341 6.896-.96 2.802-.934 3.39-2.209 3.39-3.114V27l2.21-.662v8.248a3.043 3.043 0 00-2.072 2.88v4.142a3.041 3.041 0 003.038 3.038A3.041 3.041 0 0045 41.608v-4.142a3.043 3.043 0 00-2.071-2.88zM26.316 20.554c.559-.167 1.355-.263 2.184-.263.83 0 1.625.096 2.184.263l11.431 3.43-4.578 1.373-.008.002-6.845 2.054c-.559.168-1.355.264-2.184.264-.829 0-1.625-.096-2.184-.264l-6.845-2.054-.008-.002-4.578-1.373 11.43-3.43zM36.853 31.75c0 .125-.35.707-2.069 1.28-1.664.554-3.896.86-6.284.86s-4.62-.306-6.284-.86c-1.718-.573-2.07-1.155-2.07-1.28v-4.17l5.614 1.685c.743.223 1.716.345 2.74.345 1.024 0 1.997-.122 2.74-.345l5.613-1.684v4.17zm6.213 9.858c0 .609-.495 1.104-1.104 1.104a1.106 1.106 0 01-1.104-1.104v-4.143a1.105 1.105 0 012.208 0v4.143z" fill="#FBFAFF"/></symbol><symbol fill="none" viewBox="0 0 57 57" id="icon3" xmlns="http://www.w3.org/2000/svg"><path d="M0 0h49a8 8 0 018 8v41a8 8 0 01-8 8H8a8 8 0 01-8-8V0z" fill="#383058" fill-opacity=".3"/><path d="M5.393 5.392h38.216a8 8 0 018 8v30.216a8 8 0 01-8 8H13.393a8 8 0 01-8-8V5.392z" fill="#533780"/><g clip-path="url(#kprefix__clip0)"><path d="M19.386 44.333a1.755 1.755 0 01-1.71-2.145l2.124-9.352-7.2-6.314a1.754 1.754 0 01.994-3.07l9.527-.864 3.766-8.814a1.754 1.754 0 013.226-.002l3.766 8.816 9.525.865a1.752 1.752 0 011.51 1.206 1.752 1.752 0 01-.513 1.863l-7.2 6.313 2.123 9.351a1.753 1.753 0 01-2.61 1.895L28.5 39.172l-8.215 4.912a1.757 1.757 0 01-.899.249zm9.114-7.276c.312 0 .621.084.9.25l7.752 4.636-2.004-8.827a1.754 1.754 0 01.556-1.709l6.798-5.962-8.994-.817a1.752 1.752 0 01-1.458-1.063l-3.55-8.317-3.555 8.319c-.25.592-.807 1-1.453 1.059l-8.995.816 6.798 5.962c.486.427.7 1.081.555 1.711l-2.002 8.826 7.753-4.635c.277-.165.587-.249.899-.249zm-5.452-14.299s0 .002-.002.003l.002-.003zm10.901-.004l.002.003c0-.002 0-.002-.002-.003z" fill="#FBFAFF"/></g><defs><clipPath id="kprefix__clip0"><path fill="#fff" transform="translate(12 12)" d="M0 0h33v33H0z"/></clipPath></defs></symbol><symbol fill="none" viewBox="0 0 57 57" id="icon4" xmlns="http://www.w3.org/2000/svg"><path d="M0 0h49a8 8 0 018 8v41a8 8 0 01-8 8H8a8 8 0 01-8-8V0z" fill="#383058" fill-opacity=".3"/><path d="M5.393 5.392h38.216a8 8 0 018 8v30.216a8 8 0 01-8 8H13.393a8 8 0 01-8-8V5.392z" fill="#533780"/><path d="M41.71 19.866h-7.194v-2.444a2.525 2.525 0 00-2.521-2.522h-6.99a2.525 2.525 0 00-2.521 2.522v2.444h-7.195A3.293 3.293 0 0012 23.155v15.68a3.293 3.293 0 003.29 3.289h26.42a3.293 3.293 0 003.29-3.29v-15.68a3.293 3.293 0 00-3.29-3.288zm-17.268-2.444c0-.31.253-.563.563-.563h6.99c.31 0 .562.253.562.563v2.444h-8.115v-2.444zM13.96 23.155c0-.733.597-1.33 1.33-1.33h26.422c.733 0 1.33.597 1.33 1.33v2.91H13.959v-2.91zm11.046 4.868h6.99v.834a1.62 1.62 0 01-1.618 1.617h-3.755a1.619 1.619 0 01-1.617-1.617v-.834zm18.036 10.812c0 .733-.597 1.33-1.33 1.33H15.289c-.733 0-1.33-.597-1.33-1.33V28.023h9.087v.834a3.58 3.58 0 003.576 3.576h3.755a3.58 3.58 0 003.577-3.576v-.834h9.087v10.812z" fill="#FBFAFF"/></symbol><symbol fill="none" viewBox="0 0 57 57" id="icon5" xmlns="http://www.w3.org/2000/svg"><path d="M0 0h49a8 8 0 018 8v41a8 8 0 01-8 8H8a8 8 0 01-8-8V0z" fill="#533780" fill-opacity=".3"/><path d="M5.393 5.392h38.216a8 8 0 018 8v30.216a8 8 0 01-8 8H13.393a8 8 0 01-8-8V5.392z" fill="#533780"/><g clip-path="url(#mprefix__clip0)"><path d="M41.005 42.214c-.45-1.666-.561-4.34-2.069-5.473V21.242C38.936 15.595 34.341 11 28.694 11c-5.761 0-10.629 4.69-10.629 10.242V36.65c-1.346 1.03-1.617 4.062-2.062 5.534-.107.441-.007.899.273 1.255.28.357.702.561 1.156.561H39.57c.447 0 .865-.2 1.146-.55.28-.348.386-.8.29-1.236zM20.27 37.578l3.367-.914a4.12 4.12 0 002.799-2.59l.52-1.456a6.852 6.852 0 003.333-.064l.494 1.506a4.126 4.126 0 002.68 2.647l3.467 1.088c.44.138.816.41 1.086.766H18.97a2.186 2.186 0 011.3-.983zm8.224-6.715c-2.912 0-5.28-2.55-5.28-5.683v-4.306c4.838 1.525 8.775 1.756 10.56 1.768v2.538c0 3.134-2.368 5.683-5.28 5.683zm-5.89-15.48c1.649-1.558 3.868-2.452 6.09-2.452 4.583 0 8.311 3.728 8.311 8.311v14.553l-2.964-.93a2.191 2.191 0 01-1.424-1.406l-.547-1.67c2.17-1.313 3.635-3.784 3.635-6.609v-3.522a.966.966 0 00-1.027-.963c-.052.003-5.37.306-12.109-2.071a.965.965 0 00-1.286.91v5.646c0 2.926 1.571 5.47 3.87 6.745l-.535 1.5A2.188 2.188 0 0123.13 34.8l-3.135.851v-14.41c0-2.187.926-4.268 2.608-5.858zM18.017 42.07l.381-1.577H38.65l.348 1.578h-20.98z" fill="#D3D0D7"/></g><defs><clipPath id="mprefix__clip0"><path fill="#fff" transform="translate(12 11)" d="M0 0h33v33H0z"/></clipPath></defs></symbol><symbol fill="none" viewBox="0 0 57 57" id="icon6" xmlns="http://www.w3.org/2000/svg"><path d="M0 0h49a8 8 0 018 8v41a8 8 0 01-8 8H8a8 8 0 01-8-8V0z" fill="#533780" fill-opacity=".4"/><path d="M5 5h38.216a8 8 0 018 8v30.216a8 8 0 01-8 8H13a8 8 0 01-8-8V5z" fill="#533780"/><g clip-path="url(#nprefix__clip0)"><path d="M21.701 35.475c-2.57.786-5.77 1.764-5.77 8.558 0 .534.434.967.967.967h23.204a.967.967 0 00.966-.967c0-6.794-3.199-7.772-5.77-8.558-1.75-.535-3.064-.938-3.631-2.93a6.777 6.777 0 003.59-5.59l.294.295a.967.967 0 101.367-1.367l-1.65-1.65v-5.465A6.775 6.775 0 0028.5 12h-1.934c-4.797 0-8.7 3.903-8.7 8.701v3.932c0 1.247-1.193 2.722-1.651 3.183a.967.967 0 00-.18 1.116c0 .003.002.007.005.013l.005.01c.182.344 2.2 3.867 9.012 4.329-.662 1.367-1.846 1.73-3.356 2.19zm-3.813 7.591c.064-1.266.259-2.219.556-2.95a48.368 48.368 0 0020.112 0c.297.731.492 1.684.556 2.95H17.888zm16.845-5.742c.947.29 1.817.556 2.529 1.079a46.8 46.8 0 01-17.524 0c.712-.523 1.582-.79 2.529-1.079 1.8-.55 3.998-1.223 4.888-4.124a6.771 6.771 0 002.69 0c.89 2.901 3.087 3.573 4.888 4.124zm-1.399-10.758A4.84 4.84 0 0128.5 31.4a4.84 4.84 0 01-4.834-4.834c0-1.15 1.416-2.788 2.665-4.234 1.256-1.453 2.546-2.946 2.982-4.46 2.28.392 4.021 2.407 4.021 4.827v3.867zm-15.201 1.998c.663-.818 1.666-2.32 1.666-3.931V20.7a6.775 6.775 0 016.767-6.767H28.5a4.842 4.842 0 014.745 3.911 6.678 6.678 0 00-4.745-1.978.967.967 0 00-.967.967c0 1.15-1.416 2.789-2.665 4.234-1.541 1.784-3.136 3.628-3.136 5.498 0 1.773.686 3.388 1.805 4.596-1.917-.324-3.216-.922-4.044-1.452a6.294 6.294 0 01-1.36-1.146z" fill="#fff"/></g><defs><clipPath id="nprefix__clip0"><path fill="#fff" transform="translate(12 12)" d="M0 0h33v33H0z"/></clipPath></defs></symbol><symbol fill="none" viewBox="0 0 57 57" id="icon7" xmlns="http://www.w3.org/2000/svg"><path d="M0 0h49a8 8 0 018 8v41a8 8 0 01-8 8H8a8 8 0 01-8-8V0z" fill="#533780" fill-opacity=".4"/><path d="M5.393 5.392h38.216a8 8 0 018 8v30.216a8 8 0 01-8 8H13.393a8 8 0 01-8-8V5.392z" fill="#533780"/><path d="M36.987 31.282c1.234 0 2.34-.593 3.073-1.52 2.167-.592 3.772-2.676 3.772-5.149v-5.48c0-5.587-4.3-10.133-9.585-10.133H23.585C18.3 9 14 13.546 14 19.133v5.48c0 2.468 1.598 4.547 3.758 5.144.08.102.163.2.253.295.747.793 1.742 1.23 2.8 1.23h.113a9.126 9.126 0 001.655 3.16h-1.767c-2.942 0-5.336 2.53-5.336 5.64V42h26.887v-1.917c0-3.11-2.394-5.642-5.336-5.642h-1.742a8.934 8.934 0 001.645-3.16h.057zm.284-1.954c.014-.21.021-.424.021-.637v-3.817c.466.063.897.285 1.234.642.401.426.621.992.62 1.594-.004 1.134-.822 2.073-1.875 2.218zm-17.965-.64a2.298 2.298 0 01-.62-1.594c.004-1.127.811-2.061 1.854-2.216v3.727c0 .245.01.488.028.728a2.066 2.066 0 01-1.262-.645zm11.949 8.509l-2.335 2.469-2.343-2.476a7.847 7.847 0 002.31.355h.03c.802 0 1.587-.119 2.338-.348zm-10.443-.822h2.408l3.492 3.691h-9.407c.009-2.037 1.579-3.691 3.507-3.691zm19.722 3.691h-9.407l3.492-3.691h2.408c1.928 0 3.499 1.654 3.507 3.691zm-5.07-11.375c0 1.853-.685 3.594-1.926 4.902-1.237 1.302-2.877 2.019-4.622 2.019h-.023c-3.598-.013-6.524-3.157-6.524-7.007v-.484c.538.33 1.163.52 1.829.52 2.017 0 3.658-1.735 3.658-3.867v-.017c0-.617.476-1.12 1.06-1.12.584 0 1.06.503 1.06 1.12v.017c0 2.132 1.641 3.867 3.658 3.867.666 0 1.29-.19 1.83-.52v.57zm-13.095-3.917c0-1.067.82-1.934 1.829-1.934 1.008 0 1.829.867 1.829 1.934 0 1.066-.82 1.933-1.83 1.933-1.008 0-1.828-.867-1.828-1.933zm11.265 1.933c-1.008 0-1.829-.867-1.829-1.933 0-1.067.82-1.934 1.83-1.934 1.008 0 1.828.867 1.828 1.934 0 1.066-.82 1.933-1.829 1.933zm1.83-5.28a3.485 3.485 0 00-1.83-.52c-1.17 0-2.214.585-2.884 1.492a2.783 2.783 0 00-1.834-.696c-.696 0-1.335.262-1.834.696-.67-.907-1.713-1.492-2.884-1.492-.666 0-1.29.19-1.83.52v-1.488c0-.532.411-.966.915-.966h3.807c.702 0 1.344-.281 1.83-.741.485.46 1.126.74 1.828.74h3.8c.505 0 .915.434.915.967v1.488zm-.915-4.388h-3.8c-.505 0-.915-.434-.915-.967h-1.83c0 .533-.41.967-.914.967h-3.807c-1.513 0-2.743 1.301-2.743 2.9v2.996c-2.05.164-3.675 1.963-3.683 4.152v.008a3.463 3.463 0 01-1.028-2.482v-5.48c0-4.521 3.48-8.2 7.756-8.2h10.662c4.276 0 7.756 3.679 7.756 8.2v5.48c0 .98-.397 1.864-1.029 2.482a4.275 4.275 0 00-1.153-2.944 3.833 3.833 0 00-2.529-1.218v-2.994c0-1.599-1.23-2.9-2.743-2.9z" fill="#fff"/><path d="M28.915 31.745c-1.003 0-1.82-.864-1.82-1.925h-1.83c0 2.128 1.638 3.858 3.65 3.858s3.65-1.73 3.65-3.858h-1.83c0 1.061-.816 1.925-1.82 1.925z" fill="#fff"/><path d="M16.146 45v-3.7c0-.166.127-.3.284-.3h24.973c.157 0 .284.134.284.3V45h-25.54z" stroke="#fff" stroke-width="1.5"/></symbol><symbol fill="none" viewBox="0 0 20 20" id="instagramm" xmlns="http://www.w3.org/2000/svg"><g clip-path="url(#pprefix__prefix__clip0)" fill="#533780"><path d="M11.758 10.2c0 .932-.787 1.688-1.758 1.688-.97 0-1.758-.756-1.758-1.688 0-.932.787-1.687 1.758-1.687.97 0 1.758.755 1.758 1.687z"/><path d="M12.969 5.1H7.03c-1.292 0-2.343 1.01-2.343 2.25v5.7c0 1.24 1.05 2.25 2.343 2.25h5.938c1.292 0 2.344-1.01 2.344-2.25v-5.7c0-1.24-1.052-2.25-2.344-2.25zM10 13.013c-1.615 0-2.93-1.262-2.93-2.813 0-1.55 1.315-2.812 2.93-2.812 1.615 0 2.93 1.261 2.93 2.812 0 1.55-1.315 2.813-2.93 2.813zm3.36-5.475a.575.575 0 01-.587-.563c0-.31.263-.562.586-.562.324 0 .586.251.586.562 0 .31-.262.563-.586.563z"/><path d="M14.727.6H5.273C2.366.6 0 2.871 0 5.663v9.075C0 17.529 2.366 19.8 5.273 19.8h9.454c2.907 0 5.273-2.27 5.273-5.062V5.663C20 2.87 17.634.6 14.727.6zm1.757 12.45c0 1.861-1.577 3.375-3.515 3.375H7.03c-1.938 0-3.515-1.514-3.515-3.375v-5.7c0-1.86 1.577-3.375 3.515-3.375h5.938c1.938 0 3.515 1.514 3.515 3.375v5.7z"/></g><defs><clipPath id="pprefix__prefix__clip0"><path fill="#fff" transform="translate(0 .6)" d="M0 0h20v19.2H0z"/></clipPath></defs></symbol><symbol fill="none" viewBox="0 0 70 70" id="medal1" xmlns="http://www.w3.org/2000/svg"><path d="M0 0h58c6.627 0 12 5.373 12 12v46c0 6.627-5.373 12-12 12H12C5.373 70 0 64.627 0 58V0z" fill="#383058" fill-opacity=".3"/><path d="M7 6.5h48.757a8 8 0 018 8v40.757a8 8 0 01-8 8H15a8 8 0 01-8-8V6.5z" fill="#383058"/><g clip-path="url(#qprefix__clip0)" fill="#fff"><path d="M40.097 42.029l1.601-2.597 2.888-.985.32-3.034 2.173-2.14-1.033-2.87 1.033-2.872-2.173-2.14-.32-3.033-2.888-.985-1.6-2.597-3.028.365-2.571-1.64-2.572 1.64-3.027-.365-1.6 2.597-2.889.985-.32 3.034-2.173 2.139 1.033 2.871-1.033 2.872 2.173 2.14.32 3.033 2.888.985 1.6 2.597 3.028-.366 2.572 1.642 2.571-1.642 3.027.366zM25.651 30.402c0-4.878 3.97-8.847 8.848-8.847s8.847 3.969 8.847 8.847c0 4.879-3.969 8.848-8.847 8.848-4.879 0-8.848-3.969-8.848-8.848z"/><path d="M34.5 23.607a6.803 6.803 0 00-6.795 6.795 6.803 6.803 0 006.796 6.796 6.803 6.803 0 006.795-6.796 6.803 6.803 0 00-6.795-6.795zm-3.058 20.182l-3.6.434-1.903-3.087-.647-.22-2.79 8.72 5.023-.277 3.93 3.141 2.312-7.228-2.325-1.483zm11.618-2.653l-1.902 3.087-3.601-.434-2.325 1.483 2.313 7.228 3.93-3.14 5.022.276-2.79-8.72-.647.22z"/></g><defs><clipPath id="qprefix__clip0"><path fill="#fff" transform="translate(17 17.5)" d="M0 0h35v35H0z"/></clipPath></defs></symbol><symbol fill="none" viewBox="0 0 15 15" id="phone-call" xmlns="http://www.w3.org/2000/svg"><g clip-path="url(#rprefix__clip0)" fill="#533780"><path d="M6.211 8.789C4.78 7.357 4.456 5.925 4.383 5.352a.514.514 0 01.148-.43l1.159-1.16c.17-.17.2-.436.072-.64L3.918.26a.517.517 0 00-.67-.189L.286 1.465a.514.514 0 00-.284.514C.157 3.453.8 7.077 4.36 10.639c3.561 3.56 7.184 4.203 8.66 4.358a.514.514 0 00.513-.284l1.395-2.962a.517.517 0 00-.188-.669l-2.864-1.844a.517.517 0 00-.64.072l-1.158 1.159a.514.514 0 01-.43.148c-.574-.073-2.006-.397-3.438-1.828z"/><path d="M11.896 8.017a.517.517 0 01-.517-.517 3.884 3.884 0 00-3.88-3.88.517.517 0 110-1.034A4.92 4.92 0 0112.415 7.5a.517.517 0 01-.518.517z"/><path d="M14.482 8.017a.517.517 0 01-.517-.517A6.473 6.473 0 007.5 1.034.517.517 0 017.5 0 7.508 7.508 0 0115 7.5a.517.517 0 01-.518.517z"/></g><defs><clipPath id="rprefix__clip0"><path fill="#fff" d="M0 0h15v15H0z"/></clipPath></defs></symbol><symbol fill="none" viewBox="0 0 29 34" id="play-btn" xmlns="http://www.w3.org/2000/svg"><path d="M28.867 17L.565 33.34V.66L28.867 17z" fill="#FBFAFF"/></symbol><symbol fill="none" viewBox="0 0 13 15" id="pointer" xmlns="http://www.w3.org/2000/svg"><path d="M6.5.52C3.318.52.73 3.005.73 6.06c0 2.888 4.79 7.859 5.335 8.416l.435.444.435-.444c.546-.557 5.336-5.529 5.336-8.416 0-3.055-2.589-5.54-5.77-5.54zm0 7.833c-1.316 0-2.388-1.029-2.388-2.293 0-1.264 1.072-2.292 2.388-2.292 1.317 0 2.388 1.028 2.388 2.292 0 1.264-1.07 2.293-2.388 2.293z" fill="#533780"/></symbol><symbol fill="none" viewBox="0 0 16 16" id="slider-bullet" xmlns="http://www.w3.org/2000/svg"><path d="M0 5a5 5 0 015-5h10a1 1 0 011 1v10a5 5 0 01-5 5H1a1 1 0 01-1-1V5z" fill="#533780" fill-opacity=".2"/></symbol><symbol fill="none" viewBox="0 0 16 16" id="slider-bullet-active" xmlns="http://www.w3.org/2000/svg"><path d="M.5 6A5.5 5.5 0 016 .5h9a.5.5 0 01.5.5v9a5.5 5.5 0 01-5.5 5.5H1a.5.5 0 01-.5-.5V6z" fill="#533780" stroke="#533780"/><g filter="url(#vprefix__prefix__prefix__filter0_i)"><path d="M4 7a3 3 0 013-3h4.8c.11 0 .2.09.2.2V9a3 3 0 01-3 3H4.2a.2.2 0 01-.2-.2V7z" fill="#533780"/></g><defs><filter id="vprefix__prefix__prefix__filter0_i" x="4" y="4" width="8" height="12" filterUnits="userSpaceOnUse" color-interpolation-filters="sRGB"><feFlood flood-opacity="0" result="BackgroundImageFix"/><feBlend in="SourceGraphic" in2="BackgroundImageFix" result="shape"/><feColorMatrix in="SourceAlpha" values="0 0 0 0 0 0 0 0 0 0 0 0 0 0 0 0 0 0 127 0" result="hardAlpha"/><feOffset dy="4"/><feGaussianBlur stdDeviation="4"/><feComposite in2="hardAlpha" operator="arithmetic" k2="-1" k3="1"/><feColorMatrix values="0 0 0 0 0.204841 0 0 0 0 0.0963715 0 0 0 0 0.379167 0 0 0 0.85 0"/><feBlend in2="shape" result="effect1_innerShadow"/></filter></defs></symbol><symbol viewBox="0 0 19.481 19.481" id="star" xmlns="http://www.w3.org/2000/svg"><path d="M10.201.758l2.478 5.865 6.344.545a.5.5 0 01.285.876l-4.812 4.169 1.442 6.202a.5.5 0 01-.745.541l-5.452-3.288-5.452 3.288a.5.5 0 01-.745-.541l1.442-6.202-4.813-4.17a.5.5 0 01.285-.876l6.344-.545L9.28.758a.5.5 0 01.921 0z" data-original="#000000" xmlns="http://www.w3.org/2000/svg"/></symbol><symbol fill="none" viewBox="0 0 18 18" id="user" xmlns="http://www.w3.org/2000/svg"><path d="M9 0a4.751 4.751 0 00-4.746 4.746A4.751 4.751 0 009 9.492a4.751 4.751 0 004.746-4.746A4.751 4.751 0 009 0zm5.905 12.593a6.766 6.766 0 00-4.85-2.046h-2.11a6.766 6.766 0 00-4.85 2.046 6.917 6.917 0 00-2.005 4.88c0 .29.236.527.527.527h14.766a.527.527 0 00.527-.527 6.917 6.917 0 00-2.005-4.88z" fill="#533780"/></symbol></svg>