<svg width="246" height="211" fill="none" xmlns="http://www.w3.org/2000/svg"><path d="M188.802 175.769l-.042-.074-.042-.076-.04-.076-.04-.077-.04-.077-.038-.079-.038-.08-.037-.08-.036-.081-.035-.082-.034-.082-.033-.084-.033-.084-.031-.085-.031-.085-.03-.086-.029-.088-.028-.087-.027-.089-.026-.089-.025-.09-.024-.09-.023-.091-.022-.092-.021-.092-.02-.093-.019-.094-.017-.094-.017-.095-.016-.096-.015-.096-.013-.096-.013-.097-.011-.098-.01-.098-.01-.098-.008-.099-.006-.1-.006-.1-.005-.1-.003-.101-.002-.102-.001-.101v-.102l.001-.103.003-.103.004-.103.005-.103.006-.104.008-.105.008-.104.01-.105.012-.105.012-.105.014-.106.015-.105.016-.106.018-.106.019-.107.02-.106.022-.107.022-.106.025-.107.025-.107.027-.107.028-.107.029-.107.031-.108.032-.107.034-.107.034-.107.037-.107.037-.107.039-.107.04-.107.042-.107.042-.107.045-.107.045-.106.047-.106.049-.106.049-.106.051-.106.053-.106.054-.105.055-.105.056-.104.058-.105.06-.104.06-.104.062-.103.064-.103.065-.103.066-.102.067-.102.069-.101.07-.101.072-.101.073-.1.074-.099.075-.099.077-.098.079-.098.079-.098.081-.096.083-.096.083-.096.085-.095.086-.094.088-.093.089-.093.09-.092.091-.092.093-.09.094-.09.096-.089.096-.089.098-.087.099-.087.101-.086.101-.085.103-.084.104-.083.106-.082.106-.082.108-.08.109-.08.11-.078.112-.078.112-.076.114-.076.115-.074.116-.073.117-.073.118-.071.12-.07.12-.069.122-.068.123-.067.123-.066.125-.064.126-.063.127-.062.128-.061.129-.06.13-.058.131-.057.132-.056.133-.054.134-.054.135-.051.136-.051.137-.049.138-.048.138-.046.14-.046.14-.043.141-.042.142-.041.143-.04.144-.038.144-.036.145-.035.146-.034.147-.032.148-.03.148-.029.149-.028.15-.026.15-.024.151-.023.151-.021.153-.02.152-.018.154-.016.154-.015.154-.013.156-.012.155-.009.156-.009.157-.006.157-.005.158-.003.158-.002h.158l.159.002.159.004.16.005.159.007.161.009.16.011.161.012.161.014.161.016.162.018.162.019.162.021.162.023.162.025.163.027.162.028.163.03.163.032.162.034.163.036.163.038.163.039.163.041.162.043.163.045.163.047.162.048.162.051.163.052.162.054.161.056.162.058.161.06.162.062.16.063.161.065.16.068.16.069.16.071.159.072.159.075.158.077.158.078.157.08.157.082.157.084.156.086.155.088.155.089.154.092.153.093.153.095.153.097.151.099.151.1.15.103.15.104.148.106.148.108.147.11.147.111.145.113.144.115.144.117.143.119.142.12.14.122.14.124.139.126.138.127.137.129.135.131.135.133.134.134.132.136.131.138.13.139.129.141.128.143.126.144.126.146.124.148.122.149.122.151.12.152.119.154.117.156.116.157.115.159.113.16.111.162.111.163.108.165.108.166.105.168.105.169.102.171.101.172.1.173.098.175.096.177.095.177.093.179.091.181.09.181.088.183.086.184.084.186.083.187.081.188.079.189.077.191.075.191.074.193.071.194.07.195.068.196.066.198.064.198.063.199.06.201.058.201.056.203.054.203.053.205.05.205.048.207.046.207.044.208.042.209.04.21.038.21.036.212.033.212.032.213.029.214.027.214.025.215.023.216.02.216.019.217.016.218.014.218.011.219.01.219.007.22.005.22.003.221v.221l-.002.222-.004.222-.007.222-.009.223-.011.223-.013.223-.016.224-.018.223-.021.224-.023.225-.025.224-.028.224-.03.225-.032.225-.035.225-.037.224-.039.225-.042.225-.044.225-.047.225-.049.224-.052.225-.054.224-.056.225-.059.224-.061.223-.064.224-.066.223-.068.223-.071.223-.073.223-.076.222-.078.221-.08.221-.083.221-.086.22-.087.22-.091.219-.092.219-.095.218-.098.217-.1.217-.102.216-.105.216-.107.215-.109.213-.112.214-.114.212-.117.212-.119.21-.121.21-.124.209-.126.208-.128.207-.131.207-.133.205-.135.204-.138.203-.14.202-.143.2-.144.2-.147.198-.15.198-.151.196-.154.195-.156.193-.158.192-.161.191-.163.19-.165.188-.167.187-.169.185-.172.184-.173.182-.176.181-.178.18-.18.178-.183.176-.184.175-.186.173-.189.171-.19.17-.193.168-.195.166-.196.165-.199.163-.201.161-.202.159-.205.157-.206.156-.209.153-.21.152-.212.15-.215.147-.215.146-.218.144-.22.142-.221.14-.223.137-.225.136-.227.133-.228.132-.23.129-.232.127-.234.125-.235.122-.236.121-.239.118-.239.116-.242.113-.243.112-.244.108-.246.107-.247.104-.249.102-.25.099-.252.097-.253.095-.254.092-.256.089-.257.087-.258.085-.26.082-.261.079-.262.077-.263.075-.264.071-.265.069-.267.067-.267.064-.269.061-.27.058-.27.056-.272.053-.272.051-.274.047-.274.045-.275.042-.276.04-.277.036-.278.034-.278.031-.279.028-.28.025-.281.023-.281.02-.281.016-.283.014-.282.011-.284.008-.284.006-.284.002-.285-.001-.285-.003-.285-.007-.286-.009-.286-.012-.287-.016-.286-.018-.287-.021-.287-.024-.288-.028-.287-.03-.287-.033-.288-.036-.288-.039-.287-.042-.288-.046-.287-.048-.288-.051-.287-.054-.287-.058-.287-.06-.287-.063-.286-.067-.286-.069-.286-.073-.286-.075-.285-.079-.285-.081-.284-.085-.284-.087-.283-.091-.283-.094-.282-.096-.282-.1-.281-.103-.28-.106-.28-.108-.279-.112-.278-.115-.277-.118-.277-.121-.276-.123-.274-.127-.274-.13-.273-.133-.272-.136-.271-.138-.27-.142-.269-.145-.268-.147-.266-.151-.266-.153-.264-.157-.263-.159-.261-.162-.261-.165-.259-.168-.257-.171-.256-.174-.255-.177-.254-.179-.252-.182-.25-.185-.249-.188-.247-.191-.245-.193-.244-.197-.243-.199-.24-.201-.239-.205-.237-.207-.235-.21-.234-.212-.231-.215-.23-.218-.228-.221-.226-.223-.224-.226-.221-.228-.22-.231-.218-.233-.216-.236-.213-.238-.211-.241-.21-.243-.207-.246-.204-.249-.203-.25-.2-.253-.198-.256-.196-.257-.193-.26-.191-.263-.188-.264-.186-.267-.183-.269-.181-.272-.179-.273-.176-.276-.173-.278-.171-.28-.168-.282-.165-.284-.163-.286-.16-.288-.157-.291-.155-.292-.151-.294-.149-.296-.146-.298-.144-.299-.14-.302-.138-.303-.134-.306-.132-.306-.129-.309-.126-.31-.123-.312-.119-.314-.117-.315-.114-.317-.111-.318-.107-.32-.105-.321-.101-.323-.098-.324-.095-.326-.092-.327-.088-.328-.086-.33-.082-.331-.079-.332-.075-.333-.073-.335-.069-.335-.065-.337-.063-.338-.059-.338-.056-.34-.052-.341-.049-.342-.045-.342-.042-.344-.039-.344-.035-.345-.032-.346-.028-.347-.025-.347-.021-.348-.018-.349-.015-.349-.01-.35-.008-.35-.003-.351v-.351l.003-.351.007-.352.01-.353.014-.352.018-.353.021-.353.025-.354.029-.353.032-.354.035-.353.04-.354.043-.353.046-.354.05-.354.054-.353.058-.353.061-.354.064-.353.069-.352.072-.353.076-.352.079-.351.083-.351.086-.351.091-.35.094-.35.097-.349.101-.349.105-.348.109-.347.112-.347.115-.346.12-.345.123-.344.126-.343.131-.343.133-.341.138-.341.141-.339.144-.338.148-.338.152-.336.156-.335.158-.334.163-.332.166-.331.169-.33.173-.329.177-.327.18-.326.183-.324.187-.323.191-.321.194-.319.197-.318.201-.317.204-.314.207-.313.211-.311.215-.309.217-.308.221-.305.225-.304.227-.301.231-.3.235-.298.237-.295.241-.294.244-.291.247-.289.25-.287.254-.285.256-.282.26-.28.263-.278.266-.276.269-.273.272-.27.275-.268.278-.266.281-.263.284-.26.287-.258.29-.255.293-.252.295-.25.299-.247.301-.244.304-.242.307-.238.309-.236.312-.233.315-.23.318-.227.32-.224.322-.22.326-.218.327-.215.331-.212.332-.208.336-.206.337-.202.34-.199.343-.195.344-.193.347-.189.35-.185.351-.183.354-.179.356-.175.358-.173.36-.168.362-.165.364-.162.367-.158.368-.155.37-.151.372-.147.374-.144.375-.14.378-.137.379-.132.381-.129.383-.126.384-.121.386-.118.387-.114.389-.11.391-.106.392-.102.393-.099.395-.095.396-.09.398-.087.398-.083.4-.079.401-.075.403-.07.403-.067.405-.063.405-.059.407-.055.407-.05.408-.047.41-.042.41-.038.41-.035.412-.03.412-.026.413-.021.414-.018.414-.013.415-.01.415-.005h.416l.416.003.416.008.417.012.417.016.417.02.418.025.417.029.418.033.418.037.418.042.417.046.418.05.418.055.417.059.418.063.417.067.416.072.417.076.416.08.416.085.415.089.415.093.414.098.413.102.413.106.413.11.411.115.411.119.41.123.409.128.408.132.407.136.407.14.405.145.404.149.403.153.402.157.401.161.399.166.398.17.397.174.396.179.393.182.393.187.391.191.389.195.388.199.386.203.385.208.383.211.381.215.379.22.377.224.375.227.374.232.371.236.37.239.367.244.365.248.363.251.361.255.359.26.356.263.354.267.352.271.349.275.347.278.344.282.342.286.339.29.337.293.334.297.331.301.329.305.325.307.323.312.321.315.317.319.314.322.311.326.309.329.305.332.302.336.3.339.296.343.292.346.29.349.286.352.283.356.28.359.276.361.273.366.27.368.266.371.263.374.259.377.255.381.252.383.248.386.245.388.241.392.237.395.233.397.23.4.226.402.221.406.218.407.215.411.21.413.206.415.202.418.198.42.195.423.19.425.186.427.181.43.178.431.173.434.17.436.165.438.16.441.157.442.152.444.148.446.143.448.139.45.135.451.13.454.126.455.121.456.117.459.113.46.107.461.104.463.098.464.094.466.09.467.085.469.08.469.076.471.071.472.066.473.061.474.057.476.052.476.048.477.042.478.038.479.033.479.028.481.024.481.018.482.014.482.009.483.004.483v.484l-.006.484-.01.484-.016.485-.02.485-.025.485-.03.486-.035.485-.04.486-.045.485-.049.486-.055.485-.059.485-.065.485-.069.485-.074.485-.08.484-.084.483-.089.484-.094.482-.099.483-.103.481-.109.481-.114.48-.118.48-.124.478-.128.478-.134.477-.138.476-.143.475-.148.474-.153.472-.158.472-.162.47-.168.469-.172.468-.177.466-.182.465-.187.464-.192.462-.196.46-.201.459-.206.457-.211.456-.215.453-.22.452-.225.45-.23.448-.234.446-.239.444-.244.442-.248.44-.253.438-.257.435-.262.434-.267.431-.271.428-.275.426-.28.424-.285.421-.289.419-.294.416-.297.413-.303.411-.306.408-.311.405-.316.403-.319.399-.324.397-.328.394-.332.39-.337.388-.34.384-.345.382-.349.378-.353.375-.357.371-.361.369-.365.365-.369.361-.372.358-.377.355-.381.351-.384.347-.388.344-.392.341-.396.336-.399.333-.403.329-.406.325-.411.321-.413.318-.417.313-.421.31-.424.305-.427.301-.431.298-.434.293-.438.289-.44.285-.444.28-.447.277-.45.272-.453.267-.457.264-.459.258-.462.255-.465.25-.468.245-.47.241-.474.236-.476.232-.479.227-.481.222-.485.218-.486.213-.489.208-.492.204-.494.198-.496.194-.499.189-.501.184-.503.179-.506.174-.507.169-.51.164-.511.159-.514.154-.515.149-.518.144-.519.139-.521.133-.523.128-.524.124-.526.118-.528.112-.529.108-.53.102-.532.097-.534.092-.534.086-.536.081-.537.076-.539.07-.539.065-.54.059-.542.054-.542.049-.543.043-.544.038-.545.032-.546.027-.546.021-.547.016-.547.01-.548.005-.549-.001-.548-.006-.549-.012-.55-.018-.549-.023-.55-.028-.55-.034-.55-.04-.55-.045-.549-.051-.55-.057-.55-.062-.549-.068-.549-.073-.549-.079-.548-.084-.548-.091-.547-.095-.547-.102-.546-.106-.546-.113-.544-.118-.544-.124-.543-.129-.543-.135-.541-.14-.54-.146-.539-.152-.538-.157-.537-.163-.535-.168-.534-.173-.533-.18-.532-.184-.53-.191-.528-.195-.527-.202-.525-.206-.524-.212-.521-.218-.52-.223-.518-.228-.516-.234-.514-.239-.513-.245-.51-.25-.507-.255-.506-.26-.503-.266-.501-.271-.499-.277-.496-.281-.494-.287-.491-.292-.489-.297-.486-.302-.484-.308-.48-.312-.478-.318-.475-.322-.472-.328-.469-.332-.466-.338-.463-.342-.46-.348-.457-.352-.453-.357-.45-.362-.447-.367-.444-.372-.44-.376-.437-.381-.433-.386-.429-.39-.426-.395-.423-.399-.418-.404-.415-.409-.411-.413-.407-.417-.404-.422-.399-.426-.395-.431-.391-.434-.387-.439-.383-.444-.379-.447-.375-.451-.37-.456-.366-.46-.362-.463-.357-.468-.353-.472-.348-.475-.344-.479-.339-.483-.335-.487-.33-.491-.325-.494-.321-.498-.315-.501-.311-.505-.306-.508-.301-.512-.297-.515-.291-.519-.286-.522-.282-.525-.276-.528-.271-.531-.266-.535-.26-.537-.256-.541-.25-.543-.245-.546-.24-.55-.234-.551-.229-.555-.224-.557-.218-.56-.213-.563-.207-.565-.201-.568-.197-.57-.19-.572-.185-.574-.179-.577-.174-.579-.168-.581-.162-.584-.156-.585-.151-.587-.145-.589-.139-.591-.133-.593-.128-.594-.121-.597-.116-.597-.11-.6-.104-.601-.097-.602-.092-.603-.086-.605-.08-.607-.074-.607-.068-.609-.062-.609-.055-.611-.05-.612-.043-.612-.038-.613-.031-.615-.025-.614-.019-.616-.013-.616-.007-.617-.001-.617.006-.617.012-.618.018-.618.024-.618.031-.619.036-.618.043-.619.049-.619.056-.618.061-.618.068-.618.074-.618.08-.617.087-.617.092-.617.099-.616.105-.615.112-.615.118-.614.123-.613.131-.612.136-.612.142-.61.149-.609.155-.608.161-.607.167-.606.174-.605.179-.603.186-.601.192-.601.198-.598.204-.597.211-.596.216-.593.222-.592.229-.59.235-.588.24-.586.247-.583.252-.582.259-.58.265-.577.27-.575.276-.573.283-.57.288-.568.294-.565.3-.562.306-.56.311-.557.318-.555.323-.551.329-.549.334-.545.34-.543.346-.539.352-.536.357-.533.362-.53.368-.527.374-.523.379-.519.384-.516.39-.513.395-.509.401-.505.406-.502.411-.497.417-.494.421-.49.427-.486.432-.482.437-.478.442-.474.447-.47.452-.465.457-.461.462-.457.467-.453.471-.448.476-.443.481-.439.486-.435.49-.429.495-.425.5-.421.504-.415.508-.411.513-.406.518-.401.521-.396.526-.391.53-.386.535-.38.538-.376.542-.37.547-.365.551-.36.554-.355.558-.349.562-.344.566-.338.57-.332.573-.328.577-.321.581-.316.584-.31.587-.305.591-.299.594-.293.598-.287.601-.282.604-.275.607-.27.61-.263.613-.258.616-.251.619-.246.621-.239.625-.234.627-.227.63-.221.632-.214.635-.209.638-.202.639-.196.643-.189.644-.184.647-.176.648-.171.651-.164.653-.157.655-.151.657-.145.658-.137.66-.132.662-.125.664-.118.665-.111.667-.105.668-.098.67-.092.67-.085.673-.078.673-.071.674-.065.676-.058.676-.051.677-.044.678-.038.679-.031.68-.024.68-.017.681-.01.681-.003.681.003.682.011.683.017.682.024.683.031.683.038.683.045.682.052.683.059.682.065.682.073.682.079.681.087.681.093.681.1.679.107.68.114.678.121.677.128.677.135.675.141.675.149.674.155.672.163.671.169.67.176.668.183.667.19.665.196.664.203.662.211.661.217.658.223.657.231.655.237.653.244.65.251.649.257.646.264.644.271.642.278.639.284.637.29.634.298.632.303.629.311.626.317.624.323.62.33.618.336.614.343.612.349.608.355.605.362.602.368.598.374.595.381.592.386.588.393.584.399.581.405.577.412.573.417.57.423.565.429.562.436.557.441.553.447.549.453.545.458.541.464.536.47.532.476.527.481.523.487.519.493.513.498.509.503.504.509.5.514.494.519.49.525.484.53.48.535.474.54.47.546.464.55.458.555.454.56.448.565.443.57.437.575.432.579.426.585.421.588.415.593.409.598.404.602.397.607.392.611.386.615.38.62.374.623.368.628.362.632.356.635.349.64.344.643.337.648.331.651.324.655.318.658.312.662.305.665.299.669.292.672.286.676.279.679.272.681.266.685.259.689.252.691.246.694.238.696.232.7.225.702.218.705.211.708.205.71.197.712.19.715.183.717.176.719.169.722.162.723.154.726.148.727.14.73.133.731.126.733.119.734.111.736.104.738.096.739.09.741.082.741.074.743.067.744.06.745.053.746.044.747.038.748.03.749.022.749.015.75.008.751v.751l-.007.751-.015.752-.023.752-.03.752-.037.752-.046.752-.052.752-.06.752-.068.752-.075.751-.083.751-.091.751-.098.75-.105.75-.113.748-.121.749-.128.747-.136.746-.143.745-.151.745-.158.743-.166.742-.173.74-.181.74-.188.738-.196.736-.203.735-.211.733-.218.731-.226.729-.232.728-.241.726-.247.723-.256.722-.262.719-.27.717-.277.714-.284.713-.292.709-.299.707-.306.705-.313.701-.32.699-.328.696-.335.693-.341.691-.349.687-.356.683-.363.681-.37.677-.377.674-.384.67-.391.667-.397.664-.405.659-.411.656-.418.652-.424.648-.432.644-.438.641-.445.636-.451.632-.458.627-.464.624-.471.619-.477.614-.483.61-.49.606-.497.601-.502.596-.509.592-.515.586-.521.582-.527.577-.533.571-.539.567-.545.562-.551.556-.556.551-.563.546-.568.54-.574.535-.579.529-.586.524-.59.518-.596.512-.602.507-.607.501-.612.495-.617.489-.623.483-.628.477-.633.471-.638.465-.642.458-.648.453-.653.446-.657.439-.662.434-.667.427-.671.42-.676.414-.68.407-.685.401-.689.393-.693.387-.698.381-.702.373-.705.367-.71.359-.714.353-.717.346-.722.338-.725.332-.729.324-.732.317-.736.31-.739.303-.743.295-.746.288-.749.281-.753.273-.755.266-.759.258-.761.251-.765.243-.767.236-.77.228-.772.221-.776.212-.777.205-.78.198-.783.189-.784.182-.787.174-.789.166-.791.158-.793.151-.795.142-.797.135-.798.126-.8.119-.802.11-.803.103-.804.094-.806.087-.807.078-.809.07-.809.063-.81.054-.812.046-.812.037-.812.03-.814.021-.814.014-.815.005-.815-.003-.815-.012-.816-.019-.816-.028-.816-.036-.816-.044-.816-.053-.816-.061-.816-.069-.815-.077-.815-.085-.814-.094-.814-.102-.814-.11-.812-.119-.812-.126-.811-.135-.81-.143-.808-.152-.808-.159-.807-.168-.805-.176-.804-.184-.802-.192-.801-.201-.799-.209-.798-.216-.795-.225-.794-.234-.792-.241-.79-.249-.787-.257-.786-.266-.783-.273-.781-.281-.778-.29-.776-.297-.773-.306-.771-.313-.767-.321-.765-.329-.762-.337-.759-.345-.756-.352-.753-.36-.749-.369-.746-.375-.743-.384-.739-.391-.735-.399-.732-.406-.729-.414-.724-.421-.721-.429-.716-.436-.713-.444-.708-.451-.704-.459-.701-.465-.695-.473-.691-.481-.687-.487-.682-.495-.678-.501-.673-.509-.668-.516-.663-.522-.659-.53-.653-.536-.648-.544-.644-.55-.637-.556-.633-.564-.627-.57-.622-.577-.617-.583-.611-.589-.605-.596-.6-.603-.594-.609-.588-.615-.582-.621-.576-.627-.57-.633-.564-.64-.558-.645-.552-.652-.546-.657-.539-.663-.533-.668-.526-.675-.52-.68-.513-.685-.507-.691-.5-.696-.493-.702-.487-.707-.479-.712-.473-.718-.466-.722-.459-.728-.452-.732-.444-.737-.438-.742-.43-.747-.423-.752-.415-.756-.409-.76-.4-.765-.394-.77-.386-.773-.378-.778-.371-.782-.363-.787-.355-.79-.348-.794-.34-.798-.332-.802-.324-.805-.316-.809-.308-.813-.301-.816-.292-.819-.284-.823-.276-.826-.268-.829-.26-.832-.252-.835-.243-.838-.235-.841-.227-.844-.219-.846-.21-.849-.202-.851-.193-.854-.185-.856-.176-.858-.168-.861-.16-.862-.151-.865-.142-.866-.134-.868-.125-.87-.116-.872-.108-.873-.099-.875-.091-.875-.081-.878-.073-.878-.064-.88-.056-.88-.047-.882-.038-.882-.029-.883-.02-.884-.011-.885-.003-.885.006-.885.015-.886.024-.886.033-.886.041-.886.051-.886.059-.886.068-.885.078-.886.086-.885.094-.884.104-.884.113-.884.121-.882.131-.882.139-.881.148-.879.157-.879.166-.877.174-.876.184-.875.192-.873.201-.872.21-.87.219-.869.227-.866.236-.865.245-.862.254-.861.262-.858.271-.856.28-.854.288-.851.297-.848.306-.846.314-.844.323-.84.331-.838.34-.835.348-.831.357-.829.365-.825.373-.822.382-.818.39-.815.399-.811.407-.808.415-.804.423-.8.432-.796.439-.793.448-.788.455-.784.464-.779.472-.776.48-.77.487-.767.496-.762.503-.757.511-.752.519-.748.526-.743.534-.737.542-.733.549-.727.557-.723.564-.717.572-.711.579-.706.586-.701.593-.695.601-.689.608-.684.615-.677.621-.672.629-.666.636-.66.643-.653.649-.648.656-.641.663-.635.67-.628.676-.622.682-.616.689-.609.695-.602.702-.595.708-.589.714-.581.72-.575.726-.568.732-.56.738-.554.744-.546.75-.54.755-.531.761-.525.766-.516.772-.51.778-.502.783-.494.787-.486.794-.48.798-.47.803-.464.808-.455.814-.447.818-.44.822-.431.827-.423.832-.415.837-.407.84-.399.846-.39.849-.382.853-.374.858-.365.862-.357.865-.348.869-.34.873-.33.877-.323.88-.313.884-.305.887-.296.891-.288.894-.278.896-.27.9-.26.903-.252.906-.243.909-.234.911-.224.914-.216.916-.206.919-.198.921-.188.924-.179.925-.17.928-.16.93-.151.931-.142.934-.133.935-.123.936-.114.938-.105.94-.095.941-.086.942-.076.943-.067.945-.058.945-.047.946-.039.947-.029.947-.02.949-.01h.948l.949.01.949.018.95.029.949.038.95.047.95.057.949.067.949.076.948.085.949.096.947.105.947.114.946.124.945.134.945.143.943.153.942.162.941.172.939.181.938.19.937.201.935.21.933.22.931.228.93.239.927.248.925.257.924.266.92.276.919.286.916.294.913.305.911.313.908.323.905.332.902.34.899.351.895.36.893.368.889.378.886.387.883.396.878.405.875.414.872.423.867.432.863.44.86.45.855.459.851.467.846.476.842.485.838.493.833.502.829.51.823.52.819.528.814.536.808.544.804.553.798.56.793.57.788.578.782.585.777.594.771.602.766.61.759.617.754.626.748.634.741.641.736.649.729.656.723.664.717.672.711.679.703.687.698.694.69.701.684.708.677.716.67.723.663.729.657.737.649.743.642.751.634.757.627.763.62.771.613.777.605.783.597.79.59.796.582.802.574.808.566.815.559.82.55.827.543.832.534.838.526.844.518.849.51.855.501.861.493.865.484.871.476.877.467.881.459.886.45.892.441.896.433.901.423.906.415.91.406.915.397.919.388.923.379.928.369.932.361.936.351.94.342.944.333.948.323.951.314.955.305.959.295.962.286.965.276.968.266.972.257.975.248.977.237.981.228.983.218.986.209.989.198.99.189.994.179.995.169.998.16 1 .149 1.002.139 1.003.13 1.006.119 1.007.109 1.009.1 1.01.089 1.012.079 1.012.069 1.014.059 1.015.049 1.016.039 1.017.029 1.018.018 1.018.009 1.019-.002 1.02-.012 1.019-.022 1.02-.033 1.021-.042 1.02-.053 1.02-.063 1.02-.073 1.02-.084 1.019-.093 1.019-.104 1.018-.114 1.018-.124 1.017-.135 1.016-.144 1.015-.155 1.014-.165 1.013-.175 1.011-.186 1.01-.195 1.009-.206 1.007-.215 1.005-.226 1.004-.236 1.001-.246 1-.256.997-.267.996-.276.993-.286.99-.296.988-.306.986-.317.982-.326.98-.336.977-.345.974-.356.971-.366.967-.375.965-.385.96-.395.958-.404.953-.414.95-.424.947-.434.942-.443.938-.452.934-.462.93-.472.925-.48.922-.491.916-.499.912-.509.908-.518.902-.527.898-.537.893-.545.887-.555.883-.563.877-.573.872-.581.866-.591.861-.599.855-.608.85-.616.843-.626.838-.633.832-.643.826-.651.819-.659.814-.667.807-.676.8-.684.794-.693.788-.7.78-.709.774-.716.768-.724.76-.733.753-.74.746-.747.739-.756.732-.762.724-.771.717-.778.71-.785.701-.792.695-.8.686-.807.679-.814.671-.821.662-.828.655-.834.647-.842.639-.848.63-.854.622-.861.614-.868.605-.874.597-.88.588-.886.579-.893.571-.898.562-.905.553-.91.545-.916.535-.922.526-.927.517-.933.508-.938.499-.943.49-.949.48-.954.471-.959.462-.964.452-.968.442-.974.433-.978.423-.982.414-.987.404-.992.394-.996.384-.999.374-1.005.364-1.008.355-1.011.344-1.016.335-1.02.324-1.022.314-1.027.304-1.03.294-1.033.283-1.036.273-1.04.263-1.042.253-1.045.242-1.049.231-1.05.221-1.054.211-1.055.2-1.059.19-1.06.179-1.063.168-1.064.158-1.067.147-1.068.137-1.07.126-1.072.115-1.073.104-1.075.094-1.076.083-1.077.072-1.079.061-1.079.05-1.08.04-1.081.028-1.081.018-1.083.007-1.082-.004-1.083-.014-1.083-.026-1.083-.037-1.084-.047-1.083-.059-1.083-.069-1.082-.08-1.083-.091-1.081-.102-1.081-.113-1.08-.124-1.08-.135-1.078-.146-1.077-.156-1.077-.168-1.074-.178-1.074-.19-1.072-.2-1.07-.211-1.068-.221-1.067-.233-1.065-.243-1.062-.254-1.061-.265-1.058-.276-1.056-.287-1.053-.297-1.051-.308-1.048-.318-1.045-.329-1.042-.34-1.039-.351-1.036-.36-1.033-.372-1.029-.382-1.026-.393-1.023-.402-1.018-.414-1.015-.424-1.011-.434-1.007-.444-1.003-.455-.999-.465-.994-.475-.99-.485-.986-.496-.981-.505-.976-.516-.971-.525-.967-.535-.961-.546-.957-.555-.951-.565-.945-.575-.941-.584-.935-.594-.929-.604-.923-.613-.918-.623-.912-.632-.906-.642-.899-.651-.894-.66-.887-.669-.881-.679-.874-.687-.868-.697-.861-.706-.854-.714-.848-.723-.84-.732-.834-.741-.826-.75-.82-.758-.811-.766-.805-.775-.797-.783-.79-.792-.781-.799-.775-.808-.766-.816-.758-.824-.751-.831-.742-.84-.735-.847-.726-.855-.718-.863-.709-.87-.701-.877-.692-.885-.684-.892-.675-.9-.667-.906-.657-.913-.649-.92-.64-.928-.631-.933-.621-.941-.612-.947-.604-.953-.594-.96-.584-.966-.575-.973-.565-.978-.556-.985-.547-.99-.536-.996-.527-1.002-.517-1.008-.507-1.013-.497-1.018-.487-1.024-.477-1.029-.467-1.034-.457-1.039-.446-1.045-.437-1.049-.426-1.053-.415-1.059-.405-1.063-.395-1.067-.384-1.071-.374-1.076-.363-1.08-.352-1.084-.341-1.088-.331-1.092-.32-1.095-.31-1.099-.298-1.102-.287-1.106-.277-1.109-.266-1.112-.254-1.115-.243-1.118-.233-1.121-.221-1.123-.21-1.126-.2-1.129-.187-1.131-.177-1.133-.165-1.136-.154-1.137-.143-1.139-.131-1.141-.12-1.143-.109-1.145-.097-1.145-.086-1.148-.074-1.148-.063-1.15-.052-1.15-.04-1.152-.029-1.152-.017-1.153-.006-1.153.006-1.154.018-1.154.029-1.154.04-1.155.052-1.154.063-1.154.076-1.154.086-1.154.098-1.153.11-1.153.121-1.151.133-1.151.144-1.15.156-1.149.167-1.148.18-1.146.19-1.145.201-1.143.213-1.142.225-1.14.236-1.138.248-1.136.259-1.133.27-1.132.282-1.129.293-1.127.305-1.124.316-1.122.327-1.118.338-1.116.35-1.113.36-1.109.373-1.107.383-1.102.394-1.1.406-1.095.416-1.092.428-1.089.438-1.084.45-1.08.46-1.076.471-1.072.482-1.067.493-1.063.504-1.058.514-1.053.525-1.049.536-1.043.546-1.039.557-1.033.567-1.028.578-1.023.588-1.017.599-1.012.608-1.006.62-1 .628-.994.64-.989.649-.982.659-.976.67-.969.679-.963.689-.957.699-.95.708-.943.718-.937.728-.93.737-.922.746-.915.756-.908.766-.901.774-.893.784-.886.793-.879.801-.87.811-.863.819-.855.829-.847.837-.839.845-.83.855-.823.862-.814.871-.806.88-.797.887-.789.896-.78.904-.77.912-.763.92-.754.927-.744.935-.735.943-.727.95-.716.958-.708.965-.698.973-.689.98-.679.986-.67.994-.659 1-.65 1.008-.64 1.014-.63 1.021-.62 1.027-.61 1.033-.6 1.04-.59 1.046-.58 1.052-.569 1.059-.558 1.064-.549 1.069-.537 1.076-.527 1.081-.517 1.087-.506 1.092-.495 1.097-.484 1.103-.473 1.107-.462 1.113-.452 1.117-.44 1.122-.43 1.127-.417 1.131-.407 1.135-.396 1.14-.384 1.144-.373 1.149-.362 1.152-.35 1.156-.339 1.159-.327 1.164-.315 1.166-.304 1.171-.293 1.173-.28 1.177-.27 1.179-.257 1.183-.245 1.185-.234 1.188-.221 1.191-.21 1.193-.198 1.196-.186 1.197-.175 1.2-.162 1.202-.15 1.203-.138 1.206-.126 1.207-.114 1.208-.101 1.21-.09 1.211-.078 1.212-.065 1.214-.053 1.214-.042 1.215-.029 1.215-.016 1.217-.005 1.216.008 1.217.02 1.217.032 1.217.045 1.217.056 1.217.07 1.216.08 1.216.094 1.216.106 1.214.118 1.214.13 1.213.143 1.212.154 1.211.167 1.209.18 1.208.19 1.207.204 1.205.216 1.203.228 1.201.24 1.199.252 1.197.265 1.194.276 1.192.289 1.19.3 1.187.313 1.184.325 1.182.337 1.178.348 1.175.361 1.172.373 1.169.384 1.165.396 1.162.408 1.157.42 1.154.432 1.15.444 1.146.455 1.142.467 1.137.478 1.133.49 1.129.502 1.123.512 1.119.525 1.114.536 1.109.547 1.104.559 1.099.57 1.093.58 1.088.593 1.082.603 1.077.614 1.07.625 1.065.637 1.059.647 1.052.658 1.047.669 1.04.68 1.033.69 1.027.7 1.02.711 1.014.722 1.006.732 1 .743.992.752.985.763.978.773.97.783.963.794.956.803.947.812.94.823.932.832.923.842.916.852.907.86.899.87.891.88.882.889.874.898.864.907.856.916.847.924.839.934.829.942.82.951.81.96.801.967.792.976.783.985.772.992.764 1.001.753 1.008.743 1.017.734 1.024.724 1.032.713 1.039.703 1.047.693 1.054.683 1.062.673 1.068.661 1.076.652 1.083.64 1.089.631 1.097.619 1.103.608 1.109.598 1.116.586 1.123.576 1.128.564 1.135.554 1.14.542 1.147.531 1.152.519 1.158.508 1.164.497 1.168.485 1.175.473 1.179.462 1.185.451 1.189.438 1.195.427 1.199.414 1.204.403 1.208.391 1.213.379 1.217.367 1.221.355 1.225.343 1.229.331 1.233.318 1.237.306 1.24.294 1.244.281 1.247.27 1.25.256 1.253.245 1.256.232 1.259.219 1.261.207 1.264.194 1.267.182 1.269.169 1.271.157 1.273.143 1.275.131 1.277.119 1.279.106 1.28.093 1.281.08 1.283.067 1.284.055 1.285.042 1.286.029 1.287.016 1.287.003 1.288-.009 1.288-.022 1.289-.036 1.289-.048 1.288-.061 1.289-.073 1.288-.087 1.288-.1 1.288-.112 1.287-.125 1.286-.139 1.285-.151 1.284-.164 1.283-.176 1.282-.19 1.28-.202 1.279-.216 1.277-.228 1.275-.24 1.273-.254 1.272-.266 1.269-.279 1.267-.292 1.264-.305 1.262-.317 1.259-.33 1.256-.342 1.253-.355 1.25-.368 1.247-.38 1.244-.392 1.24-.406 1.236-.417 1.233-.43 1.229-.443 1.225-.454 1.221-.467 1.216-.48 1.212-.491 1.208-.504 1.203-.516 1.199-.528 1.193-.54 1.189-.552 1.183-.564 1.179-.576 1.173-.587 1.167-.6 1.162-.611 1.156-.623 1.15-.635 1.145-.646 1.138-.658 1.132-.669 1.126-.681 1.12-.692 1.113-.703 1.106-.715 1.099-.726 1.093-.736 1.086-.748 1.078-.759 1.072-.77 1.064-.781 1.056-.791 1.049-.802 1.041-.813 1.034-.823 1.026-.833 1.017-.844 1.01-.855 1.001-.864.993-.875.985-.885.976-.894.967-.905.959-.914.95-.924.941-.934.932-.944.923-.952.914-.963.904-.971.895-.981.885-.989.876-.999.866-1.008.856-1.016.846-1.026.837-1.033.826-1.043.816-1.051.806-1.059.796-1.067.785-1.076.774-1.083.764-1.092.753-1.099.743-1.107.732-1.114.72-1.122.71-1.13.699-1.136.687-1.144.677-1.151.664-1.158.654-1.165.642-1.171.631-1.178.619-1.185.607-1.19.595-1.198.584-1.203.572-1.209.56-1.215.548-1.222.536-1.226.524-1.232.511-1.238.499-1.243.487-1.248.475-1.254.462-1.258.45-1.263.437-1.268.425-1.272.412-1.277.399-1.281.387-1.285.374-1.29.361-1.293.348-1.297.335-1.301.322-1.305.31-1.307.296-1.312.283-1.314.27-1.317.257-1.321.244-1.323.231-1.325.217-1.329.204-1.33.191-1.333.177-1.335.165-1.337.15-1.339.138-1.341.124-1.342.11-1.344.097-1.345.084-1.346.07-1.347.056-1.348.043-1.349.03-1.35.016-1.35.002-1.351-.011-1.351-.025-1.35-.038-1.351-.052-1.351-.065-1.35-.08-1.35-.092-1.35-.107-1.348-.119-1.348-.134-1.347-.147-1.346-.161-1.345-.174-1.343-.187-1.341-.202-1.34-.215-1.339-.228-1.336-.242-1.334-.255-1.332-.269-1.33-.282-1.327-.296-1.325-.309-1.321-.323-1.32-.336-1.316-.349-1.312-.363-1.31-.375-1.306-.39-1.303-.402-1.299-.416-1.295-.428-1.291-.442-1.288-.455-1.282-.468-1.279-.481-1.274-.494-1.27-.507-1.265-.52-1.26-.533-1.255-.545-1.25-.558-1.244-.571-1.24-.584-1.234-.596-1.228-.609-1.222-.621-1.217-.634-1.21-.646-1.205-.658-1.198-.671-1.192-.683-1.185-.695-1.179-.707-1.172-.719-1.165-.732-1.158-.743-1.151-.755-1.143-.766-1.137-.779-1.129-.79-1.121-.801-1.114-.813-1.105-.825-1.098-.835-1.09-.847-1.082-.859-1.073-.869-1.065-.88-1.056-.891-1.048-.902-1.039-.913-1.031-.924-1.021-.934-1.012-.944-1.003-.955-.994-.966-.985-.975-.975-.986-.965-.996-.956-1.006-.946-1.015-.936-1.026-.926-1.035-.916-1.044-.906-1.054-.895-1.064-.885-1.073-.875-1.081-.864-1.091-.854-1.1-.842-1.109-.832-1.118-.821-1.126-.81-1.135-.799-1.143-.787-1.151-.777-1.16-.765-1.168-.753-1.176-.742-1.183-.73-1.192-.719-1.199-.707-1.207-.695-1.214-.683-1.221-.671-1.228-.659-1.236-.647-1.242-.634-1.25-.623-1.256-.61-1.262-.597-1.269-.585-1.276-.572-1.281-.56-1.288-.547-1.293-.535-1.3-.521-1.305-.509-1.311-.495-1.316-.483-1.321-.47-1.327-.456-1.331-.443-1.337-.43-1.342-.417-1.346-.404-1.35-.39-1.355-.376-1.359-.364-1.364-.35-1.367-.336-1.372-.322-1.374-.31-1.379-.294-1.382-.282-1.385-.268-1.389-.254-1.391-.24-1.395-.226-1.397-.213-1.4-.198-1.402-.185-1.405-.17-1.407-.157-1.409-.143-1.411-.129-1.413-.114-1.414-.1-1.416-.087-1.417-.073-1.418-.058-1.42-.044-1.42-.03-1.422-.015-1.422-.002-1.422.013-1.423.027-1.423.04-1.423.056-1.423.07-1.423.083-1.423.098-1.422.112-1.421.127-1.421.14-1.419.155-1.419.169-1.418.183-1.416.197-1.414.212-1.413.225-1.412.24-1.409.254-1.407.268-1.405.282-1.403.296-1.4.31-1.398.324-1.395.338-1.392.352-1.389.366-1.385.38-1.383.394-1.379.408-1.375.421-1.371.435-1.368.45-1.364.462-1.359.477-1.355.49-1.351.503-1.346.518-1.341.53-1.337.544-1.331.558-1.327.571-1.321.584-1.315.598-1.31.61-1.305.625-1.298.637-1.293.65-1.287.663-1.28.676-1.274.689-1.267.701-1.261.715-1.255.727-1.247.74-1.24.752-1.233.765-1.226.777-1.219.79-1.21.801-1.204L79.98 90l.826-1.188.838-1.18.85-1.171.863-1.163.874-1.155.885-1.147.898-1.138.908-1.129.92-1.12.932-1.111.943-1.103.955-1.093.965-1.083.977-1.075.987-1.064.998-1.055 1.01-1.045 1.019-1.036 1.03-1.025 1.04-1.016L99.75 66.9l1.061-.994 1.072-.985 1.082-.973 1.091-.964 1.102-.952 1.111-.942 1.121-.93 1.13-.92 1.14-.908 1.15-.898 1.158-.886 1.168-.874 1.176-.863 1.186-.851 1.194-.84 1.203-.828 1.212-.816 1.22-.804 1.228-.792 1.236-.78 1.245-.767 1.253-.755 1.26-.743 1.268-.73 1.276-.718 1.283-.705 1.29-.693 1.298-.68 1.305-.666 1.311-.654 1.319-.64 1.325-.628 1.332-.614 1.338-.602 1.345-.588 1.351-.574 1.357-.561 1.362-.548 1.369-.534 1.374-.52 1.38-.507 1.385-.493 1.39-.48 1.396-.465 1.4-.452 1.406-.437 1.41-.423 1.414-.41 1.419-.395 1.424-.381 1.427-.367 1.432-.353 1.435-.338 1.439-.324 1.442-.31 1.446-.295 1.45-.28 1.452-.267 1.456-.252 1.458-.237 1.461-.223 1.464-.208 1.466-.193 1.468-.178 1.47-.164 1.473-.15 1.474-.134 1.476-.12 1.477-.104 1.479-.09 1.481-.075 1.481-.06 1.482-.046 1.483-.03 1.484-.016 1.484-.001 1.484.014 1.485.03 1.485.043 1.485.06 1.484.073 1.484.089 1.484.104 1.483.118 1.482.134 1.481.148 1.48.164 1.478.178 1.478.194 1.475.208 1.474.223 1.472.238 1.47.252 1.468.268 1.466.282 1.463.297 1.46.312 1.458.327 1.454.341 1.452.357 1.449.37 1.445.386 1.441.4 1.438.414 1.434.43 1.431.443 1.426.458 1.422.473 1.417.487 1.413.501 1.409.516 1.403.53 1.399.544 1.393.558 1.388.573 1.383.586 1.377.601 1.372.615 1.366.628 1.36.642 1.354.657 1.347.67 1.341.683 1.335.697 1.328.711 1.321.725 1.315.737 1.307.752 1.3.764 1.293.778 1.285.79 1.278.805 1.27.817 1.262.83 1.255.843 1.246.855 1.237.869 1.23.88 1.221.894 1.212.906 1.204.919 1.194.93 1.186.943 1.177.956 1.167.967 1.158.979 1.148.99 1.139 1.003 1.129 1.015 1.12 1.026 1.109 1.037 1.099 1.05 1.089 1.06 1.079 1.07 1.068 1.083 1.057 1.093 1.047 1.105 1.037 1.115 1.025 1.125 1.014 1.137 1.004 1.146.992 1.158.98 1.167.97 1.177.958 1.188.946 1.197.934 1.207.923 1.217.911 1.226.898 1.236.887 1.245.874 1.255.862 1.263.85 1.272.837 1.281.825 1.29.812 1.299.799 1.306.786 1.316.773 1.323.761 1.332.747 1.339.734 1.347.721 1.355.707 1.363.694 1.37.68 1.377.667 1.384.654 1.392.639 1.398.626 1.405.612 1.411.598 1.418.584 1.425.569 1.43.556 1.437.542 1.443.527 1.448.513 1.454.498 1.459.484 1.465.47 1.47.455 1.475.44 1.48.426 1.485.411 1.489.397 1.494.381 1.498.367 1.502.351 1.506.337 1.511.322 1.513.307 1.518.291 1.521.277 1.524.262 1.527.246 1.531.231 1.533.216 1.535.2 1.539.186 1.54.17 1.543.154 1.545.14 1.547.123 1.548.109 1.551.093 1.551.077 1.553.063 1.554.046 1.555.031 1.556.016 1.556v1.557l-.015 1.558-.031 1.557-.047 1.558-.062 1.557-.078 1.557-.093 1.557-.109 1.556-.124 1.556-.14 1.554-.155 1.554-.171 1.552-.186 1.551-.202 1.549-.217 1.548-.233 1.545-.249 1.544-.263 1.542-.28 1.539-.294 1.537-.31 1.535-.326 1.531-.34 1.529-.356 1.525-.372 1.523-.386 1.518-.402 1.516-.417 1.511-.432 1.508-.448 1.504-.462 1.5-.478 1.495-.492 1.491-.508 1.486-.522 1.482-.538 1.476-.552 1.472-.567 1.466-.581 1.461-.597 1.455-.611 1.45-.626 1.444-.64 1.438-.655 1.431-.669 1.426-.683 1.419-.698 1.413-.712 1.405-.726 1.399-.74 1.393-.755 1.384-.768 1.378-.782 1.37-.796 1.363-.81 1.355-.824 1.347-.837 1.339-.851 1.331-.864 1.323-.877 1.315-.891 1.306-.904 1.297-.917 1.288-.931 1.28-.943 1.27-.956 1.261-.969 1.252-.981 1.243-.995 1.233-1.006 1.223-1.019 1.213-1.032 1.203-1.044 1.194-1.055 1.182-1.068 1.173-1.08 1.162-1.092 1.152-1.103 1.141-1.115 1.13-1.126 1.119-1.138 1.108-1.149 1.097-1.161 1.085-1.171 1.074-1.182 1.063-1.194 1.051-1.204 1.039-1.214 1.027-1.225 1.016-1.236 1.003-1.246.991-1.255.979-1.266.966-1.276.954-1.286.941-1.295.928-1.305.916-1.315.903-1.323.89-1.333.876-1.342.864-1.35.85-1.36.837-1.368.823-1.377.81-1.385.796-1.393.782-1.401.769-1.409.754-1.418.741-1.424.726-1.433.713-1.44.698-1.447.684-1.454.669-1.461.655-1.468.641-1.475.625-1.481.612-1.488.596-1.494.581-1.5.567-1.506.552-1.512.537-1.517.521-1.524.507-1.528.491-1.534.476-1.539.461-1.543.445-1.549.43-1.553.415-1.558.399-1.562.383-1.566.368-1.57.352-1.574.337-1.577.321-1.581.304-1.585.29-1.588.273-1.591.257-1.593.242-1.597.225-1.599.21-1.601.193-1.604.178-1.606.161-1.608.145-1.61.129-1.611.113-1.613.097-1.614.081-1.615.064-1.616.049-1.617.032-1.618.015h-1.618l-1.619-.017-1.618-.033-1.619-.049-1.619-.066-1.618-.081-1.618-.098-1.617-.115-1.616-.131-1.616-.146-1.614-.164-1.613-.179-1.612-.196-1.61-.212-1.608-.228-1.606-.244-1.604-.261-1.602-.276-1.6-.293-1.597-.309-1.594-.325-1.591-.341-1.588-.357-1.585-.374-1.582-.389-1.578-.405-1.574-.421-1.571-.437-1.566-.453-1.562-.469-1.558-.485-1.554-.5-1.548-.516-1.544-.532-1.539-.547-1.534-.563-1.529-.579-1.523-.593-1.517-.61-1.512-.625-1.506-.64-1.5-.655-1.493-.67-1.487-.686-1.481-.701-1.474-.716-1.467-.73-1.46-.746-1.453-.76-1.446-.776-1.438-.789-1.431-.805-1.423-.819-1.415-.834-1.408-.847-1.399-.863-1.39-.876-1.382-.891-1.374-.904-1.365-.919-1.356-.933-1.347-.946-1.338-.96-1.329-.974-1.319-.987-1.31-1.001-1.3-1.014-1.29-1.028-1.28-1.04-1.27-1.054-1.259-1.067-1.25-1.079-1.238-1.093-1.228-1.105-1.218-1.117-1.206-1.13-1.196-1.142-1.184-1.155-1.173-1.167-1.162-1.179-1.15-1.19-1.139-1.203-1.127-1.214-1.114-1.226-1.103-1.237-1.091-1.249-1.079-1.259-1.066-1.271-1.054-1.282-1.041-1.293-1.029-1.303-1.016-1.314-1.003-1.325-.99-1.335-.976-1.345-.964-1.355-.95-1.365-.937-1.375-.924-1.385-.91-1.394-.895-1.404-.883-1.413-.868-1.422-.854-1.431-.84-1.44-.826-1.449-.812-1.457-.797-1.466-.783-1.474-.769-1.483-.754-1.49-.739-1.498-.724-1.506-.71-1.514-.694-1.52-.68-1.529-.663-1.535-.65-1.543-.634-1.549-.618-1.556-.603-1.562-.588-1.569-.572-1.575-.557-1.581-.541-1.587-.525-1.593-.51-1.598-.494-1.604-.477-1.609-.462-1.615-.446-1.619-.43-1.624-.413-1.629-.398-1.633-.381-1.637-.365-1.642-.349-1.646-.332-1.649-.316-1.653-.3-1.657-.283-1.66-.267-1.663-.25-1.667-.234-1.669-.217-1.672-.2-1.674-.184-1.677-.167-1.679-.15-1.68-.133-1.683-.117-1.685-.1-1.686-.084-1.687-.066-1.688-.05-1.69-.032-1.69-.016-1.691v-1.692l.018-1.691.035-1.692.051-1.692.069-1.692.085-1.692.102-1.691.12-1.69.136-1.689.152-1.689.17-1.687.187-1.686.203-1.684.22-1.683.237-1.681.254-1.678.27-1.677.288-1.674.304-1.672.321-1.668.338-1.666.354-1.663.371-1.66.388-1.656.404-1.653.42-1.649.438-1.645.454-1.641.47-1.637.486-1.632.504-1.628.519-1.623.535-1.619.552-1.613.568-1.608.585-1.602.6-1.597.616-1.592.633-1.585.648-1.58.664-1.573.68-1.567.696-1.56.711-1.554.727-1.547.743-1.54.758-1.532.774-1.526.789-1.517.804-1.51.82-1.503.834-1.495.85-1.486.864-1.479.88-1.47.894-1.46.91-1.454.923-1.443.939-1.435.953-1.426.967-1.416.982-1.407.995-1.397 1.01-1.388 1.024-1.378 1.038-1.368 1.052-1.357 1.066-1.348 1.079-1.336 1.093-1.327 1.106-1.315 1.12-1.305 1.132-1.294 1.146-1.282 1.159-1.272 1.172-1.26 1.184-1.248 1.198-1.237 1.21-1.225 1.222-1.213 1.235-1.201 1.246-1.19 1.26-1.176 1.27-1.164 1.283-1.151 1.295-1.14 1.306-1.126 1.318-1.113 1.329-1.1 1.34-1.087 1.351-1.075 1.363-1.06 1.373-1.047 1.384-1.034 1.394-1.02 1.405-1.005 1.415-.992 1.426-.979 1.435-.963 1.445-.95 1.456-.936 1.464-.92 1.474-.907 1.484-.892 1.493-.877 1.501-.862 1.511-.847 1.519-.832 1.528-.818 1.537-.802 1.544-.786 1.553-.772 1.561-.756 1.569-.74 1.576-.725 1.584-.709 1.591-.693 1.599-.678 1.605-.661 1.613-.646 1.619-.63 1.626-.613 1.632-.597 1.639-.58 1.644-.565 1.651-.548 1.656-.531 1.662-.516 1.668-.498 1.673-.482 1.678-.465 1.682-.448 1.688-.432 1.692-.414 1.697-.398 1.701-.38 1.705-.365 1.71-.346 1.713-.33 1.716-.312 1.72-.296 1.723-.278 1.727-.26 1.729-.244 1.732-.226 1.735-.209 1.737-.191 1.739-.174 1.742-.157 1.743-.139L189.2.361l1.747-.104 1.748-.086 1.749-.07 1.75-.05 1.751-.035L199.697 0l1.752.001 1.753.02 1.753.036 1.752.054 1.753.071 1.752.09 1.751.107 1.751.124 1.75.142 1.749.16 1.748.178 1.746.195 1.744.212 1.743.23 1.741.248 1.739.265 1.736.283 1.734.3 1.731.318 1.729.335 1.725.352 1.722.37 1.719.388 1.715.404 1.712.422 1.708.44 1.703.456 1.7.474 1.695.49 1.69.509 1.686.525 1.681.542 1.676.559 1.67.576 1.665.593 1.66.61 1.653.626 1.648.644 1.642.66 1.635.676 1.629.693 1.623.71 1.615.726 1.609.742 1.602.76 1.594.774 1.587.791 1.579.807 1.572.824 1.563.839 1.556.855 1.547.87 1.539.887 1.531.902 1.522.918 1.512.933 1.504.949 1.495.964 1.485.979 1.476.994 1.467 1.01 1.456 1.023 1.447 1.04 1.436 1.053 1.426 1.068 1.416 1.083 1.405 1.097 1.395 1.112 1.384 1.126 1.373 1.14 1.361 1.153 1.351 1.168 1.339 1.182 1.328 1.195 1.315 1.209 1.305 1.222 1.292 1.236 1.28 1.248 1.268 1.262 1.255 1.275 1.243 1.288 1.231 1.3 1.218 1.314 1.204 1.325 1.192 1.338 1.179 1.35 1.166 1.362 1.152 1.375 1.138 1.386 1.126 1.397 1.111 1.41 1.097 1.42 1.084 1.432 1.069 1.444 1.056 1.454 1.041 1.465 1.026 1.476 1.012 1.486.998 1.497.982 1.507.968 1.517.953 1.528.938 1.537.923 1.547.907 1.556.892 1.566.877 1.575.861 1.584.845 1.593.83 1.602.814 1.61.798 1.62.782 1.627.766 1.635.75 1.644.734 1.651.717 1.659.701 1.667.684 1.674.668 1.681.651 1.688.634 1.695.618 1.702.601 1.708.583 1.714.567 1.721.55 1.727.533 1.732.515 1.738.499 1.744.481 1.749.463 1.754.447 1.76.428 1.764.412 1.768.393 1.773.377 1.778.358 1.781.341 1.786.323 1.789.305 1.793.288 1.796.269 1.799.252 1.803.234 1.805.215 1.808.198 1.81.18 1.813.162 1.815.144 1.817.125 1.819.108 1.82.089 1.822.071 1.823.053 1.824.035 1.825.017 1.825-.002 1.826-.019 1.827-.038 1.826-.056 1.827-.075 1.826-.092 1.826-.111 1.825-.129 1.824-.147 1.824-.166 1.822-.183 1.821-.202 1.82-.22 1.818-.238 1.815-.257 1.814-.274 1.812-.293 1.809-.31 1.807-.329 1.804-.347 1.801-.365 1.797-.382 1.795-.401 1.79-.419 1.788-.436 1.783-.455 1.779-.472 1.775-.49 1.771-.508 1.766-.525 1.761-.544 1.756-.56 1.751-.579 1.746-.595 1.74-.614 1.735-.63 1.729-.648 1.722-.666 1.717-.682 1.71-.7 1.704-.717 1.697-.734 1.69-.751 1.683-.768 1.676-.784 1.668-.802 1.661-.818 1.653-.835 1.645-.851 1.637-.868 1.629-.884 1.62-.9 1.612-.917 1.603-.933 1.594-.949 1.585-.965 1.576-.981 1.566-.996 1.557-1.013 1.547-1.028 1.537-1.043 1.527-1.059 1.517-1.074 1.507-1.09 1.496-1.104 1.485-1.12 1.475-1.134 1.463-1.149 1.452-1.164 1.442-1.179 1.429-1.193 1.419-1.207 1.406-1.221 1.394-1.236 1.383-1.25 1.37-1.263 1.358-1.278 1.346-1.291 1.333-1.304 1.32-1.318 1.308-1.331 1.294-1.345 1.282-1.357 1.268-1.37 1.254-1.383 1.241-1.396 1.228-1.408 1.213-1.42 1.2-1.433 1.186-1.445 1.171-1.456 1.157-1.469 1.143-1.48 1.128-1.492 1.114-1.503 1.098-1.514 1.084-1.525 1.069-1.536 1.054-1.548 1.038-1.557 1.023-1.568 1.008-1.579.992-1.588.976-1.599.961-1.609.945-1.618.928-1.628.913-1.637.896-1.646.881-1.656.863-1.664.848-1.673.83-1.682.814-1.69.798-1.698.78-1.707.764-1.714.746-1.722.73-1.73.712-1.737.695-1.745.678-1.751.66-1.758.643-1.765.626-1.772.607-1.778.59-1.784.573-1.79.554-1.796.537-1.802.518-1.807.501-1.813.483-1.818.464-1.822.446-1.827.428-1.832.41-1.837.391-1.84.373-1.845.355-1.849.336-1.852.318-1.855.299-1.859.28-1.863.262-1.865.244-1.867.224-1.871.206-1.873.187-1.875.168-1.877.15-1.878.13-1.881.112-1.882.093-1.883.074-1.884.055-1.885.037-1.886.017-1.886-.002-1.887-.02-1.886-.04-1.887-.058-1.887-.078-1.886-.096-1.885-.115-1.884-.135-1.884-.153-1.882-.172-1.881-.191-1.88-.211-1.877-.229-1.876-.247-1.873-.267-1.871-.286-1.869-.304-1.866-.324-1.863-.342-1.86-.361-1.857-.379-1.853-.399-1.85-.417-1.845-.435-1.842-.455-1.838-.473-1.833-.491-1.828-.51-1.824-.528-1.819-.547-1.814-.565-1.808-.584-1.803-.602-1.797-.619-1.791-.639-1.786-.656-1.779-.674-1.772-.692-1.766-.71-1.76-.729-1.752-.745-1.745-.764-1.738-.781-1.731-.799-1.722-.816-1.715-.834-1.707-.851-1.699-.869-1.69-.885-1.682-.903-1.673-.92-1.664-.937-1.655-.954-1.646-.97-1.637-.987-1.627-1.004-1.617-1.02-1.607-1.037-1.598-1.053-1.587-1.069-1.577-1.086-1.566-1.101-1.555-1.118-1.545-1.133-1.533-1.149-1.523-1.164-1.51-1.18-1.5-1.195-1.488-1.211-1.476-1.226-1.464-1.241-1.452-1.255-1.44-1.271-1.427-1.285-1.415-1.3-1.402-1.314-1.389-1.329-1.376-1.342-1.363-1.357-1.35-1.371-1.336-1.384-1.323-1.398-1.309-1.412-1.295-1.425-1.28-1.438-1.268-1.452-1.252-1.464-1.239-1.477-1.224-1.49-1.209-1.503-1.194-1.515-1.18-1.527-1.164-1.539-1.15-1.551-1.134-1.563-1.119-1.575-1.103-1.586-1.087-1.598-1.072-1.608-1.056-1.62-1.04-1.631-1.024-1.641-1.008-1.652-.991-1.663-.975-1.672-.959-1.683-.942-1.692-.925-1.703-.909-1.712-.891-1.721-.874-1.731-.858-1.739-.84-1.749-.823-1.757-.805-1.766-.789-1.774-.77-1.783-.753-1.79-.735-1.799-.717-1.806-.7-1.813-.681-1.821-.664-1.828-.645-1.836-.627-1.841-.61-1.849-.59-1.855-.572-1.861-.553-1.867-.536-1.873-.516-1.879-.498-1.884-.48-1.89-.46-1.895-.442-1.899-.423-1.905-.403-1.909-.385-1.913-.366-1.918-.347-1.921-.328-1.926-.309-1.929-.29-1.932-.27-1.936-.25-1.939-.232-1.941L2 191.845l-.194-1.946-.173-1.949-.154-1.951-.135-1.953-.116-1.955-.096-1.956-.076-1.957L1 176.219l187.802-.45z" stroke="url(#prefix__paint0_linear)"/><defs><linearGradient id="prefix__paint0_linear" x1="335.173" y1="157.414" x2="56.94" y2="292.2" gradientUnits="userSpaceOnUse"><stop stop-color="#fff" stop-opacity=".2"/><stop offset="1" stop-color="#383058" stop-opacity="0"/></linearGradient></defs></svg>