<svg width="382" height="41" fill="none" xmlns="http://www.w3.org/2000/svg"><path d="M356 17H21" stroke="#533780" stroke-opacity=".8"/><g filter="url(#prefix__filter0_d)"><path d="M367 11h-7a4 4 0 00-4 4v3a4 4 0 004 4h3a4 4 0 004-4v-7z" fill="#FBFAFF"/><path d="M365.5 12.5H360a2.5 2.5 0 00-2.5 2.5v3a2.5 2.5 0 002.5 2.5h3a2.5 2.5 0 002.5-2.5v-5.5z" stroke="#533780" stroke-width="3"/></g><g filter="url(#prefix__filter1_d)"><path d="M15 11h7a4 4 0 014 4v3a4 4 0 01-4 4h-3a4 4 0 01-4-4v-7z" fill="#FBFAFF"/><path d="M16.5 12.5H22a2.5 2.5 0 012.5 2.5v3a2.5 2.5 0 01-2.5 2.5h-3a2.5 2.5 0 01-2.5-2.5v-5.5z" stroke="#533780" stroke-width="3"/></g><defs><filter id="prefix__filter0_d" x="341" y="0" width="41" height="41" filterUnits="userSpaceOnUse" color-interpolation-filters="sRGB"><feFlood flood-opacity="0" result="BackgroundImageFix"/><feColorMatrix in="SourceAlpha" values="0 0 0 0 0 0 0 0 0 0 0 0 0 0 0 0 0 0 127 0"/><feOffset dy="4"/><feGaussianBlur stdDeviation="7.5"/><feColorMatrix values="0 0 0 0 0.32549 0 0 0 0 0.215686 0 0 0 0 0.501961 0 0 0 0.4 0"/><feBlend in2="BackgroundImageFix" result="effect1_dropShadow"/><feBlend in="SourceGraphic" in2="effect1_dropShadow" result="shape"/></filter><filter id="prefix__filter1_d" x="0" y="0" width="41" height="41" filterUnits="userSpaceOnUse" color-interpolation-filters="sRGB"><feFlood flood-opacity="0" result="BackgroundImageFix"/><feColorMatrix in="SourceAlpha" values="0 0 0 0 0 0 0 0 0 0 0 0 0 0 0 0 0 0 127 0"/><feOffset dy="4"/><feGaussianBlur stdDeviation="7.5"/><feColorMatrix values="0 0 0 0 0.501961 0 0 0 0 0.215686 0 0 0 0 0.463726 0 0 0 0.4 0"/><feBlend in2="BackgroundImageFix" result="effect1_dropShadow"/><feBlend in="SourceGraphic" in2="effect1_dropShadow" result="shape"/></filter></defs></svg>