<svg width="99" height="22" fill="none" xmlns="http://www.w3.org/2000/svg"><g style="mix-blend-mode:luminosity"><path d="M31.959 6.036c.564.198 1.005.508 1.325.93.32.414.479.916.479 1.508 0 .865-.348 1.532-1.043 2.002-.695.47-1.7.704-3.016.704h-5.327V1.315h5.045c1.26 0 2.218.235 2.875.705.658.46.987 1.085.987 1.874 0 .47-.118.893-.353 1.269-.225.366-.55.657-.972.873zm-4.82-2.706v1.903h1.917c.94 0 1.409-.32 1.409-.958 0-.63-.47-.945-1.41-.945H27.14zm2.34 5.835c.977 0 1.465-.334 1.465-1 0-.668-.488-1.001-1.465-1.001h-2.34v2h2.34zm9.436 2.142c-.818 0-1.555-.17-2.213-.507a3.88 3.88 0 01-1.55-1.41c-.366-.6-.55-1.282-.55-2.043 0-.752.184-1.428.55-2.03a3.802 3.802 0 011.536-1.395c.658-.338 1.4-.507 2.227-.507s1.569.17 2.227.507c.657.33 1.17.794 1.536 1.396.366.591.55 1.268.55 2.029 0 .761-.184 1.442-.55 2.043a3.78 3.78 0 01-1.536 1.41c-.658.338-1.4.507-2.227.507zm0-2.128c.47 0 .855-.16 1.156-.48.3-.328.45-.779.45-1.352 0-.564-.15-1.005-.45-1.325-.301-.32-.686-.479-1.156-.479-.47 0-.855.16-1.156.48-.3.319-.45.76-.45 1.324 0 .573.15 1.024.45 1.353.301.32.686.479 1.156.479zm12.122.001v2H43.99V9.602l3.538-4.073h-3.44V3.542h6.808v1.564L47.358 9.18h3.679zm6.153-5.765c.95 0 1.71.282 2.283.846.583.563.874 1.414.874 2.55v4.37H57.67V7.247c0-1.043-.418-1.564-1.255-1.564-.46 0-.831.15-1.113.451-.272.3-.408.752-.408 1.353v3.692h-2.678V.723h2.678v3.524c.29-.273.634-.48 1.028-.62a3.747 3.747 0 011.269-.212zm12.757 3.96c0 .019-.014.24-.043.662h-5.552c.113.395.328.7.648.916.329.207.738.31 1.226.31.367 0 .681-.051.945-.154a2.78 2.78 0 00.817-.508l1.41 1.466c-.743.827-1.828 1.24-3.256 1.24-.893 0-1.677-.17-2.354-.507a3.837 3.837 0 01-1.578-1.41c-.367-.6-.55-1.282-.55-2.043 0-.752.179-1.423.536-2.015a3.825 3.825 0 011.508-1.41c.638-.338 1.357-.507 2.156-.507.76 0 1.451.16 2.071.48.62.31 1.109.765 1.466 1.366.367.592.55 1.297.55 2.114zm-4.073-2.057c-.414 0-.761.117-1.043.352-.273.235-.446.554-.522.958h3.13c-.076-.404-.254-.723-.536-.958-.273-.235-.616-.352-1.03-.352zm10.281-1.903c.949 0 1.71.282 2.283.846.583.563.874 1.414.874 2.55v4.37h-2.678V7.247c0-1.043-.418-1.564-1.254-1.564-.46 0-.832.15-1.114.451-.272.3-.408.752-.408 1.353v3.692h-2.677V3.542h2.55v.831a2.96 2.96 0 011.071-.704c.414-.17.864-.254 1.353-.254zm8.305 5.088l-.79.803v1.874h-2.677V.723h2.678v5.482l2.734-2.663h3.17l-3.17 3.27 3.439 4.368h-3.242L84.46 8.503zm9.684 2.804c-.818 0-1.555-.17-2.213-.507a3.878 3.878 0 01-1.55-1.41c-.366-.6-.55-1.282-.55-2.043 0-.752.184-1.428.55-2.03a3.8 3.8 0 011.536-1.395c.658-.338 1.4-.507 2.227-.507.826 0 1.569.17 2.226.507.658.33 1.17.794 1.537 1.396.366.591.55 1.268.55 2.029 0 .761-.184 1.442-.55 2.043a3.782 3.782 0 01-1.537 1.41c-.657.338-1.4.507-2.226.507zm0-2.128c.47 0 .855-.16 1.155-.48.301-.328.451-.779.451-1.352 0-.564-.15-1.005-.45-1.325-.301-.32-.686-.479-1.156-.479-.47 0-.856.16-1.156.48-.3.319-.45.76-.45 1.324 0 .573.15 1.024.45 1.353.3.32.686.479 1.156.479zm-65.611 4.43v6.179h-.566v-.866a1.797 1.797 0 01-.708.674 2.039 2.039 0 01-.983.234 2.23 2.23 0 01-1.115-.283 2.025 2.025 0 01-.783-.792 2.337 2.337 0 01-.283-1.157c0-.433.094-.819.283-1.158.189-.338.45-.6.783-.783a2.224 2.224 0 011.115-.283c.356 0 .675.075.958.225.289.144.525.358.708.641v-2.63h.591zm-2.207 5.696c.306 0 .58-.07.825-.208.25-.145.444-.347.583-.608a1.81 1.81 0 00.216-.891c0-.333-.072-.63-.216-.891a1.446 1.446 0 00-.583-.6 1.589 1.589 0 00-.825-.216c-.31 0-.59.072-.84.216a1.516 1.516 0 00-.584.6c-.138.26-.208.558-.208.89 0 .334.07.631.209.892.144.26.338.463.582.608.25.139.53.208.841.208zm7.668-1.525h-3.665c.034.456.209.825.525 1.108.317.278.716.417 1.2.417.271 0 .521-.047.749-.142.228-.1.425-.244.591-.433l.333.383a1.863 1.863 0 01-.733.533 2.434 2.434 0 01-.957.183c-.45 0-.85-.094-1.2-.283a2.109 2.109 0 01-.807-.8 2.267 2.267 0 01-.292-1.148c0-.428.092-.81.275-1.15.189-.338.444-.602.766-.79a2.161 2.161 0 011.1-.284c.405 0 .768.095 1.09.283a2 2 0 01.758.791c.183.334.275.717.275 1.15l-.008.183zm-2.116-1.898c-.422 0-.777.136-1.066.408-.283.267-.444.617-.483 1.05h3.107c-.04-.433-.203-.783-.492-1.05-.283-.272-.638-.408-1.066-.408zm4.502 3.948c-.356 0-.697-.05-1.025-.15-.322-.106-.574-.236-.757-.392l.266-.466c.183.144.414.264.691.358.278.089.567.133.866.133.4 0 .694-.06.883-.183a.604.604 0 00.292-.533.463.463 0 00-.159-.375.978.978 0 00-.4-.208 5.03 5.03 0 00-.64-.142 8.073 8.073 0 01-.858-.2 1.324 1.324 0 01-.558-.357c-.15-.167-.225-.397-.225-.692 0-.366.153-.666.458-.899.305-.233.73-.35 1.274-.35.283 0 .566.04.85.117.283.072.516.17.699.291l-.258.475c-.361-.25-.791-.375-1.291-.375-.377 0-.663.067-.858.2a.614.614 0 00-.283.525c0 .166.053.3.158.4.111.1.247.174.408.224.161.045.384.092.667.142.35.066.63.133.84.2.212.066.392.18.542.341.15.161.225.383.225.666 0 .383-.161.689-.483.916-.317.223-.758.334-1.324.334zm2.9-4.422h.591v4.38h-.591v-4.38zm.3-.958a.419.419 0 01-.309-.125.409.409 0 01-.124-.3.4.4 0 01.124-.291.419.419 0 01.309-.125.42.42 0 01.308.125.373.373 0 01.125.283.419.419 0 01-.125.308.418.418 0 01-.308.125zm5.992.958v3.847c0 .744-.183 1.293-.55 1.649-.36.36-.907.541-1.64.541-.405 0-.791-.061-1.158-.183a2.33 2.33 0 01-.882-.492l.3-.45c.21.19.466.337.766.442.305.106.624.158.957.158.555 0 .963-.13 1.224-.391.261-.255.392-.655.392-1.2v-.557a1.775 1.775 0 01-.725.633 2.201 2.201 0 01-.982.216c-.411 0-.786-.088-1.125-.266a2.076 2.076 0 01-.79-.758 2.177 2.177 0 01-.284-1.108c0-.41.095-.777.283-1.099.195-.322.458-.572.791-.75a2.352 2.352 0 011.125-.266c.372 0 .707.075 1.007.225.3.15.542.367.725.65v-.841h.566zm-2.24 3.689c.316 0 .602-.067.858-.2.255-.139.452-.33.591-.575.144-.244.217-.522.217-.832 0-.311-.073-.586-.217-.825a1.419 1.419 0 00-.591-.566 1.735 1.735 0 00-.858-.208c-.316 0-.602.066-.858.2-.25.133-.447.321-.591.566a1.656 1.656 0 00-.208.832c0 .311.07.589.208.833.144.245.341.436.591.575.256.133.542.2.858.2zm6.125-3.723c.55 0 .986.161 1.308.483.327.317.491.78.491 1.39v2.54h-.591v-2.48c0-.456-.114-.803-.342-1.042-.227-.238-.552-.358-.974-.358-.472 0-.846.142-1.124.425-.272.277-.408.663-.408 1.157v2.299h-.591v-4.38h.566v.807c.16-.266.383-.472.666-.616a2.14 2.14 0 011-.225zm7.841 0c.41 0 .782.095 1.116.283.333.184.594.445.782.783.19.339.284.725.284 1.158 0 .438-.095.827-.283 1.166a2.03 2.03 0 01-.783.79c-.328.184-.7.276-1.116.276a2.13 2.13 0 01-.966-.217 1.865 1.865 0 01-.7-.65v2.44h-.591v-5.995h.566v.866c.178-.29.411-.511.7-.667a2.09 2.09 0 01.99-.233zm-.042 3.93c.306 0 .583-.069.833-.207.25-.145.444-.347.583-.608.144-.261.217-.558.217-.891 0-.333-.073-.628-.217-.883a1.504 1.504 0 00-.583-.608 1.635 1.635 0 00-.833-.216c-.31 0-.591.072-.841.216a1.577 1.577 0 00-.583.608 1.82 1.82 0 00-.208.883c0 .333.07.63.208.89.145.262.339.464.583.609.25.138.53.208.841.208zm3.994-3.039c.14-.294.345-.516.617-.666.278-.15.62-.225 1.025-.225v.575l-.142-.008c-.461 0-.822.141-1.083.424-.261.283-.391.68-.391 1.191v2.232h-.591v-4.38h.566v.857zm4.461 3.565c-.422 0-.802-.095-1.14-.284a2.12 2.12 0 01-.8-.8 2.266 2.266 0 01-.291-1.148c0-.428.097-.81.291-1.15a2.06 2.06 0 01.8-.79c.338-.19.718-.284 1.14-.284.422 0 .803.095 1.141.283.34.19.602.453.791.791.195.34.292.722.292 1.15 0 .427-.097.81-.292 1.149a2.064 2.064 0 01-.79.8 2.303 2.303 0 01-1.142.282zm0-.525c.311 0 .588-.07.833-.208.25-.145.445-.347.583-.608.139-.261.208-.558.208-.891 0-.333-.07-.63-.208-.891a1.442 1.442 0 00-.583-.6 1.606 1.606 0 00-.833-.216c-.31 0-.59.072-.84.216a1.52 1.52 0 00-.584.6c-.138.26-.208.558-.208.89 0 .334.07.63.208.892.145.26.339.463.583.608.25.138.53.208.841.208zm8.894-3.931c.55 0 .98.158 1.291.475.317.316.475.783.475 1.399v2.54h-.591v-2.482c0-.455-.112-.802-.334-1.04-.216-.24-.524-.359-.924-.359-.456 0-.813.142-1.074.425-.261.277-.392.663-.392 1.157v2.299h-.59v-2.482c0-.455-.112-.802-.334-1.04-.217-.24-.528-.359-.933-.359-.45 0-.808.142-1.074.425-.261.277-.391.663-.391 1.157v2.299h-.591v-4.38h.566v.799c.155-.267.371-.472.65-.616.277-.145.596-.217.957-.217.366 0 .683.078.95.233.27.156.474.386.607.692.161-.29.392-.514.691-.675.306-.167.653-.25 1.04-.25zm5.175 4.456c-.421 0-.802-.095-1.14-.284a2.126 2.126 0 01-.8-.8 2.266 2.266 0 01-.291-1.148c0-.428.097-.81.292-1.15.194-.338.46-.602.799-.79a2.303 2.303 0 011.14-.284c.423 0 .803.095 1.142.283.338.19.602.453.79.791.195.34.292.722.292 1.15 0 .427-.097.81-.291 1.149a2.063 2.063 0 01-.791.8c-.339.188-.72.282-1.141.282zm0-.525c.312 0 .59-.07.833-.208.25-.145.445-.347.583-.608.14-.261.209-.558.209-.891 0-.333-.07-.63-.209-.891a1.442 1.442 0 00-.583-.6 1.604 1.604 0 00-.832-.216 1.66 1.66 0 00-.842.216 1.518 1.518 0 00-.582.6c-.139.26-.208.558-.208.89 0 .334.07.63.207.892.145.26.34.463.584.608.25.138.53.208.84.208zm5.738.217c-.111.1-.25.177-.416.233-.161.05-.33.075-.509.075-.41 0-.727-.111-.949-.333-.222-.222-.333-.536-.333-.941v-2.649h-.783v-.5h.783v-.957h.591v.958h1.333v.5h-1.333v2.614c0 .261.064.461.192.6.133.133.322.2.566.2.122 0 .24-.02.35-.058a.87.87 0 00.3-.167l.208.425zm1.076-4.114h.591v4.38h-.59v-4.38zm.3-.958a.418.418 0 01-.308-.125.409.409 0 010-.591.419.419 0 01.308-.125.42.42 0 01.308.125.373.373 0 01.125.283.418.418 0 01-.125.308.418.418 0 01-.308.125zm3.727 5.38c-.422 0-.802-.095-1.14-.284a2.126 2.126 0 01-.8-.8 2.264 2.264 0 01-.291-1.148c0-.428.096-.81.29-1.15.195-.338.462-.602.8-.79a2.303 2.303 0 011.141-.284c.422 0 .802.095 1.141.283.339.19.603.453.791.791.194.34.292.722.292 1.15 0 .427-.098.81-.292 1.149a2.065 2.065 0 01-.791.8 2.302 2.302 0 01-1.14.282zm0-.525c.311 0 .589-.07.833-.208.25-.145.444-.347.583-.608.139-.261.208-.558.208-.891 0-.333-.069-.63-.208-.891a1.449 1.449 0 00-.583-.6 1.605 1.605 0 00-.832-.216c-.311 0-.592.072-.842.216a1.515 1.515 0 00-.583.6c-.139.26-.208.558-.208.89 0 .334.07.63.208.892.144.26.339.463.583.608.25.138.53.208.841.208zm5.663-3.931c.549 0 .985.161 1.307.483.328.317.491.78.491 1.39v2.54h-.59v-2.48c0-.456-.115-.803-.342-1.042-.228-.238-.553-.358-.975-.358-.471 0-.846.142-1.124.425-.272.277-.408.663-.408 1.157v2.299h-.591v-4.38h.566v.807c.16-.266.383-.472.666-.616.29-.15.622-.225 1-.225z" fill="#333"/><path fill-rule="evenodd" clip-rule="evenodd" d="M0 0h9.198a6.776 6.776 0 016.73 7.57A8.072 8.072 0 0110.955 22H.001V11.33h9.198a4.555 4.555 0 004.174-2.73 5.829 5.829 0 00-2.418-.522H0V0zm13.732 6.346a4.555 4.555 0 00-4.534-4.124H2.222v3.633h8.733c.976 0 1.911.174 2.777.49zm1.476 3.564a6.775 6.775 0 01-6.01 3.642H2.222v6.226h8.733a5.85 5.85 0 004.253-9.868z" fill="#79787B"/></g></svg>