<svg width="17" height="17" fill="none" xmlns="http://www.w3.org/2000/svg"><g clip-path="url(#prefix__clip0)" fill="#777"><path d="M15.238 2.214H14.17v-.846c0-.243-.199-.442-.442-.442-.244 0-.443.199-.443.442v.846h-4.34v-.846c0-.243-.2-.442-.443-.442s-.443.199-.443.442v.846H3.675v-.846c0-.243-.199-.442-.442-.442-.244 0-.443.199-.443.442v.846H1.767C.793 2.214 0 3.034 0 4.008v10.295c0 .979.788 1.771 1.767 1.771h13.466c.979 0 1.767-.792 1.767-1.766v-10.3c.005-.975-.788-1.794-1.762-1.794zm.88 12.09c0 .486-.389.88-.876.885H1.767a.88.88 0 01-.881-.881v-10.3c0-.492.394-.908.88-.908H2.79v.642c0 .243.2.443.443.443s.442-.2.442-.443V3.1H8.06v.642c0 .243.2.443.443.443.244 0 .443-.2.443-.443V3.1h4.34v.642c0 .243.199.443.443.443.243 0 .442-.2.442-.443V3.1h1.068c.491 0 .88.42.88.908v10.295z"/><path d="M7.337 5.978h-.775c-.244 0-.443.2-.443.443 0 .244.2.443.443.443h.775c.243 0 .443-.2.443-.443 0-.244-.2-.443-.443-.443zM10.419 5.978h-.775c-.244 0-.443.2-.443.443 0 .244.2.443.443.443h.775c.243 0 .443-.2.443-.443a.441.441 0 00-.443-.443zM13.528 5.978h-.775c-.243 0-.443.2-.443.443 0 .244.2.443.443.443h.775c.244 0 .443-.2.443-.443 0-.244-.2-.443-.443-.443zM7.337 9.034h-.775c-.244 0-.443.199-.443.442 0 .244.2.443.443.443h.775c.243 0 .443-.199.443-.443 0-.243-.2-.442-.443-.442zM4.234 9.034h-.78c-.243 0-.442.199-.442.442 0 .244.199.443.443.443h.774c.244 0 .443-.199.443-.443a.44.44 0 00-.438-.442zM10.419 9.034h-.775c-.244 0-.443.199-.443.442 0 .244.2.443.443.443h.775c.243 0 .443-.199.443-.443a.441.441 0 00-.443-.442zM13.528 9.034h-.775c-.243 0-.443.199-.443.442 0 .244.2.443.443.443h.775c.244 0 .443-.199.443-.443 0-.243-.2-.442-.443-.442zM7.337 12.045h-.775c-.244 0-.443.2-.443.443s.2.442.443.442h.775c.243 0 .443-.199.443-.442 0-.244-.2-.443-.443-.443zM4.234 12.045h-.78c-.243 0-.442.2-.442.443s.199.442.443.442h.774c.244 0 .443-.199.443-.442a.44.44 0 00-.438-.443zM10.419 12.045h-.775c-.244 0-.443.2-.443.443s.2.442.443.442h.775c.243 0 .443-.199.443-.442a.441.441 0 00-.443-.443z"/></g><defs><clipPath id="prefix__clip0"><path fill="#fff" d="M0 0h17v17H0z"/></clipPath></defs></svg>