<svg width="150" height="72" fill="none" xmlns="http://www.w3.org/2000/svg"><g clip-path="url(#prefix__prefix__prefix__clip0)"><path d="M1.166 62.862v-.388c.389.028 1.166.055 2.332.055.414 0 1.14-.027 2.15-.055.052.61.104 1.108.13 1.468l-.363.083c-.078-.471-.208-.776-.415-.887-.207-.138-.673-.193-1.373-.193-.285 0-.492 0-.648.027h-.051c-.026 0-.026.028-.052.028-.026.028-.026.055-.026.083v2.659h.777c.57 0 .933-.056 1.088-.139.156-.083.207-.36.207-.775h.363c-.026.332-.026.664-.026.969 0 .25.026.665.052 1.19h-.363c-.026-.387-.103-.636-.233-.72-.13-.082-.388-.138-.829-.138H2.85v1.385c0 .637 0 1.052.026 1.19 0 .084.026.14.052.195a.21.21 0 00.103.11l.156.083c.052.028.13.028.233.028.104 0 .207.028.285.028h.388c.674 0 1.114-.056 1.322-.166a.689.689 0 00.285-.277c.077-.111.13-.222.181-.305.026-.083.078-.25.155-.47l.337.082c-.026.166-.13.693-.31 1.606-.234-.027-1.296-.055-3.187-.055-.855 0-1.425.028-1.684.055v-.387c.337-.028.544-.056.648-.139.103-.083.155-.304.155-.637v-4.68c0-.415-.052-.664-.13-.803a3.834 3.834 0 00-.699-.11zm8.368-.056v-.277c.388-.166.777-.36 1.14-.581l.155.083c-.026.554-.052 1.024-.052 1.44v4.541c0 .554.026.886.078.997.052.139.207.194.466.166v.333c-.414.028-.803.11-1.192.221l-.155-.166c0-.083.026-.166.026-.277 0-.11.026-.194.026-.277a2.39 2.39 0 01-.389.305 1.907 1.907 0 01-.466.25 1.67 1.67 0 01-.596.138c-.466 0-.855-.222-1.192-.665-.31-.443-.466-.97-.466-1.579 0-.692.207-1.273.596-1.716.388-.444.88-.693 1.477-.693.362 0 .699.083 1.036.277v-2.021c0-.222-.026-.36-.078-.416-.026-.055-.181-.083-.414-.083zm.518 5.76v-1.634c0-.332-.026-.609-.052-.775a.72.72 0 00-.26-.443c-.206-.194-.466-.277-.776-.277-.389 0-.7.166-.933.47-.26.333-.363.748-.363 1.302s.13 1.025.389 1.357c.259.332.596.499.958.499.337.055.674-.139 1.037-.499zm1.865-3.046v-.36a6.82 6.82 0 001.321-.11c-.026.304-.026.968-.026 1.938 0 .775.026 1.246.052 1.44.104.443.363.664.777.664.156 0 .285-.027.44-.083.156-.055.26-.11.312-.166a2.35 2.35 0 01.31-.25c.026-.58.026-.913.026-.968v-1.163c0-.444-.025-.72-.103-.804-.078-.083-.285-.138-.622-.138v-.36c.466 0 .959-.055 1.503-.138-.026.304-.052.775-.052 1.44V68.4c0 .305.026.526.103.61.052.082.234.138.519.138v.332a6.62 6.62 0 00-1.27.25l-.13-.14c.027-.249.052-.47.078-.664-.181.166-.362.305-.492.415-.337.25-.674.36-.958.36-.311 0-.57-.083-.778-.276a1.205 1.205 0 01-.31-.471c-.078-.194-.104-.36-.13-.499 0-.138-.026-.332-.026-.553v-1.717c0-.277-.052-.471-.104-.554-.025-.083-.18-.111-.44-.111zm8.602 3.157l.181.194c-.466.581-1.01.858-1.632.858-.466 0-.855-.138-1.166-.443-.492-.443-.725-1.052-.725-1.855 0-.637.207-1.191.596-1.662.388-.47.906-.692 1.554-.692.389 0 .7.083.959.25.259.165.388.304.388.442 0 .083-.052.166-.13.25a.358.358 0 01-.258.11c-.052 0-.104-.028-.13-.028a1.636 1.636 0 01-.155-.193c-.208-.305-.44-.443-.752-.443-.31 0-.621.138-.88.443-.26.304-.415.747-.415 1.384 0 .499.13.942.389 1.33.259.387.647.581 1.114.581a1.846 1.846 0 001.062-.526zm3.989.637c.026 0 .155-.055.337-.166l.13.221c-.364.277-.675.416-.908.416-.31 0-.492-.222-.518-.665-.414.498-.829.72-1.243.72a.871.871 0 01-.674-.305c-.181-.193-.259-.443-.259-.747a.98.98 0 01.078-.416.779.779 0 01.285-.304c.13-.083.259-.166.337-.194.077-.028.207-.083.414-.166l1.088-.416v-.387c0-.222 0-.388-.026-.499 0-.11-.026-.25-.078-.388a.424.424 0 00-.18-.276.614.614 0 00-.338-.084c-.155 0-.336.056-.518.167-.207.11-.31.249-.31.415-.027.194-.078.332-.182.388a.418.418 0 01-.26.083c-.103 0-.154-.056-.154-.139a.73.73 0 01.077-.36c.052-.083.156-.194.311-.332.57-.498 1.01-.748 1.321-.748.44 0 .726.111.855.36.13.25.207.665.207 1.246v1.939c-.103.415 0 .637.208.637zm-.985-.554v-1.218c-.052.027-.155.055-.31.11a3.061 3.061 0 00-.39.166c-.103.056-.206.111-.336.194a.95.95 0 00-.285.277.809.809 0 00-.078.36c0 .166.052.333.156.443a.526.526 0 00.414.166c.207.028.492-.166.83-.498zm1.866-2.963l.077-.305c.311-.249.544-.47.674-.692a3.41 3.41 0 00.337-.775h.285l-.026 1.329h1.295l-.155.443H26.71l-.052 2.215c0 .471.026.776.104.914.13.194.337.305.622.305.155 0 .336-.028.518-.111l.103.305c-.466.194-.829.304-1.088.304-.31 0-.57-.083-.725-.277a.804.804 0 01-.207-.387c-.026-.139-.026-.416-.026-.776l.051-2.52h-.621v.028zm3.083.055v-.304c.337-.111.726-.305 1.166-.582l.181.111c-.025.332-.051.61-.051.886v2.686c0 .305.026.499.077.554.052.055.233.11.544.139v.332c-.544-.028-.88-.056-.984-.056-.104 0-.44.028-1.01.056v-.332c.31 0 .492-.056.544-.139.051-.083.103-.305.103-.665v-2.021c0-.25-.052-.443-.103-.526-.078-.083-.234-.139-.467-.139zm.492-2.714a.503.503 0 01-.155-.36c0-.138.052-.249.13-.36a.414.414 0 01.336-.138.52.52 0 01.337.139c.104.11.13.221.13.36a.607.607 0 01-.13.36.414.414 0 01-.337.138.397.397 0 01-.31-.139zm4.197 1.912c.7 0 1.243.22 1.632.692.389.47.57 1.024.57 1.689s-.207 1.246-.622 1.69a2.08 2.08 0 01-1.58.691c-.674 0-1.218-.221-1.58-.692-.389-.47-.57-1.025-.57-1.662 0-.72.207-1.273.622-1.716.414-.444.906-.693 1.528-.693zm-.104.387c-.388 0-.7.166-.932.499-.233.332-.363.775-.363 1.273 0 .333.052.637.13.942.077.304.259.581.492.83.233.25.518.36.855.36.414 0 .725-.166.958-.526.233-.36.337-.775.337-1.301 0-.498-.13-.997-.389-1.44-.259-.443-.595-.637-1.088-.637zm3.031.416v-.305a4.96 4.96 0 001.14-.582l.181.111c-.026.305-.026.582-.026.803a8.66 8.66 0 01.803-.526c.208-.11.363-.194.44-.222.079-.027.182-.027.286-.027.259 0 .518.083.725.221a.853.853 0 01.415.554c.051.222.077.554.077.942v1.993c0 .222.026.36.104.416.078.055.233.083.518.11v.36c-.362-.027-.7-.055-.984-.055-.311 0-.648.028-1.01.056v-.36c.31 0 .492-.056.57-.139.051-.083.077-.332.077-.748v-1.55c0-.166 0-.305-.026-.416a4.747 4.747 0 01-.078-.387.639.639 0 00-.259-.333c-.13-.083-.285-.11-.466-.11-.389 0-.803.194-1.192.553l.026 2.465c0 .277.052.47.104.526.052.056.233.111.544.111v.36c-.389-.028-.726-.055-1.01-.055-.311 0-.648.027-1.01.055v-.36c.284 0 .491-.055.57-.138.05-.056.077-.111.077-.167v-1.855c0-.637-.026-.997-.078-1.135-.078-.111-.233-.166-.518-.166zm8.55 3.461c.026 0 .155-.055.336-.166l.13.221c-.363.277-.674.416-.907.416-.31 0-.492-.222-.518-.665-.414.498-.829.72-1.243.72a.871.871 0 01-.674-.305c-.181-.193-.26-.443-.26-.747a.98.98 0 01.079-.416.779.779 0 01.285-.304c.13-.083.259-.166.336-.194.078-.028.208-.083.415-.166l1.088-.416v-.387c0-.222 0-.388-.026-.499 0-.11-.026-.25-.078-.388a.424.424 0 00-.181-.276.614.614 0 00-.337-.084c-.155 0-.337.056-.518.167-.207.11-.31.249-.31.415-.027.194-.079.332-.182.388a.418.418 0 01-.26.083c-.103 0-.155-.056-.155-.139a.73.73 0 01.078-.36c.052-.083.156-.194.311-.332.57-.498 1.01-.748 1.321-.748.44 0 .726.111.855.36.13.25.207.665.207 1.246v1.939c-.103.415 0 .637.208.637zm-.985-.554v-1.218c-.052.027-.155.055-.31.11a3.061 3.061 0 00-.39.166c-.103.056-.207.111-.336.194a.951.951 0 00-.285.277.81.81 0 00-.078.36c0 .166.052.333.156.443a.526.526 0 00.414.166c.207.028.492-.166.83-.498zm1.943-5.9v-.304c.467-.194.855-.387 1.14-.581l.207.11c-.026.444-.051.886-.051 1.274v4.874c0 .332 0 .582.025.775 0 .139.052.222.13.25.078.055.233.083.466.083v.332c-.414-.028-.725-.055-.932-.055-.13 0-.467.027-1.062.055v-.332c.31 0 .492-.056.544-.111.051-.083.077-.332.077-.748v-4.874c0-.166-.026-.304-.026-.387a.383.383 0 00-.077-.222c-.026-.055-.078-.11-.156-.11-.052 0-.155-.028-.285-.028zm8.341 6.454c.026 0 .156-.055.337-.166l.13.221c-.363.277-.674.416-.907.416-.31 0-.492-.222-.518-.665-.415.498-.83.72-1.244.72a.871.871 0 01-.673-.305c-.181-.193-.26-.443-.26-.747 0-.166.027-.305.078-.416a.779.779 0 01.285-.304c.13-.083.26-.166.337-.194.078-.028.207-.083.415-.166l1.088-.416v-.387c0-.222 0-.388-.026-.499 0-.11-.026-.25-.078-.388a.424.424 0 00-.181-.276.614.614 0 00-.337-.084c-.155 0-.337.056-.518.167-.207.11-.311.249-.311.415-.026.194-.078.332-.181.388a.418.418 0 01-.26.083c-.103 0-.155-.056-.155-.139a.73.73 0 01.078-.36c.052-.083.155-.194.31-.332.57-.498 1.011-.748 1.322-.748.44 0 .725.111.855.36.13.25.207.665.207 1.246v1.939c-.077.415.026.637.207.637zm-.984-.554v-1.218c-.052.027-.155.055-.31.11a3.061 3.061 0 00-.39.166c-.103.056-.207.111-.336.194a.951.951 0 00-.285.277.81.81 0 00-.078.36c0 .166.052.333.155.443a.53.53 0 00.415.166c.207.028.492-.166.829-.498zm1.944-2.907v-.305a4.96 4.96 0 001.14-.582l.18.111c-.025.305-.025.582-.025.803.31-.221.596-.415.803-.526.207-.11.363-.194.44-.222.078-.027.182-.027.285-.027.26 0 .519.083.726.221a.854.854 0 01.414.554c.052.222.078.554.078.942v1.993c0 .222.026.36.104.416.077.055.233.083.518.11v.36c-.363-.027-.7-.055-.985-.055-.31 0-.647.028-1.01.056v-.36c.31 0 .492-.056.57-.139.052-.083.078-.332.078-.748v-1.55c0-.166 0-.305-.026-.416a4.747 4.747 0 01-.078-.387.639.639 0 00-.26-.333c-.129-.083-.284-.11-.465-.11-.389 0-.803.194-1.192.553l.026 2.465c0 .277.052.47.103.526.052.056.234.111.544.111v.36c-.388-.028-.725-.055-1.01-.055-.31 0-.648.027-1.01.055v-.36c.285 0 .492-.055.57-.138.052-.056.077-.111.077-.167v-1.855c0-.637-.025-.997-.077-1.135-.078-.111-.233-.166-.518-.166zm7.953-3.047v-.277c.389-.166.777-.36 1.14-.581l.155.083c-.026.554-.051 1.024-.051 1.44v4.541c0 .554.025.886.077.997.052.139.207.194.466.166v.333a5.68 5.68 0 00-1.191.221l-.156-.166c0-.083.026-.166.026-.277 0-.11.026-.194.026-.277-.155.139-.285.25-.388.305-.104.083-.26.166-.467.25a1.671 1.671 0 01-.596.138c-.466 0-.855-.222-1.191-.665-.311-.443-.467-.97-.467-1.579 0-.692.208-1.273.596-1.716a1.82 1.82 0 011.477-.693c.363 0 .7.083 1.036.277v-2.021c0-.222-.026-.36-.078-.416-.025-.055-.18-.083-.414-.083zm.518 5.76v-1.634c0-.332-.026-.609-.052-.775a.719.719 0 00-.259-.443c-.207-.194-.466-.277-.777-.277-.389 0-.7.166-.933.47-.259.333-.362.748-.362 1.302s.13 1.025.388 1.357c.26.332.596.499.959.499.337.055.673-.139 1.036-.499zm10.829-1.052l-.233 1.69c-.285.138-.544.248-.803.304-.57.166-1.088.277-1.555.277-.414 0-.829-.056-1.243-.166-.7-.194-1.27-.61-1.71-1.247a3.83 3.83 0 01-.674-2.215c0-.775.156-1.44.493-2.022.337-.553.725-.969 1.191-1.273a3.575 3.575 0 011.918-.527c.259 0 .518.028.803.084.233.027.751.166 1.58.415l.13 1.578-.337.056c-.156-.582-.363-.997-.622-1.219-.363-.304-.855-.443-1.477-.443a2.42 2.42 0 00-1.917.886c-.518.582-.777 1.357-.777 2.299 0 .97.259 1.772.777 2.381.518.61 1.166.914 1.97.914.569 0 1.035-.138 1.398-.415.363-.305.622-.775.725-1.385l.363.028zm2.953-2.464c.7 0 1.244.22 1.632.692.389.47.57 1.024.57 1.689s-.207 1.246-.621 1.69a2.08 2.08 0 01-1.58.691c-.674 0-1.218-.221-1.581-.692-.389-.47-.57-1.025-.57-1.662 0-.72.207-1.273.622-1.716a1.956 1.956 0 011.528-.693zm-.078.387c-.388 0-.699.166-.932.499-.233.332-.363.775-.363 1.273 0 .333.052.637.13.942.078.304.259.581.492.83.233.25.518.36.855.36.414 0 .725-.166.958-.526.234-.36.337-.775.337-1.301 0-.498-.13-.997-.388-1.44a1.202 1.202 0 00-1.088-.637zm3.031 2.935l.285-.027c.078.304.156.498.208.609.155.277.388.415.673.415a.78.78 0 00.544-.194.645.645 0 00.233-.498c0-.194-.051-.332-.155-.443-.104-.11-.363-.305-.725-.582-.208-.138-.363-.249-.467-.36a1.106 1.106 0 01-.285-.387c-.103-.166-.13-.36-.13-.582 0-.388.13-.692.363-.914.234-.221.545-.332.881-.332.233 0 .57.055.985.194l.078.941-.26.056c-.155-.526-.414-.803-.777-.803-.181 0-.337.055-.44.166a.568.568 0 00-.181.443c0 .138.025.25.103.36.078.11.156.194.233.277.078.055.182.138.337.249.285.194.492.332.622.443.13.11.233.25.337.415.103.167.155.388.155.61 0 .415-.13.72-.415.969a1.48 1.48 0 01-.958.36c-.31 0-.674-.083-1.088-.25l-.156-1.135zm3.394-2.492v-.305a7.253 7.253 0 001.14-.581l.207.11c-.025.305-.051.527-.051.693.103-.083.233-.166.362-.25.44-.276.778-.415 1.037-.415.336 0 .596.083.777.25.181.166.285.332.337.526.388-.277.7-.499.906-.582.208-.11.415-.166.596-.166.389 0 .7.139.933.388.155.166.233.387.259.609.026.222.052.665.052 1.302v1.107c0 .388.026.61.077.692.052.084.234.139.519.139v.36c-.544-.028-.881-.055-1.01-.055-.26 0-.597.027-.985.055v-.36c.259 0 .44-.028.518-.083.078-.055.13-.222.13-.443v-1.136c0-.803-.026-1.273-.104-1.467-.13-.36-.389-.554-.752-.554-.336 0-.699.166-1.113.526.025.139.025.415.025.859v1.55c0 .333.026.554.104.637.052.083.233.111.518.111v.36c-.388-.028-.7-.055-.933-.055-.31 0-.647.027-1.01.055v-.36c.285 0 .466-.055.518-.139.052-.11.078-.387.078-.886v-.969c0-.665-.026-1.08-.104-1.218-.13-.305-.388-.443-.75-.443-.26 0-.623.138-1.089.443v2.686c0 .249.026.388.104.443.051.055.233.083.518.083v.36c-.389-.028-.7-.055-.985-.055-.31 0-.647.027-1.036.055v-.36c.285 0 .492-.028.57-.11.078-.084.13-.472.13-1.192v-.803c0-.553-.026-.886-.026-.969-.026-.194-.078-.304-.13-.332 0-.083-.13-.111-.337-.111zm10.726.997H92.02c-.026.083-.026.194-.026.305 0 .36.052.664.155.913.13.305.311.527.57.72.233.167.518.277.83.277.362 0 .699-.11 1.01-.36l.155.222c-.207.222-.389.388-.544.47-.31.194-.674.278-1.01.278-.519 0-.959-.222-1.322-.637-.362-.416-.518-.942-.518-1.579 0-.72.182-1.301.57-1.744.389-.444.855-.693 1.4-.693.388 0 .725.111.984.36.259.25.388.554.388.942 0 .11 0 .221-.026.277-.025.083-.051.11-.103.138-.052.028-.078.056-.13.056-.026.055-.078.055-.181.055zm-2.099-.388h1.633c.051 0 .103-.027.13-.027.025 0 .05-.028.077-.084.026-.027.026-.082.026-.166a.693.693 0 00-.182-.498c-.13-.138-.31-.222-.57-.222-.544 0-.932.333-1.114.997zm3.265-.692l.077-.305c.311-.249.544-.47.674-.692a3.41 3.41 0 00.337-.775h.285l-.026 1.329h1.295l-.155.443H96.71l-.052 2.215c0 .471.026.776.104.914.13.194.337.305.621.305.156 0 .337-.028.519-.111l.103.305c-.466.194-.829.304-1.088.304-.31 0-.57-.083-.725-.277a.804.804 0 01-.207-.387c-.026-.139-.026-.416-.026-.776l.051-2.52h-.621v.028zm5.207-.747c.699 0 1.243.22 1.632.692.388.47.57 1.024.57 1.689s-.208 1.246-.622 1.69a2.081 2.081 0 01-1.58.691c-.674 0-1.218-.221-1.58-.692-.39-.47-.57-1.025-.57-1.662 0-.72.207-1.273.621-1.716.415-.471.907-.693 1.529-.693zm-.104.387c-.389 0-.7.166-.933.499-.233.332-.362.775-.362 1.273 0 .333.051.637.13.942.077.304.258.581.491.83.234.25.519.36.855.36.415 0 .726-.166.959-.526.233-.36.337-.775.337-1.301 0-.498-.13-.997-.389-1.44-.233-.415-.596-.637-1.088-.637zm3.057-2.577v-.304c.467-.194.855-.387 1.14-.581l.208.11c-.026.444-.052.886-.052 1.274v4.874c0 .332 0 .582.026.775 0 .139.051.222.129.25.078.055.233.083.466.083v.332c-.414-.028-.725-.055-.932-.055-.13 0-.466.027-1.062.055v-.332c.311 0 .492-.056.544-.111.052-.083.077-.332.077-.748v-4.874c0-.166-.025-.304-.025-.387 0-.083-.026-.139-.078-.222-.026-.055-.078-.11-.156-.11-.051 0-.155-.028-.285-.028zm4.715 2.19c.7 0 1.244.22 1.633.692.388.47.57 1.024.57 1.689s-.208 1.246-.622 1.69a2.082 2.082 0 01-1.581.691c-.673 0-1.217-.221-1.58-.692-.388-.47-.57-1.025-.57-1.662 0-.72.208-1.273.622-1.716a1.958 1.958 0 011.528-.693zm-.077.387c-.389 0-.7.166-.933.499-.233.332-.363.775-.363 1.273 0 .333.052.637.13.942.078.304.259.581.492.83.233.25.518.36.855.36.415 0 .726-.166.959-.526.233-.36.336-.775.336-1.301 0-.498-.129-.997-.388-1.44a1.202 1.202 0 00-1.088-.637zm6.995.055v.388h-.958c.103.222.155.47.155.665 0 .47-.181.858-.518 1.135-.259.221-.648.332-1.14.332-.285.277-.44.471-.44.61 0 .138.077.221.207.276.052.028.181.028.388.056.208 0 .415.028.622.028h.415c.751.055 1.14.387 1.14.969 0 .498-.234.969-.726 1.412a2.371 2.371 0 01-1.684.665c-.492 0-.855-.139-1.14-.388-.285-.25-.414-.582-.414-.97 0-.11.026-.249.052-.415.103-.166.259-.36.466-.609l.207-.221c-.207-.194-.311-.388-.311-.582 0-.028 0-.083.026-.138l.777-.776c-.621-.277-.932-.748-.932-1.384 0-.416.155-.776.44-1.053.285-.277.674-.415 1.14-.415.441 0 .777.138 1.036.415h1.192zm-3.083 4.071c-.207.277-.311.554-.311.803 0 .305.13.582.363.775.259.222.57.305.984.305.337 0 .648-.083.907-.277s.389-.415.389-.72c0-.11-.026-.221-.052-.304-.104-.222-.363-.36-.777-.388-.078 0-.182-.028-.311-.028-.13 0-.233-.028-.285-.028-.44-.027-.725-.055-.907-.138zm.752-4.181a.756.756 0 00-.519.276c-.129.167-.207.416-.207.72 0 .333.078.637.207.887a.63.63 0 00.596.36c.233 0 .415-.084.544-.277.13-.194.182-.443.182-.72 0-.443-.078-.776-.234-.97-.155-.193-.362-.304-.569-.276zm2.331.111v-.333c.311.028.673.056 1.062.056.311 0 .622 0 .932-.056v.36c-.103 0-.181 0-.207.028-.026 0-.078.028-.155.028a.276.276 0 00-.13.083c-.026.027-.026.083-.026.138 0 .056.052.222.156.526l.829 2.299.388-1.108c.337-.83.493-1.385.493-1.661 0-.222-.182-.333-.519-.333v-.36c.26.028.57.056.881.056.182 0 .467 0 .829-.056v.36c-.233.028-.388.083-.492.166-.104.083-.207.277-.337.554l-1.191 3.296c-.337.886-.622 1.495-.829 1.855-.234.36-.467.526-.752.526a.5.5 0 01-.337-.11.462.462 0 01-.129-.305c0-.277.181-.416.518-.471a.999.999 0 00.518-.222c.13-.11.259-.36.415-.775l.181-.415-1.218-3.24c-.155-.416-.259-.665-.362-.748-.052-.083-.233-.11-.518-.138zm13.756 2.021l-.233 1.69c-.285.138-.544.248-.803.304-.57.166-1.088.277-1.554.277-.415 0-.829-.056-1.244-.166-.699-.194-1.269-.61-1.71-1.247a3.832 3.832 0 01-.673-2.215c0-.775.155-1.44.492-2.022.337-.553.725-.969 1.192-1.273a3.572 3.572 0 011.917-.527c.259 0 .518.028.803.084.233.027.751.166 1.58.415l.13 1.578-.337.056c-.156-.582-.363-.997-.622-1.219-.363-.304-.855-.443-1.477-.443a2.42 2.42 0 00-1.917.886c-.518.582-.777 1.357-.777 2.299 0 .97.259 1.772.777 2.381.518.61 1.166.914 1.969.914.57 0 1.037-.138 1.399-.415.363-.305.622-.775.726-1.385l.362.028zm3.678-.637h-2.202c-.026.083-.026.194-.026.305 0 .36.052.664.156.913.129.305.311.527.57.72.233.167.518.277.829.277.363 0 .699-.11 1.01-.36l.156.222c-.208.222-.389.388-.544.47a1.926 1.926 0 01-1.011.278c-.518 0-.958-.222-1.321-.637-.363-.416-.518-.942-.518-1.579 0-.72.181-1.301.57-1.744.388-.444.855-.693 1.399-.693.388 0 .725.111.984.36.259.25.389.554.389.942 0 .11 0 .221-.026.277-.026.083-.052.11-.104.138-.052.028-.077.056-.129.056-.026.055-.078.055-.182.055zm-2.098-.388h1.632c.052 0 .104-.027.13-.027.026 0 .051-.028.077-.084.026-.027.026-.082.026-.166a.695.695 0 00-.181-.498c-.13-.138-.311-.222-.57-.222-.544 0-.933.333-1.114.997zm3.342-.636v-.305a4.94 4.94 0 001.14-.582l.182.111c-.026.305-.026.582-.026.803a8.66 8.66 0 01.803-.526c.207-.11.363-.194.44-.222.078-.027.182-.027.285-.027.259 0 .518.083.726.221a.854.854 0 01.414.554c.052.222.078.554.078.942v1.993c0 .222.026.36.103.416.078.055.234.083.519.11v.36c-.363-.027-.7-.055-.985-.055-.311 0-.648.028-1.01.056v-.36c.311 0 .492-.056.57-.139.052-.083.077-.332.077-.748v-1.55c0-.166 0-.305-.025-.416a4.731 4.731 0 01-.078-.387.642.642 0 00-.259-.333c-.13-.083-.285-.11-.467-.11-.388 0-.803.194-1.191.553l.026 2.465c0 .277.051.47.103.526.052.056.233.111.544.111v.36c-.388-.028-.725-.055-1.01-.055-.311 0-.648.027-1.01.055v-.36c.285 0 .492-.055.57-.138.051-.056.077-.111.077-.167v-1.855c0-.637-.026-.997-.077-1.135-.104-.111-.26-.166-.519-.166zm5.234-.056l.077-.305c.311-.249.545-.47.674-.692a3.41 3.41 0 00.337-.775h.285l-.026 1.329h1.295l-.155.443h-1.166l-.052 2.215c0 .471.026.776.104.914.129.194.337.305.622.305.155 0 .336-.028.518-.111l.103.305c-.466.194-.829.304-1.088.304-.311 0-.57-.083-.725-.277a.801.801 0 01-.207-.387c-.026-.139-.026-.416-.026-.776l.052-2.52h-.622v.028zm5.933 1.08h-2.203c-.025.083-.025.194-.025.305 0 .36.051.664.155.913.13.305.311.527.57.72.233.167.518.277.829.277.363 0 .699-.11 1.01-.36l.156.222c-.207.222-.389.388-.544.47a1.926 1.926 0 01-1.011.278c-.518 0-.958-.222-1.321-.637-.363-.416-.518-.942-.518-1.579 0-.72.181-1.301.57-1.744.389-.444.855-.693 1.399-.693.389 0 .725.111.984.36.259.25.389.554.389.942 0 .11 0 .221-.026.277-.026.083-.052.11-.104.138-.051.028-.077.056-.129.056-.026.055-.104.055-.181.055zm-2.125-.388h1.632c.052 0 .104-.027.13-.027.026 0 .052-.028.078-.084.026-.027.025-.082.025-.166a.69.69 0 00-.181-.498c-.129-.138-.311-.222-.57-.222-.544 0-.907.333-1.114.997zm3.368-.636v-.305c.414-.166.803-.36 1.14-.582l.103.056v.969c.078-.11.13-.222.156-.25.026-.055.103-.138.207-.276.104-.139.233-.222.363-.305a1.18 1.18 0 01.466-.083c.233 0 .363.11.363.305 0 .083-.026.194-.078.36-.052.166-.13.249-.207.249l-.182-.055a1.43 1.43 0 00-.362-.056c-.415 0-.674.277-.726.803-.026.25-.026.886-.026 1.939 0 .304.026.498.104.609.078.083.259.138.57.138v.333c-.596-.028-.959-.056-1.062-.056-.078 0-.415.028-.985.056v-.333c.233 0 .389-.027.467-.055.077-.028.129-.11.155-.25.026-.165.026-.415.026-.747V66.85c-.026-.443-.052-.72-.104-.803.026-.138-.129-.166-.388-.194z" fill="#141414"/><path d="M22.228 26.668c-5.673-.028-11.347-.111-16.994-.028-3.11.055-5.156 2.41-5.182 5.76C0 38.05.052 43.698.026 49.348c0 .886.26 1.107 1.063 1.107 5.285-.027 10.57 0 15.854-.027C20 50.4 22.203 48.295 22.306 45c.181-6.12.181-12.212 0-18.332 5.518-.028 11.036-.028 16.555-.056 3.627-.027 5.829-2.41 5.829-6.258.026-5.456-.026-10.883.026-16.339 0-1.08-.285-1.384-1.296-1.384-4.844.055-9.689.027-14.56.027-4.585 0-6.554 2.133-6.58 7.034 0 5.677-.026 11.326-.052 16.976zm38.549-5.927c4.405 10.745 9.275 20.853 13.964 31.514 4.56-10.883 10.052-20.769 13.808-31.43.026.11.13.387.156.692 1.14 9.277 3.627 18.25 5.31 27.415.208 1.053.623 1.302 1.53 1.246a34.923 34.923 0 014.17 0c1.114.084 1.347-.193 1.088-1.44-2.59-11.769-5.13-23.593-7.668-35.363-.933-4.347-1.891-8.667-2.928-13.347-5.259 12.35-10.388 24.369-15.57 36.526C69.82 24.204 64.224 12.379 58.99 0c-.985 4.708-1.891 9-2.798 13.32-2.513 11.852-5 23.705-7.565 35.557-.259 1.218.052 1.384 1.036 1.33 1.451-.056 2.902-.112 4.327 0 .958.082 1.218-.389 1.373-1.247A5531.89 5531.89 0 0159.43 28.8a84.32 84.32 0 001.347-8.059zm80.208 4.791c-2.487 0-5 .083-7.487-.027-1.27-.056-1.555.415-1.451 1.633.104 1.219.078 2.465 0 3.711-.078 1.052.207 1.412 1.269 1.385 2.824-.083 5.674 0 8.498-.056.803 0 1.088.194 1.036 1.108-.155 4.43-2.047 7.754-5.803 9.498-5.44 2.548-10.984 2.465-16.244-.636-9.248-5.484-9.507-18.582-5.854-25.477 5.077-9.582 17.823-11.548 25.129-3.794.674.692 1.062.72 1.736.11a41.722 41.722 0 013.445-2.769c.778-.553.881-.941.182-1.744-4.197-4.902-9.378-7.311-15.57-7.422-8.238-.138-15.156 2.825-20.233 9.97-3.809 5.344-4.948 11.52-4.327 18.055.777 8.252 4.197 14.898 11.062 19.107 5.674 3.49 11.892 3.85 18.187 2.77 5.622-.97 10.181-3.905 12.979-9.416 2.435-4.79 2.617-9.996 2.332-15.286-.052-.914-.596-.747-1.114-.747-2.565.027-5.182.027-7.772.027z" fill="#fff"/><path d="M60.778 20.741c-.337 2.908-.804 5.484-1.348 8.059a2506.265 2506.265 0 00-4.067 20.16c-.181.858-.414 1.33-1.373 1.246-1.425-.11-2.876-.083-4.327 0-1.01.055-1.32-.138-1.036-1.33 2.565-11.851 5.052-23.704 7.565-35.556.907-4.292 1.813-8.612 2.798-13.32 5.259 12.379 10.829 24.203 15.673 36.581C79.846 24.425 84.975 12.378 90.233.055c1.037 4.68 1.97 9.028 2.928 13.348 2.565 11.797 5.078 23.594 7.668 35.363.259 1.219.026 1.495-1.088 1.44a34.923 34.923 0 00-4.17 0c-.907.055-1.348-.194-1.53-1.246-1.71-9.166-4.17-18.139-5.31-27.415-.026-.305-.13-.582-.156-.693-3.782 10.634-9.248 20.548-13.808 31.431-4.715-10.69-9.585-20.797-13.99-31.542zm80.206 4.791h7.798c.518 0 1.062-.166 1.114.748.285 5.29.104 10.495-2.331 15.286-2.798 5.51-7.358 8.446-12.98 9.415-6.295 1.08-12.487.72-18.186-2.769-6.865-4.21-10.285-10.855-11.062-19.108-.622-6.535.518-12.71 4.326-18.055 5.078-7.145 11.995-10.108 20.233-9.97 6.192.084 11.373 2.493 15.57 7.422.674.803.596 1.163-.181 1.745a43.024 43.024 0 00-3.446 2.77c-.673.608-1.088.58-1.735-.112-7.306-7.753-20.052-5.787-25.13 3.794-3.653 6.896-3.394 19.994 5.855 25.477 5.233 3.102 10.777 3.185 16.243.637 3.757-1.744 5.648-5.095 5.804-9.498.025-.914-.234-1.136-1.037-1.108-2.824.055-5.673-.028-8.497.055-1.036.028-1.321-.36-1.27-1.384.078-1.219.104-2.465 0-3.711-.103-1.246.182-1.69 1.451-1.634 2.461.083 4.974 0 7.461 0zM22.229 26.668c.025-5.65.051-11.299.051-16.948 0-4.902 1.995-7.034 6.58-7.034 4.845 0 9.69.028 14.56-.028 1.01 0 1.296.305 1.296 1.385-.052 5.455 0 10.883-.026 16.338 0 3.85-2.228 6.231-5.83 6.259-5.517.055-11.036.055-16.554.055a.25.25 0 01-.078-.027zm-.001 0l.052.055c.181 6.12.181 12.212 0 18.332-.104 3.296-2.306 5.4-5.363 5.428-5.285.056-10.57 0-15.855.028C.26 50.51 0 50.289 0 49.403c.026-5.65-.026-11.298.026-16.948.026-3.378 2.072-5.732 5.181-5.76 5.674-.138 11.347-.055 17.021-.027z" fill="#533780"/></g><defs><clipPath id="prefix__prefix__prefix__clip0"><path fill="#fff" d="M0 0h150v72H0z"/></clipPath></defs></svg>