<svg width="86" height="41" fill="none" xmlns="http://www.w3.org/2000/svg"><g clip-path="url(#prefix__prefix__prefix__clip0)"><path d="M.668 35.518v-.217c.223.016.668.031 1.337.031.237 0 .653-.015 1.233-.03.03.34.059.62.074.82l-.208.047c-.045-.263-.119-.434-.238-.496-.119-.077-.386-.108-.787-.108-.163 0-.282 0-.371.015h-.03c-.015 0-.015.016-.03.016-.015.015-.015.03-.015.046v1.488h.446c.327 0 .535-.03.624-.077.089-.047.119-.202.119-.434h.208c-.015.186-.015.372-.015.542 0 .14.015.372.03.667h-.208c-.015-.217-.06-.357-.134-.403-.074-.047-.223-.078-.475-.078h-.595v.775c0 .357 0 .59.015.667 0 .046.015.077.03.108s.03.047.06.062l.089.047c.03.015.074.015.133.015.06 0 .119.016.164.016h.222c.387 0 .64-.031.758-.093a.391.391 0 00.163-.155c.045-.062.075-.124.104-.17.015-.047.045-.14.09-.264l.192.046a40.75 40.75 0 01-.178.9c-.133-.016-.742-.032-1.827-.032-.49 0-.817.016-.965.031v-.217c.193-.015.312-.03.371-.077.06-.047.09-.17.09-.357v-2.62c0-.232-.03-.371-.075-.449a2.246 2.246 0 00-.401-.062zm4.797-.031v-.155c.223-.093.446-.201.654-.325l.089.046c-.015.31-.03.574-.03.806v2.542c0 .31.015.496.045.558.03.078.118.109.267.093v.186a3.33 3.33 0 00-.683.124l-.09-.093c0-.046.015-.093.015-.155s.015-.108.015-.155c-.089.078-.163.14-.223.17a1.09 1.09 0 01-.267.14.978.978 0 01-.342.078c-.267 0-.49-.124-.683-.372a1.474 1.474 0 01-.267-.884c0-.387.119-.713.341-.96a1.1 1.1 0 01.847-.388c.208 0 .401.046.594.155v-1.132c0-.124-.015-.201-.044-.232-.015-.031-.104-.047-.238-.047zm.297 3.224v-.914c0-.186-.015-.341-.03-.434a.4.4 0 00-.148-.248.63.63 0 00-.446-.155.652.652 0 00-.534.263c-.149.186-.208.419-.208.729s.074.573.222.76a.692.692 0 00.55.278c.193.031.386-.077.594-.279zm1.07-1.705v-.201c.267 0 .52-.016.758-.062-.015.17-.015.542-.015 1.085 0 .434.015.697.03.806.059.248.207.372.445.372a.72.72 0 00.252-.047.477.477 0 00.179-.093c.03-.03.089-.077.178-.14.015-.325.015-.51.015-.542v-.65c0-.249-.015-.404-.06-.45-.044-.047-.163-.078-.356-.078v-.201c.267 0 .55-.031.861-.078-.014.17-.03.434-.03.806v1.085c0 .17.016.295.06.341.03.047.134.078.297.078v.186a3.882 3.882 0 00-.728.14l-.074-.078c.015-.14.03-.264.045-.372-.104.093-.208.17-.283.232a.96.96 0 01-.55.202.63.63 0 01-.445-.155.674.674 0 01-.178-.264c-.044-.108-.06-.201-.074-.279 0-.077-.015-.186-.015-.31v-.96a.642.642 0 00-.06-.31c-.014-.047-.103-.063-.252-.063zm4.932 1.767l.104.109c-.268.325-.58.48-.936.48-.267 0-.49-.077-.668-.248-.283-.248-.416-.589-.416-1.038 0-.357.118-.667.341-.93.223-.264.52-.388.892-.388.222 0 .4.047.549.14.149.093.223.17.223.248 0 .046-.03.093-.074.14a.208.208 0 01-.149.061c-.03 0-.06-.015-.074-.015a.907.907 0 01-.09-.109c-.118-.17-.252-.248-.43-.248a.664.664 0 00-.505.248c-.149.17-.238.419-.238.775 0 .28.075.527.223.744a.739.739 0 00.639.326c.208-.031.416-.109.609-.295zm2.287.357c.015 0 .09-.031.193-.093l.075.124c-.208.155-.387.232-.52.232-.179 0-.283-.124-.297-.372-.238.28-.476.403-.713.403a.505.505 0 01-.387-.17.575.575 0 01-.148-.419.53.53 0 01.045-.232.44.44 0 01.163-.17c.074-.047.148-.094.193-.11.045-.015.119-.046.238-.092l.623-.233v-.217c0-.124 0-.217-.014-.279a.632.632 0 00-.045-.217.237.237 0 00-.104-.155.359.359 0 00-.193-.046.597.597 0 00-.297.093c-.119.062-.178.14-.178.232-.015.109-.045.186-.104.217a.244.244 0 01-.149.047c-.06 0-.089-.031-.089-.078 0-.077.015-.155.045-.201a1 1 0 01.178-.186c.327-.28.58-.419.757-.419.253 0 .416.062.49.202.075.14.12.372.12.697v1.085c-.06.233 0 .357.118.357zm-.564-.31v-.682c-.03.015-.09.03-.178.062a2.134 2.134 0 00-.416.201.539.539 0 00-.164.155.445.445 0 00-.044.202c0 .093.03.186.089.248.06.062.133.093.237.093.12.015.283-.093.476-.28zm1.069-1.659l.044-.17c.178-.14.312-.264.386-.388.075-.124.149-.279.194-.434h.163l-.015.744h.743l-.09.248h-.668l-.03 1.24c0 .264.015.434.06.512.074.108.193.17.356.17.09 0 .193-.015.297-.062l.06.17c-.268.11-.476.171-.624.171-.178 0-.327-.046-.416-.155a.447.447 0 01-.119-.217c-.015-.077-.015-.232-.015-.434l.03-1.41h-.356v.015zm1.767.031v-.17a3.18 3.18 0 00.668-.326l.104.062c-.015.186-.03.341-.03.496v1.504c0 .17.015.279.045.31.03.03.134.062.312.077v.186c-.312-.015-.505-.03-.564-.03-.06 0-.253.015-.58.03v-.186c.179 0 .283-.03.312-.077.03-.047.06-.17.06-.372v-1.132c0-.14-.03-.248-.06-.294-.044-.047-.133-.078-.267-.078zm.282-1.519a.278.278 0 01-.089-.201c0-.078.03-.14.074-.202a.24.24 0 01.193-.077.3.3 0 01.193.077c.06.062.075.124.075.202a.33.33 0 01-.075.201.24.24 0 01-.193.078.23.23 0 01-.178-.078zm2.407 1.07c.401 0 .713.124.936.387.223.264.327.574.327.946s-.12.697-.357.945a1.206 1.206 0 01-.906.388c-.386 0-.698-.124-.906-.388a1.389 1.389 0 01-.327-.93c0-.403.12-.713.357-.96a1.16 1.16 0 01.876-.388zm-.06.217a.627.627 0 00-.534.279 1.217 1.217 0 00-.208.713c0 .186.03.356.074.527.045.17.149.325.283.465.133.14.297.201.49.201a.614.614 0 00.55-.294c.133-.202.192-.434.192-.729 0-.279-.074-.558-.223-.806-.148-.248-.341-.356-.623-.356zm1.738.232v-.17a2.87 2.87 0 00.653-.326l.104.062c-.014.17-.014.326-.014.45.178-.124.341-.233.46-.295.119-.062.208-.108.252-.124.045-.015.104-.015.164-.015.148 0 .297.046.416.124a.479.479 0 01.237.31c.03.124.045.31.045.527v1.116c0 .124.015.201.06.232.044.031.133.047.296.062v.202c-.207-.016-.4-.031-.564-.031-.178 0-.371.015-.58.03v-.2c.179 0 .283-.032.328-.078.03-.047.044-.186.044-.419v-.868c0-.093 0-.17-.015-.232s-.03-.124-.044-.217a.359.359 0 00-.149-.186.491.491 0 00-.267-.062c-.223 0-.46.108-.683.31l.014 1.38c0 .154.03.263.06.294.03.03.133.062.312.062v.201c-.223-.015-.416-.03-.58-.03-.178 0-.37.015-.579.03v-.201c.163 0 .282-.031.327-.078a.134.134 0 00.045-.093V37.92c0-.356-.015-.557-.045-.635-.045-.062-.134-.093-.297-.093zm4.901 1.938c.015 0 .09-.031.193-.093l.075.124c-.208.155-.387.232-.52.232-.179 0-.282-.124-.297-.372-.238.28-.476.403-.713.403a.505.505 0 01-.387-.17.575.575 0 01-.148-.419c0-.093.015-.17.044-.232a.44.44 0 01.164-.17c.074-.047.148-.094.193-.11.044-.015.119-.046.238-.092l.623-.233v-.217c0-.124 0-.217-.014-.279a.63.63 0 00-.045-.217.237.237 0 00-.104-.155.36.36 0 00-.193-.046.597.597 0 00-.297.093c-.119.062-.178.14-.178.232-.015.109-.045.186-.104.217a.243.243 0 01-.149.047c-.06 0-.089-.031-.089-.078 0-.077.015-.155.045-.201a.998.998 0 01.178-.186c.327-.28.58-.419.757-.419.253 0 .416.062.49.202.075.14.12.372.12.697v1.085c-.06.233 0 .357.118.357zm-.564-.31v-.682c-.03.015-.09.03-.178.062-.09.03-.164.062-.223.093a2.62 2.62 0 00-.193.108.54.54 0 00-.164.155.444.444 0 00-.044.202c0 .093.03.186.089.248.06.062.134.093.238.093.118.015.282-.093.475-.28zm1.114-3.302v-.17c.268-.11.49-.218.654-.326l.119.062c-.015.248-.03.496-.03.713v2.728c0 .186 0 .325.015.434 0 .077.03.124.074.14.045.03.134.046.267.046v.186c-.237-.016-.415-.031-.534-.031-.075 0-.268.015-.61.03v-.185c.179 0 .283-.031.313-.062.03-.047.044-.186.044-.419v-2.728c0-.093-.015-.17-.015-.217 0-.046-.015-.077-.044-.124-.015-.03-.045-.062-.09-.062-.03 0-.088-.015-.163-.015zm4.783 3.612c.015 0 .09-.031.193-.093l.075.124c-.208.155-.387.232-.52.232-.179 0-.282-.124-.297-.372-.238.28-.476.403-.713.403a.505.505 0 01-.386-.17.575.575 0 01-.149-.419.53.53 0 01.045-.232.44.44 0 01.163-.17c.074-.047.148-.094.193-.11.045-.015.119-.046.238-.092l.624-.233v-.217c0-.124 0-.217-.015-.279a.631.631 0 00-.045-.217.238.238 0 00-.104-.155.36.36 0 00-.193-.046.597.597 0 00-.297.093c-.119.062-.178.14-.178.232-.015.109-.045.186-.104.217a.243.243 0 01-.149.047c-.06 0-.089-.031-.089-.078 0-.077.015-.155.045-.201a.998.998 0 01.178-.186c.327-.28.58-.419.757-.419.253 0 .416.062.49.202.075.14.12.372.12.697v1.085c-.045.233.014.357.118.357zm-.564-.31v-.682c-.03.015-.09.03-.178.062a2.134 2.134 0 00-.416.201.538.538 0 00-.164.155.443.443 0 00-.044.202c0 .093.03.186.089.248.06.062.134.093.238.093.118.015.282-.093.475-.28zm1.113-1.628v-.17a2.87 2.87 0 00.654-.326l.104.062c-.015.17-.015.326-.015.45.178-.124.341-.233.46-.295.119-.062.208-.108.253-.124.044-.015.104-.015.163-.015a.77.77 0 01.416.124.479.479 0 01.238.31c.03.124.044.31.044.527v1.116c0 .124.015.201.06.232.044.031.133.047.297.062v.202c-.208-.016-.401-.031-.565-.031-.178 0-.371.015-.58.03v-.2c.18 0 .283-.032.328-.078.03-.047.044-.186.044-.419v-.868c0-.093 0-.17-.015-.232-.014-.062-.03-.124-.044-.217a.359.359 0 00-.149-.186.491.491 0 00-.267-.062c-.223 0-.46.108-.683.31l.015 1.38c0 .154.03.263.059.294.03.03.134.062.312.062v.201c-.223-.015-.416-.03-.58-.03-.178 0-.37.015-.579.03v-.201c.164 0 .283-.031.327-.078a.134.134 0 00.045-.093V37.92c0-.356-.015-.557-.045-.635-.044-.062-.133-.093-.297-.093zm4.56-1.705v-.155c.223-.093.446-.201.654-.325l.089.046c-.015.31-.03.574-.03.806v2.542c0 .31.015.496.045.558.03.078.119.109.267.093v.186a3.33 3.33 0 00-.683.124l-.09-.093c0-.046.016-.093.016-.155s.015-.108.015-.155c-.09.078-.164.14-.223.17-.06.047-.149.094-.268.14a.977.977 0 01-.341.078c-.268 0-.49-.124-.683-.372a1.473 1.473 0 01-.268-.884c0-.387.119-.713.342-.96.223-.264.505-.388.846-.388.208 0 .402.046.595.155v-1.132c0-.124-.015-.201-.045-.232-.015-.031-.104-.047-.238-.047zm.297 3.224v-.914c0-.186-.014-.341-.03-.434a.4.4 0 00-.148-.248.63.63 0 00-.445-.155.652.652 0 00-.535.263c-.149.186-.208.419-.208.729s.074.573.223.76a.692.692 0 00.55.278c.192.031.386-.077.593-.279zm6.21-.589l-.134.946c-.164.077-.312.14-.46.17-.328.093-.625.155-.892.155a2.77 2.77 0 01-.713-.093 1.728 1.728 0 01-.98-.697 2.107 2.107 0 01-.386-1.24c0-.434.089-.806.282-1.132a2.19 2.19 0 01.683-.713 2.087 2.087 0 011.1-.294c.148 0 .296.015.46.046.133.016.43.093.906.233l.074.883-.193.031c-.09-.325-.208-.558-.357-.682-.208-.17-.49-.248-.846-.248a1.4 1.4 0 00-1.1.496c-.296.326-.445.76-.445 1.287 0 .542.149.992.446 1.333.297.34.668.511 1.129.511.326 0 .594-.077.802-.232.208-.17.356-.434.415-.775l.208.015zm1.693-1.379c.4 0 .713.124.936.387.222.264.326.574.326.946s-.118.697-.356.945a1.206 1.206 0 01-.906.388c-.386 0-.698-.124-.906-.388a1.389 1.389 0 01-.327-.93c0-.403.119-.713.356-.96.238-.264.535-.388.877-.388zm-.045.217a.627.627 0 00-.535.279 1.217 1.217 0 00-.207.713c0 .186.03.356.074.527.044.17.148.325.282.465.134.14.297.201.49.201a.614.614 0 00.55-.294c.133-.202.193-.434.193-.729 0-.279-.074-.558-.223-.806a.692.692 0 00-.624-.356zm1.738 1.643l.163-.016c.045.17.09.28.119.341a.43.43 0 00.386.233.454.454 0 00.312-.109.358.358 0 00.134-.279.335.335 0 00-.09-.248c-.059-.062-.207-.17-.415-.325a1.574 1.574 0 01-.268-.202.622.622 0 01-.163-.217.585.585 0 01-.074-.325c0-.217.074-.388.208-.512a.73.73 0 01.505-.186c.133 0 .326.031.564.109l.045.527-.149.03c-.089-.294-.238-.449-.446-.449a.341.341 0 00-.252.093.315.315 0 00-.104.248c0 .078.015.14.06.202.044.062.089.108.133.155.045.03.104.077.193.14.164.108.282.185.357.247.074.062.133.14.193.233s.089.217.089.34a.66.66 0 01-.238.543.86.86 0 01-.55.202 1.75 1.75 0 01-.623-.14l-.09-.635zm1.946-1.395v-.17c.208-.078.416-.187.653-.326l.12.062c-.016.17-.03.294-.03.387.059-.046.133-.093.207-.14.253-.154.446-.232.594-.232.194 0 .342.047.446.14a.597.597 0 01.193.294c.223-.155.401-.279.52-.325a.755.755 0 01.342-.093c.222 0 .4.077.534.217.09.093.134.217.149.34.015.125.03.373.03.73v.62c0 .216.014.34.044.387.03.046.134.077.297.077v.202c-.312-.016-.505-.031-.579-.031-.149 0-.342.015-.565.03v-.2c.15 0 .253-.016.298-.047.044-.031.074-.124.074-.248v-.636c0-.45-.015-.713-.06-.821-.074-.202-.222-.31-.43-.31-.193 0-.401.093-.639.294.015.078.015.233.015.48v.869c0 .186.015.31.06.356.029.047.133.062.296.062v.202c-.222-.016-.4-.031-.534-.031-.179 0-.372.015-.58.03v-.2c.164 0 .268-.032.297-.078.03-.062.045-.217.045-.496v-.543c0-.372-.015-.604-.06-.682-.074-.17-.222-.248-.43-.248-.149 0-.357.078-.624.248v1.504c0 .14.015.217.06.248.03.03.133.046.296.046v.202c-.222-.016-.4-.031-.564-.031-.178 0-.371.015-.594.03v-.2c.163 0 .282-.016.327-.063.044-.046.074-.263.074-.666v-.45c0-.31-.015-.496-.015-.542-.015-.109-.044-.17-.074-.186 0-.047-.074-.062-.193-.062zm6.149.558h-1.263c-.014.046-.014.108-.014.17 0 .202.03.372.089.512.074.17.178.294.327.403a.834.834 0 00.475.155.912.912 0 00.58-.202l.088.124a1.371 1.371 0 01-.312.264 1.123 1.123 0 01-.579.155.987.987 0 01-.758-.357c-.208-.232-.297-.527-.297-.883 0-.403.104-.729.327-.977.223-.248.49-.387.802-.387.223 0 .416.062.565.201.148.14.222.31.222.527 0 .062 0 .124-.014.155-.015.047-.03.062-.06.078-.03.015-.044.03-.074.03-.015.032-.045.032-.104.032zm-1.203-.217h.936c.03 0 .059-.016.074-.016s.03-.015.044-.046c.015-.016.015-.047.015-.093a.382.382 0 00-.104-.28.427.427 0 00-.326-.123c-.312 0-.535.186-.64.558zm1.87-.388l.045-.17c.178-.14.312-.264.386-.388.075-.124.149-.279.193-.434h.164l-.015.744h.742l-.089.248h-.668l-.03 1.24c0 .264.015.434.06.512.074.108.193.17.356.17.09 0 .193-.015.297-.062l.06.17c-.268.11-.476.171-.624.171-.178 0-.327-.046-.416-.155a.447.447 0 01-.119-.217c-.015-.077-.015-.232-.015-.434l.03-1.41h-.357v.015zm2.986-.418c.401 0 .713.124.936.387.223.264.327.574.327.946s-.12.697-.357.945a1.206 1.206 0 01-.906.388c-.386 0-.698-.124-.906-.388a1.389 1.389 0 01-.327-.93c0-.403.12-.713.357-.96a1.11 1.11 0 01.876-.388zm-.06.217a.627.627 0 00-.534.279 1.217 1.217 0 00-.208.713c0 .186.03.356.074.527.045.17.149.325.283.465.133.14.297.201.49.201a.614.614 0 00.55-.294c.133-.202.193-.434.193-.729 0-.279-.075-.558-.223-.806a.676.676 0 00-.624-.356zm1.754-1.442v-.17c.267-.11.49-.218.653-.326l.12.062c-.016.248-.03.496-.03.713v2.728c0 .186 0 .325.014.434 0 .077.03.124.075.14.044.03.133.046.267.046v.186c-.238-.016-.416-.031-.535-.031-.074 0-.267.015-.609.03v-.185c.178 0 .282-.031.312-.062.03-.047.045-.186.045-.419v-2.728c0-.093-.015-.17-.015-.217 0-.046-.015-.077-.045-.124-.015-.03-.044-.062-.089-.062-.03 0-.089-.015-.163-.015zm2.702 1.225c.402 0 .714.124.936.387.223.264.327.574.327.946s-.119.697-.356.945a1.206 1.206 0 01-.906.388c-.386 0-.698-.124-.906-.388a1.389 1.389 0 01-.327-.93c0-.403.119-.713.356-.96.238-.264.535-.388.877-.388zm-.044.217a.627.627 0 00-.535.279 1.217 1.217 0 00-.208.713c0 .186.03.356.075.527.044.17.148.325.282.465.134.14.297.201.49.201a.614.614 0 00.55-.294c.133-.202.193-.434.193-.729 0-.279-.075-.558-.223-.806a.692.692 0 00-.624-.356zm4.011.03v.218h-.55c.06.124.09.263.09.372 0 .263-.104.48-.297.635-.149.124-.372.186-.654.186-.163.155-.252.264-.252.341 0 .078.044.124.119.155.03.016.104.016.222.031.12 0 .238.016.357.016h.237c.431.03.654.217.654.542 0 .28-.134.543-.416.79a1.378 1.378 0 01-.965.373c-.283 0-.49-.078-.654-.217a.68.68 0 01-.238-.543c0-.062.015-.14.03-.232a3.43 3.43 0 01.267-.341l.12-.124c-.12-.109-.179-.217-.179-.326 0-.015 0-.046.015-.077l.445-.434c-.356-.155-.534-.419-.534-.775 0-.233.089-.434.252-.59.164-.154.387-.232.654-.232.252 0 .445.078.594.233h.683zm-1.767 2.28a.748.748 0 00-.178.449c0 .17.074.325.207.434.149.124.327.17.565.17a.862.862 0 00.52-.155c.148-.108.222-.232.222-.403a.58.58 0 00-.03-.17c-.059-.124-.207-.202-.445-.217-.044 0-.104-.016-.178-.016s-.134-.015-.163-.015c-.253-.016-.416-.031-.52-.078zm.43-2.341a.436.436 0 00-.297.155.644.644 0 00-.118.403c0 .186.044.356.118.496.075.14.194.201.342.201a.35.35 0 00.312-.155.705.705 0 00.104-.403c0-.248-.045-.434-.134-.542-.089-.109-.208-.17-.327-.155zm1.337.061v-.185c.178.015.386.03.61.03.177 0 .356 0 .534-.03v.201c-.06 0-.104 0-.119.016-.015 0-.045.015-.09.015a.158.158 0 00-.073.047c-.015.015-.015.046-.015.077s.03.124.089.295l.475 1.286.223-.62c.193-.465.282-.775.282-.93 0-.124-.104-.186-.297-.186v-.201c.149.015.327.03.505.03.104 0 .267 0 .475-.03v.201a.556.556 0 00-.282.093c-.06.047-.119.155-.193.31l-.683 1.845a7.612 7.612 0 01-.475 1.038c-.134.202-.268.295-.431.295a.29.29 0 01-.193-.062.254.254 0 01-.075-.17c0-.156.104-.233.297-.264a.585.585 0 00.298-.124c.074-.062.148-.202.237-.434l.104-.233-.698-1.813c-.089-.233-.148-.372-.208-.419-.03-.046-.133-.062-.297-.077zm7.887 1.132l-.134.946c-.163.077-.312.14-.46.17-.327.093-.624.155-.891.155a2.77 2.77 0 01-.713-.093 1.728 1.728 0 01-.98-.697 2.107 2.107 0 01-.387-1.24c0-.434.09-.806.283-1.132a2.19 2.19 0 01.683-.713 2.087 2.087 0 011.099-.294c.148 0 .297.015.46.046.134.016.431.093.906.233l.075.883-.193.031c-.09-.325-.208-.558-.357-.682-.208-.17-.49-.248-.846-.248a1.4 1.4 0 00-1.1.496c-.297.326-.445.76-.445 1.287 0 .542.148.992.445 1.333.297.34.669.511 1.13.511.326 0 .593-.077.801-.232.208-.17.357-.434.416-.775l.208.015zm2.109-.356H74.77c-.015.046-.015.108-.015.17 0 .202.03.372.09.512.074.17.178.294.326.403a.834.834 0 00.475.155.912.912 0 00.58-.202l.089.124a1.371 1.371 0 01-.312.264 1.123 1.123 0 01-.58.155c-.296 0-.549-.124-.757-.357-.208-.232-.297-.527-.297-.883 0-.403.104-.729.327-.977.223-.248.49-.387.802-.387.223 0 .416.062.564.201.149.14.223.31.223.527 0 .062 0 .124-.015.155-.014.047-.03.062-.06.078-.029.015-.044.03-.073.03-.015.032-.045.032-.104.032zm-1.203-.217h.935c.03 0 .06-.016.075-.016.014 0 .03-.015.044-.046.015-.016.015-.047.015-.093a.382.382 0 00-.104-.28.427.427 0 00-.327-.123c-.312 0-.534.186-.638.558zm1.916-.357v-.17a2.87 2.87 0 00.654-.326l.104.062c-.015.17-.015.326-.015.45.178-.124.342-.233.46-.295.12-.062.209-.108.253-.124.045-.015.104-.015.163-.015.149 0 .298.046.416.124a.479.479 0 01.238.31c.03.124.045.31.045.527v1.116c0 .124.014.201.059.232s.134.047.297.062v.202c-.208-.016-.401-.031-.564-.031-.179 0-.372.015-.58.03v-.2c.179 0 .283-.032.327-.078.03-.047.045-.186.045-.419v-.868c0-.093 0-.17-.015-.232s-.03-.124-.045-.217a.359.359 0 00-.148-.186.492.492 0 00-.268-.062c-.222 0-.46.108-.683.31l.015 1.38c0 .154.03.263.06.294.03.03.133.062.311.062v.201c-.222-.015-.415-.03-.579-.03-.178 0-.371.015-.58.03v-.201c.164 0 .283-.031.328-.078a.132.132 0 00.044-.093V37.92c0-.356-.015-.557-.044-.635-.06-.062-.149-.093-.297-.093zm3-.031l.045-.17c.178-.14.312-.264.386-.388a1.93 1.93 0 00.193-.434h.163l-.014.744h.742l-.089.248h-.668l-.03 1.24c0 .264.015.434.06.512.074.108.192.17.356.17a.72.72 0 00.297-.062l.06.17c-.268.11-.476.171-.625.171-.178 0-.326-.046-.415-.155a.447.447 0 01-.12-.217c-.014-.077-.014-.232-.014-.434l.03-1.41h-.357v.015zm3.402.605h-1.263c-.014.046-.014.108-.014.17 0 .202.03.372.089.512.074.17.178.294.327.403a.833.833 0 00.475.155.912.912 0 00.579-.202l.09.124a1.373 1.373 0 01-.313.264 1.123 1.123 0 01-.579.155.987.987 0 01-.758-.357c-.208-.232-.297-.527-.297-.883 0-.403.104-.729.327-.977.223-.248.49-.387.802-.387.223 0 .416.062.565.201.148.14.222.31.222.527 0 .062 0 .124-.014.155-.015.047-.03.062-.06.078-.03.015-.044.03-.074.03-.015.032-.06.032-.104.032zm-1.218-.217h.936c.03 0 .06-.016.074-.016.015 0 .03-.015.045-.046.014-.016.014-.047.014-.093a.382.382 0 00-.104-.28.427.427 0 00-.326-.123c-.312 0-.52.186-.639.558zm1.93-.357v-.17c.238-.093.461-.202.654-.326l.06.031v.543c.044-.062.074-.124.089-.14.014-.03.06-.077.118-.155a.727.727 0 01.209-.17.692.692 0 01.267-.047c.133 0 .208.062.208.17a.726.726 0 01-.045.202c-.03.093-.074.14-.119.14l-.104-.031a.843.843 0 00-.207-.031c-.238 0-.387.155-.416.45-.015.139-.015.495-.015 1.084 0 .17.015.28.06.341.044.047.148.078.326.078v.186c-.342-.016-.55-.031-.61-.031-.044 0-.237.015-.563.03v-.185a.89.89 0 00.267-.031c.044-.016.074-.062.089-.14.015-.093.015-.232.015-.418v-.822c-.015-.248-.03-.403-.06-.45.015-.077-.074-.092-.222-.108z" fill="#141414"/><path d="M12.744 15.26c-3.253-.016-6.506-.062-9.744-.016-1.782.031-2.956 1.349-2.97 3.224-.03 3.162 0 6.324-.015 9.486 0 .496.148.62.609.62 3.03-.015 6.06 0 9.09-.015 1.752-.016 3.015-1.194 3.074-3.038a168.77 168.77 0 000-10.261c3.164-.016 6.328-.016 9.492-.031 2.079-.016 3.342-1.349 3.342-3.503.014-3.054-.015-6.092.014-9.145 0-.605-.163-.775-.742-.775-2.778.03-5.555.015-8.348.015-2.629 0-3.758 1.194-3.772 3.937 0 3.178-.015 6.34-.03 9.502zm22.101-3.317c2.525 6.014 5.318 11.671 8.006 17.639 2.614-6.092 5.763-11.625 7.917-17.593.015.062.074.217.089.388.654 5.192 2.08 10.214 3.045 15.345.119.589.356.728.876.697a20.514 20.514 0 012.392 0c.638.047.772-.108.623-.806-1.485-6.587-2.94-13.206-4.396-19.793A1086.92 1086.92 0 0051.718.349c-3.015 6.913-5.956 13.64-8.926 20.444C40.029 13.88 36.82 7.262 33.82.333c-.564 2.635-1.084 5.038-1.604 7.456-1.44 6.634-2.867 13.268-4.337 19.902-.149.682.03.775.594.744.832-.031 1.664-.062 2.48 0 .55.046.699-.217.788-.698a3053.42 3053.42 0 012.332-11.284c.312-1.426.58-2.883.772-4.51zm45.985 2.681c-1.425 0-2.866.047-4.292-.015-.728-.031-.891.232-.832.914.06.682.045 1.38 0 2.077-.044.59.12.79.728.775 1.62-.046 3.253 0 4.872-.03.46 0 .624.108.594.62-.089 2.48-1.173 4.34-3.327 5.316-3.12 1.426-6.298 1.38-9.313-.357-5.303-3.069-5.451-10.4-3.357-14.26 2.911-5.363 10.22-6.463 14.408-2.123.386.387.609.403.995.062a23.762 23.762 0 011.975-1.55c.446-.31.505-.527.104-.977C80.98 2.333 78.008.984 74.46.922c-4.724-.077-8.69 1.581-11.6 5.58-2.184 2.992-2.838 6.448-2.481 10.106.445 4.62 2.406 8.34 6.342 10.695 3.253 1.953 6.818 2.155 10.427 1.55 3.223-.542 5.837-2.185 7.441-5.27 1.397-2.681 1.5-5.595 1.337-8.556-.03-.511-.341-.418-.638-.418-1.47.015-2.971.015-4.456.015z" fill="#fff"/><path d="M34.846 11.943a47.004 47.004 0 01-.772 4.51c-.787 3.751-1.575 7.518-2.332 11.284-.104.48-.238.744-.787.698a18.923 18.923 0 00-2.48 0c-.58.03-.758-.078-.595-.744 1.47-6.634 2.896-13.268 4.337-19.902.52-2.403 1.04-4.82 1.604-7.456 3.016 6.929 6.209 13.547 8.987 20.476 2.97-6.805 5.911-13.547 8.926-20.445.594 2.62 1.13 5.053 1.679 7.471 1.47 6.603 2.911 13.206 4.396 19.794.149.682.015.837-.623.806a20.514 20.514 0 00-2.392 0c-.52.03-.772-.109-.876-.698-.98-5.13-2.392-10.152-3.045-15.345-.015-.17-.074-.325-.09-.387-2.168 5.952-5.302 11.5-7.916 17.592-2.703-5.983-5.496-11.64-8.02-17.654zm45.985 2.681h4.471c.297 0 .61-.093.639.419.163 2.96.06 5.874-1.337 8.556-1.604 3.084-4.218 4.727-7.441 5.27-3.61.604-7.16.403-10.427-1.55-3.936-2.356-5.897-6.076-6.343-10.695-.356-3.658.297-7.115 2.48-10.106 2.912-4 6.878-5.658 11.601-5.58 3.55.046 6.52 1.395 8.927 4.154.386.45.342.65-.104.976a24.595 24.595 0 00-1.975 1.55c-.387.341-.624.326-.996-.062-4.188-4.34-11.496-3.24-14.407 2.124-2.094 3.86-1.946 11.19 3.357 14.26 3 1.736 6.179 1.782 9.313.356 2.153-.976 3.238-2.852 3.327-5.316.015-.512-.134-.636-.594-.62-1.62.03-3.253-.016-4.872.03-.594.016-.758-.2-.728-.774.044-.682.06-1.38 0-2.077-.06-.698.104-.946.832-.915 1.41.047 2.852 0 4.277 0zm-68.087.636c.015-3.162.03-6.324.03-9.486 0-2.744 1.144-3.937 3.773-3.937 2.777 0 5.555.015 8.347-.016.58 0 .743.17.743.775-.03 3.054 0 6.092-.015 9.145 0 2.155-1.277 3.488-3.342 3.503-3.164.031-6.328.031-9.491.031-.015 0-.045-.015-.045-.015z" fill="#533780"/><path d="M12.744 15.26l.03.03a168.77 168.77 0 010 10.262c-.06 1.844-1.322 3.022-3.075 3.038-3.03.03-6.06 0-9.09.015-.46 0-.609-.124-.609-.62.015-3.162-.015-6.324.015-9.486.015-1.89 1.188-3.208 2.97-3.224 3.253-.077 6.506-.03 9.759-.015z" fill="#533780"/></g><defs><clipPath id="prefix__prefix__prefix__clip0"><path fill="#fff" transform="translate(0 .333)" d="M0 0h86v40.3H0z"/></clipPath></defs></svg>