<svg width="53" height="60" fill="none" xmlns="http://www.w3.org/2000/svg"><g filter="url(#prefix__filter0_d)"><path fill-rule="evenodd" clip-rule="evenodd" d="M26.3 47.108l-1.018 1.52-.006-.003-.012-.009-.042-.028a34.678 34.678 0 01-.703-.496 57.486 57.486 0 01-7.773-6.83c-4.182-4.428-8.718-10.827-8.708-17.966a18.297 18.297 0 0136.592.053c-.01 7.14-4.564 13.525-8.76 17.941a57.497 57.497 0 01-7.793 6.807 34.52 34.52 0 01-.704.494l-.042.028-.012.009-.004.002s-.003.002-1.015-1.522zm0 0l1.012 1.524a1.831 1.831 0 01-2.03-.004l1.018-1.52z" fill="#383058"/></g><path d="M17 28.616v7.182h6.968c.568 0 1.113-.233 1.516-.647.402-.415.63-.979.63-1.566V26.4h-6.967c-.282 0-.56.057-.821.168-.26.111-.497.274-.696.48-.2.206-.358.45-.466.719a2.285 2.285 0 00-.164.849zM28.262 17c-.568 0-1.114.232-1.516.647-.403.415-.63.978-.63 1.566V26.4h6.967c.282 0 .56-.056.82-.167.261-.11.498-.274.697-.48.2-.205.358-.449.466-.718.108-.268.163-.557.164-.848V17h-6.968z" fill="#fff"/><defs><filter id="prefix__filter0_d" x=".037" y=".026" width="52.593" height="59.911" filterUnits="userSpaceOnUse" color-interpolation-filters="sRGB"><feFlood flood-opacity="0" result="BackgroundImageFix"/><feColorMatrix in="SourceAlpha" values="0 0 0 0 0 0 0 0 0 0 0 0 0 0 0 0 0 0 127 0"/><feOffset dy="3"/><feGaussianBlur stdDeviation="4"/><feColorMatrix values="0 0 0 0 0 0 0 0 0 0 0 0 0 0 0 0 0 0 0.25 0"/><feBlend in2="BackgroundImageFix" result="effect1_dropShadow"/><feBlend in="SourceGraphic" in2="effect1_dropShadow" result="shape"/></filter></defs></svg>