<svg width="287" height="133" fill="none" xmlns="http://www.w3.org/2000/svg"><g clip-path="url(#prefix__clip0)"><path d="M2.23 116.118v-.716c.744.051 2.231.103 4.462.103.793 0 2.18-.052 4.114-.103.099 1.126.198 2.046.248 2.711l-.694.154c-.149-.87-.397-1.432-.793-1.637-.397-.256-1.29-.358-2.628-.358-.545 0-.941 0-1.239.051h-.099c-.05 0-.05.051-.099.051-.05.051-.05.103-.05.154v4.91H6.94c1.09 0 1.785-.102 2.082-.255.298-.154.397-.665.397-1.433h.694c-.05.614-.05 1.228-.05 1.791 0 .46.05 1.227.1 2.199h-.695c-.05-.716-.198-1.176-.446-1.33-.248-.153-.743-.255-1.586-.255H5.452v2.557c0 1.177 0 1.944.05 2.2 0 .153.05.256.1.358.049.102.098.154.197.205l.298.153c.099.051.248.051.446.051s.396.051.545.051h.744c1.288 0 2.131-.102 2.528-.306.198-.103.396-.256.545-.512.149-.205.248-.409.347-.563.05-.153.149-.46.297-.869l.645.153c-.05.307-.248 1.279-.595 2.967-.446-.051-2.479-.102-6.097-.102-1.636 0-2.726.051-3.222.102v-.716c.644-.051 1.041-.102 1.24-.256.198-.153.297-.563.297-1.176v-8.645c0-.768-.1-1.228-.248-1.484a7.659 7.659 0 00-1.339-.205zM18.24 116.016v-.511a17.398 17.398 0 002.182-1.074l.297.153c-.05 1.023-.099 1.893-.099 2.66v8.389c0 1.023.05 1.637.149 1.842.099.256.396.358.892.307v.614c-.793.051-1.537.204-2.28.409l-.298-.307c0-.154.05-.307.05-.512 0-.204.05-.358.05-.511-.298.256-.546.46-.744.563-.198.153-.496.306-.892.46-.397.153-.793.256-1.14.256-.893 0-1.636-.41-2.28-1.228-.595-.818-.893-1.79-.893-2.916 0-1.279.397-2.353 1.14-3.171.744-.819 1.686-1.279 2.826-1.279.694 0 1.338.153 1.983.511v-3.734c0-.409-.05-.665-.15-.767-.049-.102-.346-.154-.792-.154zm.992 10.64v-3.018c0-.614-.05-1.125-.099-1.432-.05-.307-.198-.563-.496-.818-.396-.358-.892-.512-1.487-.512-.743 0-1.338.307-1.784.87-.496.614-.694 1.381-.694 2.404s.248 1.893.743 2.506c.496.614 1.14.921 1.834.921.645.102 1.29-.256 1.983-.921zM22.8 121.03v-.665c.893 0 1.736-.051 2.529-.204-.05.562-.05 1.79-.05 3.58 0 1.433.05 2.302.1 2.66.198.819.693 1.228 1.486 1.228.298 0 .546-.051.843-.153.297-.103.496-.205.595-.307.099-.103.297-.256.595-.461.05-1.074.05-1.688.05-1.79v-2.149c0-.818-.05-1.33-.199-1.483-.149-.154-.545-.256-1.19-.256v-.665c.893 0 1.834-.102 2.875-.256-.05.563-.099 1.433-.099 2.66v3.581c0 .563.05.972.198 1.126.1.153.447.255.992.255v.614c-.694.051-1.487.205-2.43.461l-.247-.256c.05-.461.1-.87.149-1.228-.347.307-.694.563-.942.767-.644.461-1.289.665-1.834.665-.595 0-1.09-.153-1.487-.511-.248-.205-.446-.512-.595-.87-.149-.358-.198-.665-.248-.921 0-.255-.05-.613-.05-1.023v-3.171c0-.512-.098-.87-.198-1.023-.05-.154-.346-.205-.842-.205zM39.26 126.861l.346.358c-.892 1.074-1.933 1.586-3.122 1.586-.892 0-1.636-.256-2.23-.819-.943-.818-1.389-1.944-1.389-3.427 0-1.177.397-2.2 1.14-3.069.744-.87 1.735-1.279 2.974-1.279.744 0 1.339.153 1.834.46.496.307.744.563.744.819 0 .153-.1.307-.248.46a.696.696 0 01-.496.205c-.099 0-.198-.051-.247-.051-.05-.052-.15-.154-.298-.358-.396-.563-.843-.819-1.437-.819-.595 0-1.19.256-1.686.819-.495.562-.793 1.381-.793 2.557 0 .921.248 1.739.744 2.456.496.716 1.239 1.074 2.131 1.074.694-.102 1.388-.358 2.033-.972zM46.892 128.038c.05 0 .298-.102.645-.307l.248.41c-.694.511-1.29.767-1.735.767-.595 0-.942-.409-.992-1.228-.793.921-1.586 1.33-2.379 1.33-.545 0-.942-.204-1.289-.563-.347-.358-.495-.818-.495-1.381 0-.307.05-.562.148-.767.1-.205.298-.409.546-.563.247-.153.495-.307.644-.358.149-.051.396-.153.793-.307l2.082-.767v-.716c0-.409 0-.716-.05-.921 0-.205-.05-.46-.148-.716a.786.786 0 00-.347-.512c-.15-.102-.397-.153-.645-.153-.297 0-.644.102-.991.307-.397.204-.595.46-.595.767-.05.358-.149.614-.347.716a.815.815 0 01-.496.154c-.198 0-.297-.103-.297-.256 0-.256.05-.512.149-.665.099-.153.297-.358.594-.614 1.091-.921 1.934-1.381 2.528-1.381.843 0 1.388.205 1.636.665.248.46.397 1.228.397 2.302v3.581c-.199.767 0 1.176.396 1.176zm-1.883-1.023v-2.251c-.1.052-.298.103-.595.205a5.662 5.662 0 00-.744.307 8.78 8.78 0 00-.644.358 1.78 1.78 0 00-.545.512c-.1.204-.149.409-.149.665 0 .306.1.613.297.818.199.205.447.307.794.307.396.051.941-.307 1.586-.921zM48.574 121.541l.149-.562c.595-.461 1.04-.87 1.289-1.279.248-.409.495-.921.644-1.432h.545l-.05 2.455h2.48l-.298.818h-2.23l-.1 4.093c0 .869.05 1.432.198 1.688.248.358.645.563 1.19.563.297 0 .644-.052.991-.205l.199.563c-.893.358-1.587.562-2.082.562-.595 0-1.09-.153-1.388-.511a1.476 1.476 0 01-.397-.716c-.05-.256-.05-.768-.05-1.433l.1-4.655h-1.19v.051zM54.477 121.643v-.562c.644-.205 1.388-.563 2.23-1.075l.347.205c-.05.614-.099 1.125-.099 1.637v4.962c0 .562.05.921.149 1.023.1.102.446.204 1.04.256v.613c-1.04-.051-1.684-.102-1.883-.102-.198 0-.842.051-1.933.102v-.613c.595 0 .942-.103 1.041-.256.1-.154.198-.563.198-1.228v-3.734c0-.46-.099-.819-.198-.972-.149-.153-.446-.256-.892-.256zm.942-5.013c-.199-.204-.298-.409-.298-.665 0-.256.1-.46.248-.665.198-.204.397-.256.644-.256.248 0 .447.103.645.256.198.205.248.409.248.665 0 .256-.1.461-.248.665-.198.205-.397.256-.645.256a.772.772 0 01-.594-.256zM63.448 120.16c1.339 0 2.38.409 3.123 1.279.743.869 1.09 1.892 1.09 3.12 0 1.228-.396 2.302-1.19 3.12-.792.819-1.784 1.279-3.023 1.279-1.289 0-2.33-.409-3.023-1.279-.744-.869-1.091-1.892-1.091-3.069 0-1.33.396-2.353 1.19-3.171.793-.819 1.734-1.279 2.924-1.279zm-.198.716c-.744 0-1.339.307-1.785.921-.446.613-.694 1.432-.694 2.353 0 .613.1 1.176.248 1.739.149.563.496 1.074.942 1.534.446.461.992.665 1.636.665.793 0 1.388-.306 1.834-.971.446-.665.644-1.433.644-2.405 0-.92-.248-1.841-.743-2.66-.496-.818-1.14-1.176-2.082-1.176zM69.048 121.643v-.562a9.615 9.615 0 002.181-1.075l.347.205c-.05.563-.05 1.074-.05 1.483.596-.409 1.14-.767 1.537-.972.397-.204.694-.358.843-.409.149-.051.347-.051.545-.051.496 0 .992.154 1.388.409.446.256.694.614.793 1.023.1.41.149 1.023.149 1.74v3.683c0 .409.05.665.198.767.149.102.446.153.992.205v.665c-.694-.052-1.339-.103-1.884-.103-.595 0-1.24.051-1.933.103v-.665c.595 0 .942-.103 1.09-.256.1-.154.15-.614.15-1.381v-2.865c0-.307 0-.563-.05-.767-.05-.205-.1-.409-.15-.716a1.184 1.184 0 00-.495-.614c-.248-.154-.545-.205-.892-.205-.744 0-1.537.358-2.28 1.023l.05 4.553c0 .511.099.87.198.972.099.102.446.204 1.04.204v.665c-.743-.051-1.387-.102-1.933-.102-.594 0-1.239.051-1.933.102v-.665c.546 0 .942-.102 1.09-.255.1-.103.15-.205.15-.307v-3.428c0-1.176-.05-1.841-.15-2.097-.148-.204-.445-.307-.99-.307zM85.406 128.038c.05 0 .297-.102.644-.307l.248.41c-.694.511-1.289.767-1.735.767-.594 0-.942-.409-.991-1.228-.793.921-1.586 1.33-2.38 1.33-.545 0-.941-.204-1.288-.563-.347-.358-.496-.818-.496-1.381 0-.307.05-.562.149-.767.099-.205.297-.409.545-.563.248-.153.496-.307.644-.358.15-.051.397-.153.794-.307l2.081-.767v-.716c0-.409 0-.716-.05-.921 0-.205-.049-.46-.148-.716a.786.786 0 00-.347-.512c-.148-.102-.396-.153-.644-.153-.298 0-.645.102-.992.307-.396.204-.594.46-.594.767-.05.358-.149.614-.347.716a.815.815 0 01-.496.154c-.198 0-.297-.103-.297-.256 0-.256.05-.512.148-.665.1-.153.298-.358.595-.614 1.09-.921 1.933-1.381 2.528-1.381.843 0 1.388.205 1.636.665.248.46.396 1.228.396 2.302v3.581c-.198.767 0 1.176.397 1.176zm-1.884-1.023v-2.251c-.099.052-.297.103-.595.205a5.668 5.668 0 00-.743.307 8.8 8.8 0 00-.644.358 1.78 1.78 0 00-.546.512 1.45 1.45 0 00-.148.665c0 .306.099.613.297.818.198.205.446.307.793.307.397.051.942-.307 1.586-.921zM87.237 116.118v-.562c.892-.358 1.635-.716 2.18-1.075l.397.205c-.05.819-.099 1.637-.099 2.353v9.003c0 .614 0 1.074.05 1.433 0 .255.099.409.247.46.15.102.447.153.893.153v.614c-.793-.051-1.388-.102-1.785-.102-.248 0-.892.051-2.032.102v-.614c.595 0 .942-.102 1.04-.204.1-.154.15-.614.15-1.381V117.5c0-.307-.05-.563-.05-.717 0-.153-.05-.255-.149-.409-.05-.102-.148-.204-.297-.204-.1 0-.298-.052-.545-.052zM103.201 128.038c.049 0 .297-.102.644-.307l.248.41c-.694.511-1.289.767-1.735.767-.595 0-.942-.409-.991-1.228-.793.921-1.586 1.33-2.38 1.33-.545 0-.941-.204-1.288-.563-.347-.358-.496-.818-.496-1.381 0-.307.05-.562.149-.767.099-.205.297-.409.545-.563.248-.153.496-.307.644-.358.15-.051.397-.153.794-.307l2.081-.767v-.716c0-.409 0-.716-.049-.921 0-.205-.05-.46-.149-.716a.783.783 0 00-.347-.512c-.149-.102-.396-.153-.644-.153-.298 0-.645.102-.992.307-.396.204-.594.46-.594.767-.05.358-.15.614-.347.716a.815.815 0 01-.496.154c-.198 0-.297-.103-.297-.256 0-.256.05-.512.148-.665.1-.153.298-.358.595-.614 1.09-.921 1.933-1.381 2.528-1.381.843 0 1.388.205 1.636.665.248.46.396 1.228.396 2.302v3.581c-.148.767.05 1.176.397 1.176zm-1.884-1.023v-2.251c-.099.052-.297.103-.595.205a5.672 5.672 0 00-.743.307 8.82 8.82 0 00-.644.358 1.78 1.78 0 00-.546.512c-.099.204-.148.409-.148.665 0 .306.099.613.297.818.198.205.446.307.793.307.397.051.942-.307 1.586-.921zM105.033 121.643v-.562a9.625 9.625 0 002.181-1.075l.347.205c-.05.563-.05 1.074-.05 1.483.595-.409 1.14-.767 1.537-.972.396-.204.694-.358.842-.409.149-.051.347-.051.546-.051.495 0 .991.154 1.388.409.446.256.694.614.793 1.023.099.41.148 1.023.148 1.74v3.683c0 .409.05.665.199.767.148.102.446.153.991.205v.665c-.694-.052-1.338-.103-1.884-.103-.594 0-1.239.051-1.933.103v-.665c.595 0 .942-.103 1.091-.256.099-.154.148-.614.148-1.381v-2.865c0-.307 0-.563-.049-.767a8.493 8.493 0 01-.149-.716 1.186 1.186 0 00-.495-.614c-.248-.154-.546-.205-.893-.205-.743 0-1.536.358-2.28 1.023l.05 4.553c0 .511.099.87.198.972.099.102.446.204 1.041.204v.665c-.744-.051-1.388-.102-1.933-.102-.595 0-1.239.051-1.933.102v-.665c.545 0 .941-.102 1.09-.255.099-.103.149-.205.149-.307v-3.428c0-1.176-.05-1.841-.149-2.097-.149-.204-.446-.307-.991-.307zM120.252 116.016v-.511a17.364 17.364 0 002.181-1.074l.298.153c-.05 1.023-.099 1.893-.099 2.66v8.389c0 1.023.049 1.637.148 1.842.1.256.397.358.893.307v.614c-.793.051-1.537.204-2.28.409l-.298-.307c0-.154.05-.307.05-.512 0-.204.049-.358.049-.511-.297.256-.545.46-.743.563-.199.153-.496.306-.892.46-.397.153-.794.256-1.141.256-.892 0-1.635-.41-2.28-1.228-.594-.818-.892-1.79-.892-2.916 0-1.279.397-2.353 1.14-3.171.744-.87 1.685-1.279 2.826-1.279.693 0 1.338.153 1.982.511v-3.734c0-.409-.049-.665-.148-.767-.05-.102-.347-.154-.794-.154zm.992 10.64v-3.018c0-.614-.05-1.125-.099-1.432-.05-.307-.199-.563-.496-.818-.397-.358-.892-.512-1.487-.512-.744 0-1.338.307-1.784.87-.496.614-.694 1.381-.694 2.404s.247 1.893.743 2.506c.496.614 1.14.921 1.834.921.644.102 1.289-.256 1.983-.921zM141.963 124.712l-.446 3.121c-.546.255-1.041.46-1.537.562-1.09.307-2.082.512-2.974.512a9.471 9.471 0 01-2.379-.307c-1.339-.358-2.429-1.125-3.272-2.302-.842-1.177-1.289-2.558-1.289-4.092 0-1.433.298-2.66.942-3.735.645-1.023 1.388-1.79 2.28-2.353 1.041-.613 2.231-.972 3.668-.972.496 0 .992.052 1.537.154.446.051 1.438.307 3.024.767l.248 2.916-.645.102c-.297-1.074-.694-1.841-1.19-2.25-.693-.563-1.635-.819-2.825-.819-1.487 0-2.726.563-3.668 1.637-.991 1.074-1.487 2.507-1.487 4.246 0 1.79.496 3.274 1.487 4.399.991 1.125 2.231 1.688 3.767 1.688 1.091 0 1.983-.256 2.677-.767.694-.563 1.19-1.433 1.388-2.558l.694.051zM147.614 120.16c1.338 0 2.379.409 3.123 1.279.743.869 1.09 1.892 1.09 3.12 0 1.228-.396 2.302-1.189 3.12-.793.819-1.785 1.279-3.024 1.279-1.289 0-2.33-.409-3.023-1.279-.744-.869-1.091-1.892-1.091-3.069 0-1.33.397-2.353 1.19-3.171.793-.87 1.784-1.279 2.924-1.279zm-.149.716c-.743 0-1.338.307-1.784.921-.446.613-.694 1.432-.694 2.353 0 .613.099 1.176.248 1.739.149.563.496 1.074.942 1.534.446.461.991.665 1.635.665.794 0 1.388-.306 1.834-.971.447-.665.645-1.433.645-2.405 0-.92-.248-1.841-.744-2.66-.446-.767-1.189-1.176-2.082-1.176zM153.266 126.298l.545-.051c.149.563.297.921.396 1.126.298.511.744.767 1.289.767.397 0 .744-.102 1.041-.358.297-.256.446-.563.446-.921 0-.358-.099-.614-.297-.818-.198-.205-.694-.563-1.388-1.075-.397-.255-.694-.46-.892-.665-.199-.153-.397-.409-.546-.716-.198-.307-.247-.665-.247-1.074 0-.716.247-1.279.694-1.688.446-.409 1.04-.614 1.685-.614.446 0 1.09.102 1.883.358l.149 1.739-.496.103c-.297-.972-.793-1.484-1.487-1.484-.347 0-.644.102-.842.307-.248.205-.347.512-.347.818 0 .256.049.461.198.665.149.205.297.359.446.512.149.102.347.256.645.46.545.358.941.614 1.189.819.248.204.446.46.645.767.198.307.297.716.297 1.126 0 .767-.248 1.33-.793 1.79a2.89 2.89 0 01-1.834.665c-.595 0-1.289-.153-2.082-.46l-.297-2.098zM159.758 121.695v-.563c.694-.256 1.388-.614 2.181-1.074l.396.204c-.049.563-.099.972-.099 1.279a8.53 8.53 0 01.694-.46c.843-.512 1.487-.768 1.983-.768.644 0 1.14.154 1.487.461.347.307.545.614.644.972.744-.512 1.339-.921 1.735-1.075.397-.204.793-.306 1.14-.306.744 0 1.339.255 1.785.716.297.307.446.716.496 1.125.049.409.099 1.228.099 2.404v2.046c0 .717.049 1.126.148 1.279.1.154.447.256.992.256v.665c-1.041-.051-1.686-.102-1.933-.102-.496 0-1.14.051-1.884.102v-.665c.496 0 .843-.051.991-.153.149-.103.248-.41.248-.819v-2.097c0-1.484-.049-2.353-.198-2.711-.248-.665-.744-1.023-1.438-1.023-.644 0-1.338.307-2.131.972.05.255.05.767.05 1.585v2.865c0 .614.049 1.023.198 1.176.099.154.446.205.991.205v.665c-.743-.051-1.338-.102-1.784-.102-.595 0-1.239.051-1.933.102v-.665c.545 0 .892-.102.991-.256.099-.204.149-.716.149-1.637v-1.79c0-1.228-.05-1.995-.199-2.251-.247-.562-.743-.818-1.437-.818-.496 0-1.19.256-2.082.818v4.962c0 .461.05.716.198.819.099.102.446.153.992.153v.665c-.744-.051-1.339-.102-1.884-.102-.595 0-1.239.051-1.983.102v-.665c.546 0 .942-.051 1.091-.205.149-.153.248-.869.248-2.199v-1.484c0-1.023-.05-1.637-.05-1.79-.049-.358-.149-.563-.248-.614 0-.153-.248-.204-.644-.204zM180.28 123.536h-4.213c-.05.153-.05.358-.05.563 0 .665.099 1.227.298 1.688.248.562.595.971 1.09 1.33.446.306.992.511 1.586.511a3.07 3.07 0 001.934-.665l.297.409c-.396.41-.743.716-1.041.87-.595.358-1.289.511-1.933.511-.991 0-1.834-.409-2.528-1.176-.694-.767-.991-1.739-.991-2.916 0-1.33.347-2.404 1.09-3.222.744-.819 1.636-1.279 2.677-1.279.743 0 1.388.204 1.883.665.496.46.744 1.023.744 1.739 0 .205 0 .409-.05.511-.049.154-.099.205-.198.256-.099.051-.149.103-.248.103-.049.102-.148.102-.347.102zm-4.015-.716h3.123c.099 0 .198-.051.248-.051.049 0 .099-.052.149-.154.049-.051.049-.153.049-.307 0-.358-.099-.665-.347-.921-.248-.255-.595-.409-1.09-.409-1.041 0-1.785.614-2.132 1.842zM182.512 121.541l.148-.562c.595-.461 1.041-.87 1.289-1.279.248-.409.496-.921.645-1.432h.545l-.05 2.455h2.479l-.298.818h-2.23l-.099 4.093c0 .869.049 1.432.198 1.688.248.358.644.563 1.189.563.298 0 .645-.052.992-.205l.198.563c-.892.358-1.586.562-2.082.562-.595 0-1.09-.153-1.388-.511a1.472 1.472 0 01-.396-.716c-.05-.256-.05-.768-.05-1.433l.099-4.655h-1.189v.051zM192.472 120.16c1.338 0 2.379.409 3.122 1.279.744.869 1.091 1.892 1.091 3.12 0 1.228-.397 2.302-1.19 3.12-.793.819-1.784 1.279-3.023 1.279-1.289 0-2.33-.409-3.024-1.279-.744-.869-1.091-1.892-1.091-3.069 0-1.33.397-2.353 1.19-3.171.793-.87 1.735-1.279 2.925-1.279zm-.199.716c-.743 0-1.338.307-1.784.921-.446.613-.694 1.432-.694 2.353 0 .613.099 1.176.248 1.739.148.563.495 1.074.942 1.534.446.461.991.665 1.635.665.793 0 1.388-.306 1.834-.971.446-.665.645-1.433.645-2.405 0-.92-.248-1.841-.744-2.66-.446-.767-1.14-1.176-2.082-1.176zM198.127 116.118v-.562c.892-.358 1.636-.716 2.181-1.075l.397.205c-.05.819-.099 1.637-.099 2.353v9.003c0 .614 0 1.074.049 1.433 0 .255.099.409.248.46.149.102.446.153.892.153v.614c-.793-.051-1.388-.102-1.784-.102-.248 0-.892.051-2.032.102v-.614c.594 0 .941-.102 1.04-.204.1-.154.149-.614.149-1.381V117.5c0-.307-.049-.563-.049-.717 0-.153-.05-.255-.149-.409-.05-.102-.149-.204-.298-.204-.099 0-.297-.052-.545-.052zM207.143 120.16c1.339 0 2.38.409 3.123 1.279.744.869 1.091 1.892 1.091 3.12 0 1.228-.397 2.302-1.19 3.12-.793.819-1.784 1.279-3.024 1.279-1.288 0-2.329-.409-3.023-1.279-.744-.869-1.091-1.892-1.091-3.069 0-1.33.397-2.353 1.19-3.171.793-.87 1.784-1.279 2.924-1.279zm-.148.716c-.744 0-1.339.307-1.785.921-.446.613-.694 1.432-.694 2.353 0 .613.099 1.176.248 1.739.149.563.496 1.074.942 1.534.446.461.991.665 1.636.665.793 0 1.388-.306 1.834-.971.446-.665.644-1.433.644-2.405a5.14 5.14 0 00-.743-2.66c-.447-.767-1.19-1.176-2.082-1.176zM220.379 120.978v.716h-1.834c.198.41.297.87.297 1.228 0 .87-.347 1.586-.991 2.097-.496.41-1.24.614-2.181.614-.546.512-.843.87-.843 1.126 0 .255.149.409.397.511.099.051.347.051.743.102.397 0 .793.052 1.19.052h.793c1.437.102 2.181.716 2.181 1.79 0 .921-.446 1.79-1.388 2.609-.892.818-1.983 1.228-3.222 1.228-.942 0-1.636-.256-2.181-.717-.545-.46-.793-1.074-.793-1.79 0-.205.049-.46.099-.767.198-.307.496-.665.892-1.126l.397-.409c-.397-.358-.595-.716-.595-1.074 0-.051 0-.154.05-.256l1.487-1.432c-1.19-.512-1.785-1.381-1.785-2.558 0-.767.298-1.432.843-1.944.545-.511 1.289-.767 2.181-.767.842 0 1.487.256 1.983.767h2.28zm-5.899 7.52c-.396.511-.595 1.023-.595 1.483 0 .563.248 1.075.694 1.433.496.409 1.091.562 1.884.562.644 0 1.239-.153 1.735-.511.495-.358.743-.768.743-1.33a1.88 1.88 0 00-.099-.563c-.198-.409-.694-.665-1.487-.716-.149 0-.347-.051-.595-.051s-.446-.051-.545-.051c-.843-.052-1.388-.103-1.735-.256zm1.438-7.724c-.397.051-.744.204-.992.511-.248.307-.396.767-.396 1.33 0 .614.148 1.177.396 1.637.248.46.645.665 1.14.665.446 0 .793-.153 1.041-.511.248-.359.347-.819.347-1.33 0-.819-.149-1.433-.446-1.791-.297-.358-.694-.563-1.09-.511zM220.381 120.978v-.614a23.56 23.56 0 002.032.103c.595 0 1.19 0 1.785-.103v.665c-.199 0-.347 0-.397.051-.049 0-.149.052-.297.052a.524.524 0 00-.248.153c-.05.051-.05.153-.05.256 0 .102.099.409.298.972l1.586 4.245.743-2.046c.645-1.534.942-2.557.942-3.069 0-.409-.347-.614-.991-.614v-.665c.495.051 1.09.103 1.685.103.347 0 .892 0 1.586-.103v.665c-.446.051-.743.154-.941.307-.199.154-.397.512-.645 1.023l-2.28 6.088c-.644 1.636-1.19 2.762-1.586 3.427-.446.665-.892.972-1.438.972-.248 0-.446-.051-.644-.205a.83.83 0 01-.248-.562c0-.512.347-.768.991-.87.397-.051.744-.205.992-.409.248-.205.496-.665.793-1.433l.347-.767-2.33-5.985c-.297-.767-.496-1.228-.694-1.381-.099-.154-.446-.205-.991-.256zM246.701 124.712l-.446 3.121c-.545.255-1.041.46-1.537.562-1.09.307-2.082.512-2.974.512a9.471 9.471 0 01-2.379-.307c-1.338-.358-2.429-1.125-3.272-2.302-.842-1.177-1.288-2.558-1.288-4.092 0-1.433.297-2.66.941-3.735.645-1.023 1.388-1.79 2.281-2.353 1.041-.613 2.23-.972 3.668-.972.495 0 .991.052 1.536.154.446.051 1.438.307 3.024.767l.248 2.916-.645.102c-.297-1.074-.694-1.841-1.189-2.25-.694-.563-1.636-.819-2.826-.819-1.487 0-2.726.563-3.668 1.637-.991 1.074-1.487 2.507-1.487 4.246 0 1.79.496 3.274 1.487 4.399.992 1.125 2.231 1.688 3.767 1.688 1.091 0 1.983-.256 2.677-.767.694-.563 1.19-1.433 1.388-2.558l.694.051zM253.739 123.536h-4.213c-.05.153-.05.358-.05.563 0 .665.099 1.227.298 1.688.248.562.594.971 1.09 1.33.446.306.992.511 1.586.511.694 0 1.339-.205 1.933-.665l.298.409c-.397.41-.744.716-1.041.87-.595.358-1.289.511-1.933.511-.992 0-1.834-.409-2.528-1.176-.694-.767-.991-1.739-.991-2.916 0-1.33.346-2.404 1.09-3.222.744-.819 1.636-1.279 2.677-1.279.743 0 1.388.204 1.883.665.496.46.744 1.023.744 1.739 0 .205 0 .409-.05.511-.049.154-.099.205-.198.256-.099.051-.149.103-.248.103-.05.102-.149.102-.347.102zm-4.015-.716h3.123c.099 0 .198-.051.248-.051.049 0 .099-.052.148-.154.05-.051.05-.153.05-.307 0-.358-.099-.665-.347-.921-.248-.255-.595-.409-1.09-.409-1.041 0-1.785.614-2.132 1.842zM256.119 121.643v-.562a9.625 9.625 0 002.181-1.075l.347.205c-.05.563-.05 1.074-.05 1.483.595-.409 1.14-.767 1.537-.972.396-.204.694-.358.842-.409.149-.051.347-.051.546-.051.495 0 .991.154 1.388.409.446.256.693.614.793 1.023.099.41.148 1.023.148 1.74v3.683c0 .409.05.665.199.767.148.102.446.153.991.205v.665c-.694-.052-1.338-.103-1.884-.103-.594 0-1.239.051-1.933.103v-.665c.595 0 .942-.103 1.091-.256.099-.154.148-.614.148-1.381v-2.865c0-.307 0-.563-.049-.767a8.493 8.493 0 01-.149-.716 1.183 1.183 0 00-.496-.614c-.247-.154-.545-.205-.892-.205-.743 0-1.536.358-2.28 1.023l.05 4.553c0 .511.099.87.198.972.099.102.446.204 1.041.204v.665c-.744-.051-1.388-.102-1.933-.102-.595 0-1.24.051-1.933.102v-.665c.545 0 .941-.102 1.09-.255.099-.103.149-.205.149-.307v-3.428c0-1.176-.05-1.841-.149-2.097-.198-.204-.496-.307-.991-.307zM266.131 121.541l.149-.562c.594-.461 1.04-.87 1.288-1.279.248-.409.496-.921.645-1.432h.545l-.05 2.455h2.479l-.298.818h-2.23l-.099 4.093c0 .869.049 1.432.198 1.688.248.358.644.563 1.19.563.297 0 .644-.052.991-.205l.198.563c-.892.358-1.586.562-2.082.562-.594 0-1.09-.153-1.388-.511a1.472 1.472 0 01-.396-.716c-.05-.256-.05-.768-.05-1.433l.099-4.655h-1.189v.051zM277.483 123.536h-4.213c-.05.153-.05.358-.05.563 0 .665.1 1.227.298 1.688.248.562.595.971 1.09 1.33.446.306.992.511 1.586.511a3.07 3.07 0 001.934-.665l.297.409c-.396.41-.743.716-1.041.87-.595.358-1.289.511-1.933.511-.991 0-1.834-.409-2.528-1.176-.694-.767-.991-1.739-.991-2.916 0-1.33.347-2.404 1.09-3.222.744-.819 1.636-1.279 2.677-1.279.743 0 1.388.204 1.883.665.496.46.744 1.023.744 1.739 0 .205 0 .409-.05.511-.049.154-.099.205-.198.256-.099.051-.149.103-.248.103-.049.102-.198.102-.347.102zm-4.064-.716h3.122c.1 0 .199-.051.248-.051.05 0 .099-.052.149-.154.05-.051.05-.153.05-.307 0-.358-.1-.665-.347-.921-.248-.255-.595-.409-1.091-.409-1.041 0-1.735.614-2.131 1.842zM279.862 121.643v-.562a12.473 12.473 0 002.181-1.075l.198.103v1.79c.149-.205.248-.409.298-.46.049-.103.198-.256.396-.512s.446-.409.694-.563a2.34 2.34 0 01.892-.153c.446 0 .694.205.694.563 0 .153-.049.358-.148.665-.1.307-.248.46-.397.46l-.347-.102a2.845 2.845 0 00-.694-.103c-.793 0-1.289.512-1.388 1.484-.049.46-.049 1.637-.049 3.581 0 .562.049.92.198 1.125.149.153.496.256 1.09.256v.614c-1.14-.052-1.834-.103-2.032-.103-.149 0-.793.051-1.884.103v-.614c.447 0 .744-.051.893-.103.148-.051.248-.204.297-.46.05-.307.05-.767.05-1.381v-2.711c-.05-.819-.099-1.33-.199-1.484.05-.255-.247-.307-.743-.358z" fill="#141414"/><path d="M42.53 49.261c-10.855-.05-21.71-.204-32.516-.05C4.066 49.312.15 53.66.1 59.85.001 70.285.1 80.72.05 91.155c0 1.637.496 2.047 2.033 2.047 10.112-.052 20.224 0 30.336-.052 5.849-.05 10.062-3.938 10.26-10.026a551.088 551.088 0 000-33.864c10.558-.05 21.116-.05 31.675-.102 6.94-.051 11.152-4.45 11.152-11.56.05-10.078-.05-20.104.05-30.181 0-1.995-.545-2.558-2.478-2.558-9.27.102-18.539.051-27.858.051-8.773 0-12.54 3.939-12.59 12.993 0 10.487-.05 20.922-.1 31.357zM116.287 38.314c8.427 19.848 17.746 38.52 26.718 58.213 8.724-20.103 19.232-38.365 26.419-58.06.05.205.248.717.298 1.28 2.181 17.136 6.939 33.71 10.161 50.642.397 1.944 1.19 2.404 2.925 2.302a69.199 69.199 0 017.98 0c2.132.153 2.578-.358 2.082-2.66-4.957-21.74-9.814-43.583-14.672-65.324-1.784-8.03-3.619-16.01-5.601-24.656-10.063 22.815-19.877 45.015-29.791 67.472C133.587 44.71 122.88 22.866 112.867 0c-1.884 8.696-3.618 16.625-5.353 24.605-4.808 21.894-9.567 43.788-14.474 65.681-.496 2.251.099 2.558 1.982 2.456 2.776-.102 5.552-.205 8.278 0 1.834.153 2.33-.716 2.628-2.302 2.577-12.43 5.155-24.81 7.782-37.24 1.041-4.706 1.933-9.515 2.577-14.886zM269.751 47.164c-4.759 0-9.567.154-14.325-.051-2.429-.102-2.975.767-2.776 3.018.198 2.25.148 4.553 0 6.855-.149 1.944.396 2.608 2.429 2.557 5.403-.153 10.855 0 16.258-.102 1.537 0 2.082.358 1.983 2.046-.298 8.185-3.916 14.323-11.104 17.546-10.409 4.706-21.016 4.553-31.079-1.177-17.696-10.128-18.191-34.324-11.202-47.061 9.715-17.7 34.103-21.331 48.081-7.008 1.289 1.279 2.032 1.33 3.321.204a79.012 79.012 0 016.593-5.115c1.487-1.023 1.685-1.74.347-3.223C270.246 6.6 260.333 2.15 248.486 1.944c-15.763-.256-28.997 5.218-38.713 18.416-7.286 9.872-9.467 21.28-8.278 33.352 1.487 15.244 8.03 27.52 21.166 35.296 10.855 6.445 22.752 7.11 34.797 5.115 10.756-1.79 19.48-7.212 24.834-17.392 4.659-8.85 5.006-18.466 4.461-28.237-.099-1.688-1.14-1.381-2.132-1.381-4.907.051-9.913.051-14.87.051z" fill="#fff"/><path d="M116.288 38.314c-.644 5.371-1.537 10.129-2.577 14.886-2.628 12.38-5.255 24.81-7.783 37.24-.347 1.586-.793 2.455-2.627 2.302-2.726-.205-5.502-.154-8.278 0-1.933.102-2.528-.256-1.982-2.456 4.907-21.893 9.665-43.787 14.474-65.681 1.734-7.929 3.469-15.909 5.353-24.605 10.062 22.866 20.719 44.709 29.989 67.574 9.913-22.456 19.728-44.708 29.79-67.472 1.983 8.645 3.767 16.677 5.601 24.657 4.908 21.791 9.716 43.582 14.673 65.323.495 2.25.049 2.762-2.082 2.66a69.216 69.216 0 00-7.981 0c-1.735.102-2.577-.358-2.924-2.302-3.272-16.932-7.981-33.506-10.162-50.642-.049-.563-.248-1.075-.297-1.28-7.237 19.644-17.696 37.957-26.42 58.06-9.021-19.745-18.34-38.416-26.767-58.264zM269.748 47.164h14.92c.992 0 2.033-.307 2.132 1.381.545 9.77.198 19.388-4.461 28.237-5.354 10.18-14.078 15.602-24.834 17.393-12.045 1.995-23.892 1.33-34.797-5.116-13.136-7.775-19.679-20.052-21.166-35.296-1.189-12.072.992-23.48 8.278-33.352 9.716-13.198 22.95-18.671 38.713-18.416 11.847.154 21.76 4.604 29.79 13.71 1.289 1.483 1.141 2.148-.346 3.222a81.865 81.865 0 00-6.593 5.116c-1.289 1.125-2.082 1.074-3.321-.205-13.978-14.323-38.366-10.691-48.081 7.008-6.989 12.737-6.494 36.933 11.202 47.062 10.013 5.729 20.62 5.882 31.079 1.176 7.188-3.222 10.806-9.412 11.104-17.546.049-1.688-.446-2.097-1.983-2.046-5.403.103-10.856-.05-16.258.103-1.983.05-2.528-.665-2.429-2.558.148-2.25.198-4.553 0-6.855-.199-2.302.347-3.12 2.776-3.018 4.709.154 9.517 0 14.275 0zM42.53 49.26c.049-10.435.098-20.87.098-31.306 0-9.054 3.817-12.993 12.59-12.993 9.27 0 18.54.051 27.858-.05 1.933 0 2.479.562 2.479 2.557-.1 10.077 0 20.103-.05 30.18 0 7.111-4.263 11.51-11.153 11.561-10.558.103-21.116.103-31.674.103-.05 0-.149-.051-.149-.051z" fill="#533780"/><path d="M42.53 49.26l.099.103a551.088 551.088 0 010 33.864c-.199 6.087-4.412 9.975-10.261 10.026-10.112.103-20.224 0-30.336.051C.496 93.304 0 92.895 0 91.258c.05-10.435-.05-20.87.05-31.306.05-6.24 3.965-10.589 9.913-10.64 10.856-.256 21.711-.102 32.566-.051z" fill="#533780"/></g><defs><clipPath id="prefix__clip0"><path fill="#fff" d="M0 0h287v133H0z"/></clipPath></defs></svg>