<svg width="21" height="16" fill="none" xmlns="http://www.w3.org/2000/svg"><path d="M.457.969a.4.4 0 00-.4.4V14.63c0 .221.179.4.4.4h14.447a.4.4 0 00.287-.12l4.808-4.941a.4.4 0 00.113-.28V1.37a.4.4 0 00-.4-.4H.457zm15.641 11.326a.4.4 0 01-.686-.28v-1.271a.4.4 0 01.4-.4h1.238a.4.4 0 01.287.679l-1.239 1.272zm2.84-3.523a.4.4 0 01-.4.4h-3.901a.4.4 0 00-.4.4v3.887a.4.4 0 01-.4.4H1.632a.4.4 0 01-.4-.4V2.541c0-.221.179-.4.4-.4h16.905c.221 0 .4.179.4.4v6.23z" fill="#868686"/><path d="M9.346 4.939l-5.309 5.294a.399.399 0 000 .565l.265.264c.156.156.41.156.566 0l5.31-5.294a.399.399 0 000-.565l-.265-.264a.401.401 0 00-.567 0zM9.456 8.586c-.972 0-1.763.788-1.763 1.758a1.762 1.762 0 003.526 0c0-.97-.791-1.758-1.763-1.758zm0 2.344a.587.587 0 01-.588-.586.587.587 0 011.176 0 .587.587 0 01-.588.586zM4.757 3.898c-.972 0-1.763.789-1.763 1.758a1.762 1.762 0 003.526 0c0-.969-.791-1.758-1.763-1.758zm0 2.344a.587.587 0 01-.588-.586.587.587 0 011.175 0 .587.587 0 01-.587.586zM16.773 6.242h-3.979a.4.4 0 00-.4.4v.372c0 .221.18.4.4.4h3.98a.4.4 0 00.4-.4v-.372a.4.4 0 00-.4-.4zM16.773 3.898h-3.979a.4.4 0 00-.4.4v.372c0 .221.18.4.4.4h3.98a.4.4 0 00.4-.4v-.372a.4.4 0 00-.4-.4z" fill="#868686"/></svg>