<svg width="134" height="22" fill="none" xmlns="http://www.w3.org/2000/svg"><path d="M8.553 6.862l2.42-5.602 2.421 5.602a.9.9 0 00.742.539l6.076.571-4.58 4.033a.9.9 0 00-.283.872l1.334 5.955-5.25-3.109a.9.9 0 00-.918 0l-5.25 3.109 1.334-5.955a.9.9 0 00-.284-.872l-4.58-4.033 6.076-.571a.9.9 0 00.742-.54zM36.5 6.862l2.42-5.602 2.422 5.602a.9.9 0 00.742.539l6.075.571-4.58 4.033a.9.9 0 00-.283.872l1.334 5.955-5.25-3.109a.9.9 0 00-.918 0l-5.25 3.109 1.334-5.955a.9.9 0 00-.284-.872l-4.579-4.033 6.075-.571a.9.9 0 00.742-.54zM64.448 6.862l2.42-5.602 2.42 5.602a.9.9 0 00.743.539l6.075.571-4.58 4.033a.9.9 0 00-.283.872l1.335 5.955-5.251-3.109a.9.9 0 00-.917 0l-5.251 3.109 1.334-5.955a.9.9 0 00-.283-.872l-4.58-4.033 6.076-.571a.9.9 0 00.742-.54zM92.395 6.862l2.42-5.602 2.421 5.602a.9.9 0 00.742.539l6.075.571-4.579 4.033a.9.9 0 00-.283.872l1.334 5.955-5.251-3.109a.9.9 0 00-.917 0l-5.25 3.109 1.333-5.955a.9.9 0 00-.283-.872l-4.58-4.033 6.076-.571a.9.9 0 00.742-.54zM120.342 6.862l2.421-5.602 2.42 5.602a.901.901 0 00.742.539l6.076.571-4.58 4.033a.9.9 0 00-.283.872l1.334 5.955-5.251-3.109a.9.9 0 00-.917 0l-5.251 3.109 1.335-5.955a.901.901 0 00-.284-.872l-4.579-4.033 6.075-.571a.9.9 0 00.742-.54z" stroke="#533780"/></svg>