<svg width="18" height="18" fill="none" xmlns="http://www.w3.org/2000/svg"><g clip-path="url(#prefix__clip0)"><path d="M8.965 7.102a.703.703 0 110 1.406.703.703 0 010-1.406zm2.46.703a.703.703 0 101.407 0 .703.703 0 00-1.406 0zm-6.327 0a.703.703 0 101.406 0 .703.703 0 00-1.406 0zm12.284 6.594a2.112 2.112 0 010 2.983 2.103 2.103 0 01-1.491.617c-.54 0-1.08-.206-1.492-.617l-3.86-3.851a.703.703 0 01-.176-.293l-.84-2.768a.703.703 0 01.86-.882l2.838.786a.703.703 0 01.309.18l3.852 3.845zm-5.725-1.739l2.605 2.599.995-.995-2.59-2.584-1.427-.395.417 1.375zm4.73 2.733l-.135-.135-.994.994.135.135a.704.704 0 00.995-.994zm-6.996-.822a8.51 8.51 0 01-3.626-.617.704.704 0 00-.54.003l-3.201 1.351 1.079-2.555a.703.703 0 00-.123-.741c-1.03-1.157-1.574-2.54-1.574-4.002C1.406 4.37 4.813 1.406 9 1.406s7.594 2.963 7.594 6.604c0 .864-.212 1.73-.63 2.577a.703.703 0 101.26.623c.515-1.042.776-2.118.776-3.2C18 3.593 13.963 0 9 0S0 3.593 0 8.01c0 1.667.565 3.246 1.64 4.593L.055 16.355a.703.703 0 00.922.922l4.532-1.914a9.934 9.934 0 003.944.613.703.703 0 00-.062-1.405z" fill="#8D8D8D"/></g><defs><clipPath id="prefix__clip0"><path fill="#fff" d="M0 0h18v18H0z"/></clipPath></defs></svg>