<svg width="18" height="18" fill="none" xmlns="http://www.w3.org/2000/svg"><path fill-rule="evenodd" clip-rule="evenodd" d="M2.909 1.409A2.25 2.25 0 014.5.75h6a.75.75 0 01.53.22l4.5 4.5c.141.14.22.331.22.53v9a2.25 2.25 0 01-2.25 2.25h-9A2.25 2.25 0 012.25 15V3c0-.597.237-1.169.659-1.591zM4.5 2.25a.75.75 0 00-.75.75v12a.75.75 0 00.75.75h9a.75.75 0 00.75-.75V6.31l-4.06-4.06H4.5z" fill="#8D8D8D"/><path fill-rule="evenodd" clip-rule="evenodd" d="M10.5.75a.75.75 0 01.75.75v3.75H15a.75.75 0 010 1.5h-4.5A.75.75 0 019.75 6V1.5a.75.75 0 01.75-.75zM5.25 9.75A.75.75 0 016 9h6a.75.75 0 010 1.5H6a.75.75 0 01-.75-.75zM5.25 12.75A.75.75 0 016 12h6a.75.75 0 010 1.5H6a.75.75 0 01-.75-.75zM5.25 6.75A.75.75 0 016 6h1.5a.75.75 0 010 1.5H6a.75.75 0 01-.75-.75z" fill="#8D8D8D"/></svg>