<svg width="304" height="101" fill="none" xmlns="http://www.w3.org/2000/svg"><g filter="url(#prefix__filter0_b)"><mask id="prefix__a" fill="#fff"><path fill-rule="evenodd" clip-rule="evenodd" d="M276.02 5H0v80c0 8.837 7.163 16 16 16h268c8.837 0 16-7.163 16-16V28c-12.92 0-23.455-10.209-23.98-23z"/></mask><path fill-rule="evenodd" clip-rule="evenodd" d="M276.02 5H0v80c0 8.837 7.163 16 16 16h268c8.837 0 16-7.163 16-16V28c-12.92 0-23.455-10.209-23.98-23z" fill="#F7F6FF" fill-opacity=".1"/><path d="M0 5V3h-2v2h2zm276.02 0l1.999-.082L277.94 3h-1.92v2zM300 28h2v-2h-2v2zM0 7h276.02V3H0v4zm2 78V5h-4v80h4zm14 14C8.268 99 2 92.732 2 85h-4c0 9.941 8.059 18 18 18v-4zm268 0H16v4h268v-4zm14-14c0 7.732-6.268 14-14 14v4c9.941 0 18-8.059 18-18h-4zm0-57v57h4V28h-4zm2-2c-11.843 0-21.501-9.358-21.981-21.082l-3.997.164C274.59 18.94 286.003 30 300 30v-4z" fill="url(#prefix__paint0_linear)" fill-opacity=".1" mask="url(#prefix__a)"/></g><g filter="url(#prefix__filter1_b)"><rect x="285" width="19" height="19" rx="9.5" fill="#F7F6FF" fill-opacity=".1"/><rect x="285.5" y=".5" width="18" height="18" rx="9" stroke="#fff" stroke-opacity=".1"/></g><defs><filter id="prefix__filter0_b" x="-36" y="-31" width="372" height="168" filterUnits="userSpaceOnUse" color-interpolation-filters="sRGB"><feFlood flood-opacity="0" result="BackgroundImageFix"/><feGaussianBlur in="BackgroundImage" stdDeviation="18"/><feComposite in2="SourceAlpha" operator="in" result="effect1_backgroundBlur"/><feBlend in="SourceGraphic" in2="effect1_backgroundBlur" result="shape"/></filter><filter id="prefix__filter1_b" x="249" y="-36" width="91" height="91" filterUnits="userSpaceOnUse" color-interpolation-filters="sRGB"><feFlood flood-opacity="0" result="BackgroundImageFix"/><feGaussianBlur in="BackgroundImage" stdDeviation="18"/><feComposite in2="SourceAlpha" operator="in" result="effect1_backgroundBlur"/><feBlend in="SourceGraphic" in2="effect1_backgroundBlur" result="shape"/></filter><linearGradient id="prefix__paint0_linear" x1="77.143" y1="13.229" x2="113.294" y2="238.338" gradientUnits="userSpaceOnUse"><stop stop-color="#fff"/><stop offset="1" stop-color="#fff" stop-opacity="0"/></linearGradient></defs></svg>