<svg width="79" height="79" fill="none" xmlns="http://www.w3.org/2000/svg"><path d="M0 0h63c8.837 0 16 7.163 16 16v47c0 8.837-7.163 16-16 16H16C7.163 79 0 71.837 0 63V0z" fill="#383058" fill-opacity=".3"/><path d="M7.473 7.473h56.054a8 8 0 018 8v48.054a8 8 0 01-8 8H15.473a8 8 0 01-8-8V7.473z" fill="#383058"/><g clip-path="url(#prefix__clip0)"><path d="M57.179 35.024c-.038.014-2.184.798-5.282 1.606 1.33-4.029 1.03-8.399-.59-12.313-2.507.823-4.893 2.088-6.82 3.881-.881-2.47-2.5-4.683-4.453-6.502-1.953 1.82-3.572 4.032-4.453 6.503-1.929-1.793-4.315-3.06-6.82-3.882-1.62 3.914-1.92 8.285-.59 12.313-4.713-1.294-4.53-1.358-6.82-2.173l.062 1.637c.232 3.653 3.51 8.747 10.516 10.147 2.89.746 4.483 1.157 4.483 4.52v7.61h7.244v-7.61c0-3.363 1.592-3.774 4.483-4.52 7.04-1.404 10.295-6.543 10.517-10.147l.06-1.637-1.537.567zm-7.208-7.84c.944 3.301.707 6.913-.648 10.065-1.404.308-2.913.59-4.453.796.675-2.367.779-5.009.294-7.436a15.212 15.212 0 014.807-3.424zm-9.937-2.317c4.29 4.875 4.29 12.815 0 17.69-4.29-4.875-4.29-12.815 0-17.69zm-9.937 2.318c1.81.817 3.45 1.984 4.807 3.423-.485 2.428-.381 5.07.293 7.437a55.099 55.099 0 01-4.454-.797 15.05 15.05 0 01-.646-10.063zM41.46 56.176h-2.854v-4.317h2.854v4.317zM55.85 38.207c-.744 1.663-1.99 3.065-3.702 4.168-3.975 2.602-10.008 1.191-10.631 7.289H38.55c-.626-6.1-6.654-4.686-10.632-7.289-1.873-1.212-3.178-2.75-3.9-4.654 2.501.795 7.155 2.11 12.032 2.64.9 2.017 2.347 3.828 3.983 5.367 1.636-1.54 3.083-3.35 3.983-5.368 4.877-.53 9.53-1.844 12.032-2.639a8.342 8.342 0 01-.2.486z" fill="#fff"/></g><defs><clipPath id="prefix__clip0"><path fill="#fff" transform="translate(21.352 21.351)" d="M0 0h37.365v37.365H0z"/></clipPath></defs></svg>