<svg width="18" height="19" fill="none" xmlns="http://www.w3.org/2000/svg"><g clip-path="url(#prefix__clip0)" fill="#533780"><path d="M16.134 2.844h-1.13V1.95a.47.47 0 00-.469-.469.47.47 0 00-.469.469v.895H9.471V1.95a.47.47 0 00-.469-.469.47.47 0 00-.469.469v.895H3.892V1.95a.47.47 0 00-.47-.469.47.47 0 00-.468.469v.895H1.87C.839 2.844 0 3.712 0 4.744v10.9c0 1.037.835 1.876 1.87 1.876h14.26A1.87 1.87 0 0018 15.65V4.742c.005-1.031-.835-1.899-1.866-1.899zm.933 12.8a.936.936 0 01-.928.938H1.87a.932.932 0 01-.933-.933V4.743c0-.52.417-.96.933-.96h1.083v.679a.47.47 0 00.469.469.47.47 0 00.469-.469v-.68h4.641v.68a.47.47 0 00.47.469.47.47 0 00.468-.469v-.68h4.595v.68a.47.47 0 00.47.469.47.47 0 00.468-.469v-.68h1.13c.52 0 .933.446.933.961v10.902z"/><path d="M7.769 6.83h-.82a.47.47 0 00-.47.469.47.47 0 00.47.469h.82a.47.47 0 00.469-.47.47.47 0 00-.47-.468zM11.033 6.83h-.821a.47.47 0 00-.469.469.47.47 0 00.469.469h.82a.47.47 0 00.47-.47.467.467 0 00-.47-.468zM14.324 6.83h-.82a.47.47 0 00-.47.469.47.47 0 00.47.469h.82a.47.47 0 00.469-.47.47.47 0 00-.47-.468zM7.769 10.065h-.82a.47.47 0 00-.47.469.47.47 0 00.47.469h.82a.47.47 0 00.469-.47.47.47 0 00-.47-.468zM4.483 10.065h-.826a.47.47 0 00-.469.469.47.47 0 00.47.469h.82a.47.47 0 00.469-.47.466.466 0 00-.464-.468zM11.033 10.065h-.821a.47.47 0 00-.469.469.47.47 0 00.469.469h.82a.47.47 0 00.47-.47.467.467 0 00-.47-.468zM14.324 10.065h-.82a.47.47 0 00-.47.469.47.47 0 00.47.469h.82a.47.47 0 00.469-.47.47.47 0 00-.47-.468zM7.769 13.253h-.82a.47.47 0 00-.47.47.47.47 0 00.47.468h.82a.47.47 0 00.469-.469.47.47 0 00-.47-.469zM4.483 13.253h-.826a.47.47 0 00-.469.47.47.47 0 00.47.468h.82a.47.47 0 00.469-.469.466.466 0 00-.464-.469zM11.033 13.253h-.821a.47.47 0 00-.469.47.47.47 0 00.469.468h.82a.47.47 0 00.47-.469.467.467 0 00-.47-.469z"/></g><defs><clipPath id="prefix__clip0"><path fill="#fff" transform="translate(0 .5)" d="M0 0h18v18H0z"/></clipPath></defs></svg>