<svg width="18" height="18" fill="none" xmlns="http://www.w3.org/2000/svg"><path d="M9 0a4.751 4.751 0 00-4.746 4.746A4.751 4.751 0 009 9.492a4.751 4.751 0 004.746-4.746A4.751 4.751 0 009 0zm0 8.438a3.696 3.696 0 01-3.691-3.692A3.696 3.696 0 019 1.055a3.696 3.696 0 013.691 3.691A3.696 3.696 0 019 8.437zM10.47 10.582H7.53c-2.434 0-4.835 1.123-6.44 3.532V18h15.82v-3.886c-1.603-2.405-4.003-3.532-6.44-3.532zm5.385 6.363H2.145v-2.508a6.564 6.564 0 015.384-2.8h2.942a6.564 6.564 0 015.384 2.8v2.508z" fill="#533780"/></svg>